Rubik-Medium.ufo
<glyph name="numbersign" format="1">
  <advance width="685"/>
  <unicode hex="0023"/>
  <outline>
    <contour>
      <point x="588" y="162" type="line"/>
      <point x="603" y="162"/>
      <point x="615" y="174"/>
      <point x="615" y="189" type="curve"/>
      <point x="615" y="252" type="line"/>
      <point x="615" y="267"/>
      <point x="603" y="279"/>
      <point x="588" y="279" type="curve"/>
      <point x="509" y="279" type="line"/>
      <point x="529" y="416" type="line"/>
      <point x="614" y="416" type="line"/>
      <point x="629" y="416"/>
      <point x="641" y="428"/>
      <point x="641" y="443" type="curve"/>
      <point x="641" y="506" type="line"/>
      <point x="641" y="521"/>
      <point x="629" y="533"/>
      <point x="614" y="533" type="curve"/>
      <point x="547" y="533" type="line"/>
      <point x="562" y="630" type="line"/>
      <point x="562" y="633" type="line"/>
      <point x="562" y="645"/>
      <point x="552" y="655"/>
      <point x="540" y="655" type="curve" name="hr01"/>
      <point x="460" y="655" type="line"/>
      <point x="447" y="655"/>
      <point x="438" y="645"/>
      <point x="436" y="634" type="curve"/>
      <point x="420" y="533" type="line" name="hr02"/>
      <point x="320" y="533" type="line"/>
      <point x="335" y="630" type="line"/>
      <point x="335" y="633" type="line"/>
      <point x="335" y="645"/>
      <point x="325" y="655"/>
      <point x="313" y="655" type="curve" name="hr03"/>
      <point x="233" y="655" type="line"/>
      <point x="220" y="655"/>
      <point x="211" y="645"/>
      <point x="209" y="634" type="curve"/>
      <point x="193" y="533" type="line" name="hr04"/>
      <point x="97" y="533" type="line"/>
      <point x="82" y="533"/>
      <point x="70" y="521"/>
      <point x="70" y="506" type="curve"/>
      <point x="70" y="443" type="line"/>
      <point x="70" y="428"/>
      <point x="82" y="416"/>
      <point x="97" y="416" type="curve"/>
      <point x="176" y="416" type="line"/>
      <point x="155" y="279" type="line"/>
      <point x="71" y="279" type="line"/>
      <point x="56" y="279"/>
      <point x="44" y="267"/>
      <point x="44" y="252" type="curve"/>
      <point x="44" y="189" type="line"/>
      <point x="44" y="174"/>
      <point x="56" y="162"/>
      <point x="71" y="162" type="curve" name="hr05"/>
      <point x="138" y="162" type="line"/>
      <point x="123" y="63" type="line"/>
      <point x="123" y="61" type="line"/>
      <point x="123" y="49"/>
      <point x="133" y="39"/>
      <point x="145" y="39" type="curve" name="hr06"/>
      <point x="224" y="39" type="line"/>
      <point x="237" y="39"/>
      <point x="247" y="48"/>
      <point x="249" y="60" type="curve"/>
      <point x="264" y="162" type="line" name="hr07"/>
      <point x="365" y="162" type="line"/>
      <point x="350" y="63" type="line"/>
      <point x="350" y="61" type="line"/>
      <point x="350" y="49"/>
      <point x="360" y="39"/>
      <point x="372" y="39" type="curve" name="hr08"/>
      <point x="451" y="39" type="line"/>
      <point x="464" y="39"/>
      <point x="474" y="48"/>
      <point x="476" y="60" type="curve"/>
      <point x="491" y="162" type="line" name="hr09"/>
    </contour>
    <contour>
      <point x="302" y="416" type="line"/>
      <point x="403" y="416" type="line"/>
      <point x="382" y="279" type="line"/>
      <point x="282" y="279" type="line"/>
    </contour>
  </outline>
</glyph>
<glyph name="dollar" format="1">
  <advance width="645"/>
  <unicode hex="0024"/>
  <outline>
    <contour>
      <point x="389" y="773" type="line" name="hr00"/>
      <point x="389" y="788"/>
      <point x="377" y="800"/>
      <point x="362" y="800" type="curve"/>
      <point x="281" y="800" type="line"/>
      <point x="266" y="800"/>
      <point x="254" y="788"/>
      <point x="254" y="773" type="curve"/>
      <point x="254" y="705" type="line"/>
      <point x="136" y="685"/>
      <point x="53" y="607"/>
      <point x="53" y="504" type="curve" smooth="yes"/>
      <point x="53" y="384"/>
      <point x="117" y="334"/>
      <point x="251" y="301" type="curve" smooth="yes"/>
      <point x="399" y="265"/>
      <point x="475" y="259"/>
      <point x="475" y="199" type="curve" smooth="yes"/>
      <point x="475" y="139"/>
      <point x="401" y="115"/>
      <point x="321" y="115" type="curve" smooth="yes"/>
      <point x="221" y="115"/>
      <point x="189" y="152"/>
      <point x="171" y="187" type="curve" smooth="yes"/>
      <point x="163" y="203"/>
      <point x="152" y="211"/>
      <point x="130" y="211" type="curve"/>
      <point x="60" y="211" type="line"/>
      <point x="45" y="211"/>
      <point x="32" y="200"/>
      <point x="33" y="184" type="curve" smooth="yes"/>
      <point x="39" y="84"/>
      <point x="134" y="14"/>
      <point x="254" y="-5" type="curve"/>
      <point x="254" y="-73" type="line"/>
      <point x="254" y="-88"/>
      <point x="266" y="-100"/>
      <point x="281" y="-100" type="curve"/>
      <point x="362" y="-100" type="line"/>
      <point x="377" y="-100"/>
      <point x="389" y="-88"/>
      <point x="389" y="-73" type="curve"/>
      <point x="389" y="-5" type="line"/>
      <point x="528" y="14"/>
      <point x="610" y="95"/>
      <point x="610" y="199" type="curve" smooth="yes"/>
      <point x="610" y="309"/>
      <point x="551" y="367"/>
      <point x="391" y="401" type="curve" smooth="yes"/>
      <point x="245" y="432"/>
      <point x="188" y="444"/>
      <point x="188" y="504" type="curve" smooth="yes"/>
      <point x="188" y="554"/>
      <point x="246" y="585"/>
      <point x="316" y="585" type="curve" smooth="yes"/>
      <point x="396" y="585"/>
      <point x="432" y="556"/>
      <point x="452" y="523" type="curve" smooth="yes"/>
      <point x="461" y="508"/>
      <point x="471" y="499"/>
      <point x="493" y="499" type="curve"/>
      <point x="563" y="499" type="line"/>
      <point x="578" y="499"/>
      <point x="591" y="510"/>
      <point x="590" y="526" type="curve" smooth="yes"/>
      <point x="585" y="591"/>
      <point x="520" y="679"/>
      <point x="389" y="703" type="curve"/>
    </contour>
  </outline>
</glyph>
<glyph name="percent" format="1">
  <advance width="814"/>
  <unicode hex="0025"/>
  <outline>
    <contour>
      <point x="191" y="705" type="curve" smooth="yes"/>
      <point x="93" y="705"/>
      <point x="47" y="642"/>
      <point x="42" y="580" type="curve" smooth="yes"/>
      <point x="39" y="546"/>
      <point x="39" y="503"/>
      <point x="42" y="469" type="curve" smooth="yes"/>
      <point x="47" y="407"/>
      <point x="93" y="345"/>
      <point x="191" y="345" type="curve" smooth="yes"/>
      <point x="289" y="345"/>
      <point x="335" y="407"/>
      <point x="340" y="469" type="curve" smooth="yes"/>
      <point x="343" y="503"/>
      <point x="343" y="546"/>
      <point x="340" y="580" type="curve" smooth="yes"/>
      <point x="335" y="642"/>
      <point x="289" y="705"/>
    </contour>
    <contour>
      <point x="244" y="479" type="curve" smooth="yes"/>
      <point x="241" y="453"/>
      <point x="229" y="431"/>
      <point x="191" y="431" type="curve" smooth="yes"/>
      <point x="153" y="431"/>
      <point x="141" y="453"/>
      <point x="138" y="479" type="curve" smooth="yes"/>
      <point x="136" y="494"/>
      <point x="136" y="556"/>
      <point x="138" y="571" type="curve" smooth="yes"/>
      <point x="141" y="597"/>
      <point x="153" y="619"/>
      <point x="191" y="619" type="curve" smooth="yes"/>
      <point x="230" y="619"/>
      <point x="241" y="597"/>
      <point x="244" y="571" type="curve" smooth="yes"/>
      <point x="246" y="556"/>
      <point x="246" y="494"/>
    </contour>
    <contour>
      <point x="624" y="354" type="curve" name="hr01" smooth="yes"/>
      <point x="526" y="354"/>
      <point x="480" y="291"/>
      <point x="475" y="229" type="curve" smooth="yes"/>
      <point x="472" y="195"/>
      <point x="472" y="152"/>
      <point x="475" y="118" type="curve" smooth="yes"/>
      <point x="480" y="56"/>
      <point x="526" y="-6"/>
      <point x="624" y="-6" type="curve" smooth="yes"/>
      <point x="722" y="-6"/>
      <point x="768" y="56"/>
      <point x="773" y="118" type="curve" smooth="yes"/>
      <point x="776" y="152"/>
      <point x="776" y="195"/>
      <point x="773" y="229" type="curve" smooth="yes"/>
      <point x="768" y="291"/>
      <point x="722" y="354"/>
    </contour>
    <contour>
      <point x="677" y="128" type="curve" smooth="yes"/>
      <point x="674" y="102"/>
      <point x="662" y="80"/>
      <point x="624" y="80" type="curve" smooth="yes"/>
      <point x="586" y="80"/>
      <point x="574" y="102"/>
      <point x="571" y="128" type="curve" smooth="yes"/>
      <point x="569" y="143"/>
      <point x="569" y="205"/>
      <point x="571" y="220" type="curve" smooth="yes"/>
      <point x="574" y="246"/>
      <point x="586" y="268"/>
      <point x="624" y="268" type="curve" smooth="yes"/>
      <point x="663" y="268"/>
      <point x="674" y="246"/>
      <point x="677" y="220" type="curve" smooth="yes"/>
      <point x="679" y="205"/>
      <point x="679" y="143"/>
    </contour>
    <contour>
      <point x="98" y="31" type="line" smooth="yes"/>
      <point x="95" y="27"/>
      <point x="94" y="22"/>
      <point x="94" y="20" type="curve" smooth="yes"/>
      <point x="94" y="8"/>
      <point x="104" y="0"/>
      <point x="118" y="0" type="curve" name="hr02" smooth="yes"/>
      <point x="178" y="0" type="line" smooth="yes"/>
      <point x="197" y="0"/>
      <point x="205" y="7"/>
      <point x="214" y="19" type="curve" smooth="yes"/>
      <point x="708" y="669" type="line" smooth="yes"/>
      <point x="711" y="673"/>
      <point x="712" y="678"/>
      <point x="712" y="680" type="curve" smooth="yes"/>
      <point x="712" y="692"/>
      <point x="702" y="700"/>
      <point x="688" y="700" type="curve" smooth="yes"/>
      <point x="628" y="700" type="line" smooth="yes"/>
      <point x="609" y="700"/>
      <point x="601" y="693"/>
      <point x="592" y="681" type="curve" smooth="yes"/>
    </contour>
  </outline>
</glyph>
<glyph name="ampersand" format="1">
  <advance width="722"/>
  <unicode hex="0026"/>
  <outline>
    <contour>
      <point x="547" y="344" type="curve" smooth="yes"/>
      <point x="538" y="310"/>
      <point x="522" y="271"/>
      <point x="498" y="236" type="curve"/>
      <point x="379" y="350" type="line"/>
      <point x="452" y="401"/>
      <point x="497" y="449"/>
      <point x="497" y="529" type="curve" smooth="yes"/>
      <point x="497" y="631"/>
      <point x="417" y="710"/>
      <point x="301" y="710" type="curve" smooth="yes"/>
      <point x="185" y="710"/>
      <point x="104" y="635"/>
      <point x="104" y="528" type="curve" smooth="yes"/>
      <point x="104" y="475"/>
      <point x="127" y="427"/>
      <point x="179" y="370" type="curve"/>
      <point x="112" y="325"/>
      <point x="54" y="272"/>
      <point x="54" y="178" type="curve" name="hr01" smooth="yes"/>
      <point x="54" y="56"/>
      <point x="176" y="-10"/>
      <point x="292" y="-10" type="curve" smooth="yes"/>
      <point x="374" y="-10"/>
      <point x="445" y="17"/>
      <point x="502" y="58" type="curve"/>
      <point x="553" y="10" type="line" smooth="yes"/>
      <point x="558" y="6"/>
      <point x="564" y="0"/>
      <point x="578" y="0" type="curve" name="hr02" smooth="yes"/>
      <point x="677" y="0" type="line" smooth="yes"/>
      <point x="692" y="0"/>
      <point x="703" y="12"/>
      <point x="703" y="28" type="curve" smooth="yes"/>
      <point x="703" y="33"/>
      <point x="701" y="40"/>
      <point x="692" y="49" type="curve" smooth="yes"/>
      <point x="592" y="145" type="line"/>
      <point x="643" y="210"/>
      <point x="672" y="283"/>
      <point x="677" y="339" type="curve" smooth="yes"/>
      <point x="678" y="354"/>
      <point x="665" y="366"/>
      <point x="650" y="366" type="curve" smooth="yes"/>
      <point x="574" y="366" type="line" smooth="yes"/>
      <point x="559" y="366"/>
      <point x="551" y="359"/>
    </contour>
    <contour>
      <point x="272" y="280" type="curve"/>
      <point x="410" y="148" type="line"/>
      <point x="376" y="126"/>
      <point x="336" y="112"/>
      <point x="292" y="112" type="curve" name="hr03" smooth="yes"/>
      <point x="238" y="112"/>
      <point x="184" y="140"/>
      <point x="184" y="181" type="curve" smooth="yes"/>
      <point x="184" y="220"/>
      <point x="222" y="249"/>
    </contour>
    <contour>
      <point x="288" y="438" type="curve"/>
      <point x="258" y="468"/>
      <point x="234" y="494"/>
      <point x="234" y="529" type="curve" name="hr04" smooth="yes"/>
      <point x="234" y="560"/>
      <point x="257" y="585"/>
      <point x="301" y="585" type="curve" smooth="yes"/>
      <point x="348" y="585"/>
      <point x="367" y="556"/>
      <point x="367" y="529" type="curve" smooth="yes"/>
      <point x="367" y="491"/>
      <point x="340" y="471"/>
    </contour>
  </outline>
</glyph>
<glyph name="quotesingle" format="1">
  <advance width="232"/>
  <unicode hex="0027"/>
  <outline>
    <contour>
      <point x="185" y="674" type="line" name="hr00" smooth="yes"/>
      <point x="187" y="694"/>
      <point x="179" y="710"/>
      <point x="158" y="710" type="curve" smooth="yes"/>
      <point x="74" y="710" type="line" smooth="yes"/>
      <point x="53" y="710"/>
      <point x="45" y="694"/>
      <point x="47" y="674" type="curve" smooth="yes"/>
      <point x="69" y="496" type="line" smooth="yes"/>
      <point x="71" y="478"/>
      <point x="83" y="468"/>
      <point x="97" y="468" type="curve" smooth="yes"/>
      <point x="135" y="468" type="line" smooth="yes"/>
      <point x="149" y="468"/>
      <point x="161" y="478"/>
      <point x="163" y="496" type="curve" smooth="yes"/>
    </contour>
  </outline>
</glyph>
<glyph name="asterisk" format="1">
  <advance width="446"/>
  <unicode hex="002A"/>
  <outline>
    <contour>
      <point x="284" y="700" type="line" name="hr00" smooth="yes"/>
      <point x="285" y="705"/>
      <point x="285" y="707"/>
      <point x="285" y="708" type="curve" smooth="yes"/>
      <point x="285" y="719"/>
      <point x="275" y="730"/>
      <point x="263" y="730" type="curve" smooth="yes"/>
      <point x="183" y="730" type="line" smooth="yes"/>
      <point x="171" y="730"/>
      <point x="161" y="719"/>
      <point x="161" y="708" type="curve" smooth="yes"/>
      <point x="161" y="707"/>
      <point x="161" y="705"/>
      <point x="162" y="700" type="curve" smooth="yes"/>
      <point x="184" y="610" type="line"/>
      <point x="106" y="659" type="line" smooth="yes"/>
      <point x="102" y="661"/>
      <point x="100" y="662"/>
      <point x="99" y="662" type="curve" smooth="yes"/>
      <point x="88" y="666"/>
      <point x="75" y="660"/>
      <point x="71" y="648" type="curve" smooth="yes"/>
      <point x="46" y="572" type="line" smooth="yes"/>
      <point x="43" y="561"/>
      <point x="50" y="548"/>
      <point x="60" y="544" type="curve"/>
      <point x="61" y="544"/>
      <point x="63" y="544"/>
      <point x="68" y="543" type="curve"/>
      <point x="159" y="536" type="line"/>
      <point x="90" y="478" type="line"/>
      <point x="87" y="474"/>
      <point x="85" y="473"/>
      <point x="85" y="472" type="curve" smooth="yes"/>
      <point x="78" y="463"/>
      <point x="79" y="448"/>
      <point x="90" y="441" type="curve"/>
      <point x="154" y="394" type="line" smooth="yes"/>
      <point x="164" y="387"/>
      <point x="178" y="390"/>
      <point x="185" y="398" type="curve"/>
      <point x="185" y="399"/>
      <point x="186" y="401"/>
      <point x="189" y="406" type="curve"/>
      <point x="223" y="489" type="line"/>
      <point x="257" y="406" type="line"/>
      <point x="260" y="401"/>
      <point x="261" y="399"/>
      <point x="261" y="398" type="curve" smooth="yes"/>
      <point x="268" y="390"/>
      <point x="282" y="387"/>
      <point x="292" y="394" type="curve" smooth="yes"/>
      <point x="356" y="441" type="line"/>
      <point x="367" y="448"/>
      <point x="368" y="463"/>
      <point x="361" y="472" type="curve"/>
      <point x="361" y="473"/>
      <point x="359" y="474"/>
      <point x="356" y="478" type="curve"/>
      <point x="287" y="536" type="line"/>
      <point x="378" y="543" type="line"/>
      <point x="383" y="544"/>
      <point x="385" y="544"/>
      <point x="386" y="544" type="curve" smooth="yes"/>
      <point x="396" y="548"/>
      <point x="403" y="561"/>
      <point x="400" y="572" type="curve" smooth="yes"/>
      <point x="375" y="648" type="line" smooth="yes"/>
      <point x="371" y="660"/>
      <point x="358" y="666"/>
      <point x="347" y="662" type="curve"/>
      <point x="346" y="662"/>
      <point x="344" y="661"/>
      <point x="340" y="659" type="curve" smooth="yes"/>
      <point x="262" y="610" type="line"/>
    </contour>
  </outline>
</glyph>
<glyph name="plus" format="1">
  <advance width="613"/>
  <unicode hex="002B"/>
  <outline>
    <contour>
      <point x="550" y="241" type="line" name="hr00" smooth="yes"/>
      <point x="565" y="241"/>
      <point x="577" y="253"/>
      <point x="577" y="268" type="curve" smooth="yes"/>
      <point x="577" y="334" type="line" smooth="yes"/>
      <point x="577" y="349"/>
      <point x="565" y="361"/>
      <point x="550" y="361" type="curve" smooth="yes"/>
      <point x="372" y="361" type="line"/>
      <point x="372" y="542" type="line" smooth="yes"/>
      <point x="372" y="557"/>
      <point x="360" y="569"/>
      <point x="345" y="569" type="curve" smooth="yes"/>
      <point x="269" y="569" type="line" smooth="yes"/>
      <point x="254" y="569"/>
      <point x="242" y="557"/>
      <point x="242" y="542" type="curve" smooth="yes"/>
      <point x="242" y="361" type="line"/>
      <point x="63" y="361" type="line" smooth="yes"/>
      <point x="48" y="361"/>
      <point x="36" y="349"/>
      <point x="36" y="334" type="curve" smooth="yes"/>
      <point x="36" y="268" type="line" smooth="yes"/>
      <point x="36" y="253"/>
      <point x="48" y="241"/>
      <point x="63" y="241" type="curve" smooth="yes"/>
      <point x="242" y="241" type="line"/>
      <point x="242" y="59" type="line" smooth="yes"/>
      <point x="242" y="44"/>
      <point x="254" y="32"/>
      <point x="269" y="32" type="curve" smooth="yes"/>
      <point x="345" y="32" type="line" smooth="yes"/>
      <point x="360" y="32"/>
      <point x="372" y="44"/>
      <point x="372" y="59" type="curve" smooth="yes"/>
      <point x="372" y="241" type="line"/>
    </contour>
  </outline>
</glyph>
<glyph name="comma" format="1">
  <advance width="266"/>
  <unicode hex="002C"/>
  <outline>
    <contour>
      <point x="39" y="-51" type="line" name="hr00" smooth="yes"/>
      <point x="39" y="-53"/>
      <point x="39" y="-51"/>
      <point x="39" y="-53" type="curve" smooth="yes"/>
      <point x="39" y="-65"/>
      <point x="49" y="-75"/>
      <point x="61" y="-75" type="curve" smooth="yes"/>
      <point x="106" y="-75" type="line" smooth="yes"/>
      <point x="132" y="-75"/>
      <point x="144" y="-56"/>
      <point x="149" y="-43" type="curve" smooth="yes"/>
      <point x="215" y="123" type="line" smooth="yes"/>
      <point x="216" y="126"/>
      <point x="216" y="128"/>
      <point x="216" y="130" type="curve" smooth="yes"/>
      <point x="216" y="142"/>
      <point x="206" y="152"/>
      <point x="194" y="152" type="curve" smooth="yes"/>
      <point x="107" y="152" type="line" smooth="yes"/>
      <point x="80" y="152"/>
      <point x="67" y="131"/>
      <point x="64" y="113" type="curve" smooth="yes"/>
    </contour>
  </outline>
</glyph>
<glyph name="slash" format="1">
  <advance width="526"/>
  <unicode hex="002F"/>
  <outline>
    <contour>
      <point x="27" y="-53" type="line" name="hr00" smooth="yes"/>
      <point x="25" y="-58"/>
      <point x="25" y="-60"/>
      <point x="25" y="-62" type="curve" smooth="yes"/>
      <point x="25" y="-74"/>
      <point x="35" y="-84"/>
      <point x="47" y="-84" type="curve" smooth="yes"/>
      <point x="118" y="-84" type="line" smooth="yes"/>
      <point x="145" y="-84"/>
      <point x="157" y="-67"/>
      <point x="162" y="-54" type="curve" smooth="yes"/>
      <point x="500" y="755" type="line" smooth="yes"/>
      <point x="502" y="760"/>
      <point x="502" y="762"/>
      <point x="502" y="764" type="curve" smooth="yes"/>
      <point x="502" y="776"/>
      <point x="492" y="786"/>
      <point x="480" y="786" type="curve" smooth="yes"/>
      <point x="406" y="786" type="line" smooth="yes"/>
      <point x="381" y="786"/>
      <point x="368" y="770"/>
      <point x="362" y="756" type="curve" smooth="yes"/>
    </contour>
  </outline>
</glyph>
<glyph name="zero" format="1">
  <advance width="652"/>
  <unicode hex="0030"/>
  <outline>
    <contour>
      <point x="595" y="439" type="curve" name="hr00" smooth="yes"/>
      <point x="588" y="594"/>
      <point x="522" y="710"/>
      <point x="326" y="710" type="curve" smooth="yes"/>
      <point x="130" y="710"/>
      <point x="64" y="589"/>
      <point x="57" y="434" type="curve" smooth="yes"/>
      <point x="55" y="384"/>
      <point x="55" y="311"/>
      <point x="57" y="261" type="curve" smooth="yes"/>
      <point x="64" y="106"/>
      <point x="130" y="-10"/>
      <point x="326" y="-10" type="curve" smooth="yes"/>
      <point x="522" y="-10"/>
      <point x="588" y="106"/>
      <point x="595" y="261" type="curve" smooth="yes"/>
      <point x="597" y="311"/>
      <point x="597" y="389"/>
    </contour>
    <contour>
      <point x="192" y="266" type="curve" smooth="yes"/>
      <point x="189" y="316"/>
      <point x="189" y="384"/>
      <point x="192" y="434" type="curve" smooth="yes"/>
      <point x="198" y="530"/>
      <point x="233" y="585"/>
      <point x="326" y="585" type="curve" smooth="yes"/>
      <point x="419" y="585"/>
      <point x="454" y="530"/>
      <point x="460" y="434" type="curve" smooth="yes"/>
      <point x="463" y="384"/>
      <point x="463" y="316"/>
      <point x="460" y="266" type="curve" smooth="yes"/>
      <point x="454" y="170"/>
      <point x="419" y="115"/>
      <point x="326" y="115" type="curve" smooth="yes"/>
      <point x="233" y="115"/>
      <point x="198" y="170"/>
    </contour>
  </outline>
</glyph>
<glyph name="one" format="1">
  <advance width="456"/>
  <unicode hex="0031"/>
  <outline>
    <contour>
      <point x="72" y="415" type="line" name="hr00" smooth="yes"/>
      <point x="82" y="403"/>
      <point x="98" y="401"/>
      <point x="110" y="410" type="curve" smooth="yes"/>
      <point x="252" y="521" type="line"/>
      <point x="252" y="27" type="line" smooth="yes"/>
      <point x="252" y="12"/>
      <point x="264" y="0"/>
      <point x="279" y="0" type="curve" smooth="yes"/>
      <point x="360" y="0" type="line" smooth="yes"/>
      <point x="375" y="0"/>
      <point x="387" y="12"/>
      <point x="387" y="27" type="curve" smooth="yes"/>
      <point x="387" y="673" type="line" smooth="yes"/>
      <point x="387" y="688"/>
      <point x="375" y="700"/>
      <point x="360" y="700" type="curve" smooth="yes"/>
      <point x="282" y="700" type="line" smooth="yes"/>
      <point x="269" y="700"/>
      <point x="258" y="691"/>
      <point x="247" y="683" type="curve" smooth="yes"/>
      <point x="30" y="512" type="line" smooth="yes"/>
      <point x="18" y="503"/>
      <point x="16" y="486"/>
      <point x="25" y="474" type="curve" smooth="yes"/>
    </contour>
  </outline>
</glyph>
<glyph name="two" format="1">
  <advance width="612"/>
  <unicode hex="0032"/>
  <outline>
    <contour>
      <point x="72" y="135" type="line" smooth="yes"/>
      <point x="63" y="128"/>
      <point x="45" y="111"/>
      <point x="45" y="88" type="curve" smooth="yes"/>
      <point x="45" y="27" type="line" smooth="yes"/>
      <point x="45" y="12"/>
      <point x="57" y="0"/>
      <point x="72" y="0" type="curve" smooth="yes"/>
      <point x="539" y="0" type="line" smooth="yes"/>
      <point x="554" y="0"/>
      <point x="566" y="12"/>
      <point x="566" y="27" type="curve" smooth="yes"/>
      <point x="566" y="98" type="line" smooth="yes"/>
      <point x="566" y="113"/>
      <point x="554" y="125"/>
      <point x="539" y="125" type="curve" smooth="yes"/>
      <point x="261" y="125" type="line"/>
      <point x="446" y="294" type="line"/>
      <point x="540" y="370"/>
      <point x="551" y="419"/>
      <point x="551" y="486" type="curve" smooth="yes"/>
      <point x="551" y="589"/>
      <point x="474" y="710"/>
      <point x="307" y="710" type="curve" smooth="yes"/>
      <point x="168" y="710"/>
      <point x="63" y="611"/>
      <point x="55" y="490" type="curve" smooth="yes"/>
      <point x="54" y="474"/>
      <point x="67" y="463"/>
      <point x="82" y="463" type="curve" smooth="yes"/>
      <point x="161" y="463" type="line" smooth="yes"/>
      <point x="173" y="463"/>
      <point x="187" y="472"/>
      <point x="191" y="489" type="curve" smooth="yes"/>
      <point x="205" y="544"/>
      <point x="235" y="585"/>
      <point x="308" y="585" type="curve" name="hr01" smooth="yes"/>
      <point x="385" y="585"/>
      <point x="416" y="541"/>
      <point x="416" y="487" type="curve" smooth="yes"/>
      <point x="416" y="459"/>
      <point x="409" y="424"/>
      <point x="369" y="392" type="curve" smooth="yes"/>
    </contour>
  </outline>
</glyph>
<glyph name="three" format="1">
  <advance width="635"/>
  <unicode hex="0033"/>
  <outline>
    <contour>
      <point x="95" y="700" type="line" smooth="yes"/>
      <point x="80" y="700"/>
      <point x="68" y="688"/>
      <point x="68" y="673" type="curve" smooth="yes"/>
      <point x="68" y="602" type="line" smooth="yes"/>
      <point x="68" y="587"/>
      <point x="80" y="575"/>
      <point x="95" y="575" type="curve" smooth="yes"/>
      <point x="371" y="575" type="line"/>
      <point x="231" y="428" type="line" smooth="yes"/>
      <point x="222" y="419"/>
      <point x="209" y="406"/>
      <point x="209" y="391" type="curve" smooth="yes"/>
      <point x="209" y="320" type="line" smooth="yes"/>
      <point x="209" y="305"/>
      <point x="221" y="293"/>
      <point x="236" y="293" type="curve" smooth="yes"/>
      <point x="319" y="293" type="line" smooth="yes"/>
      <point x="400" y="293"/>
      <point x="455" y="268"/>
      <point x="455" y="209" type="curve" smooth="yes"/>
      <point x="455" y="150"/>
      <point x="400" y="115"/>
      <point x="319" y="115" type="curve" smooth="yes"/>
      <point x="222" y="115"/>
      <point x="191" y="144"/>
      <point x="174" y="175" type="curve" smooth="yes"/>
      <point x="165" y="191"/>
      <point x="157" y="200"/>
      <point x="144" y="200" type="curve" name="hr01" smooth="yes"/>
      <point x="65" y="200" type="line" smooth="yes"/>
      <point x="50" y="200"/>
      <point x="37" y="189"/>
      <point x="38" y="173" type="curve" smooth="yes"/>
      <point x="46" y="87"/>
      <point x="132" y="-10"/>
      <point x="319" y="-10" type="curve" smooth="yes"/>
      <point x="474" y="-10"/>
      <point x="590" y="71"/>
      <point x="590" y="209" type="curve" smooth="yes"/>
      <point x="590" y="324"/>
      <point x="511" y="396"/>
      <point x="392" y="411" type="curve"/>
      <point x="538" y="565" type="line" smooth="yes"/>
      <point x="547" y="574"/>
      <point x="560" y="587"/>
      <point x="560" y="602" type="curve" smooth="yes"/>
      <point x="560" y="673" type="line" smooth="yes"/>
      <point x="560" y="688"/>
      <point x="548" y="700"/>
      <point x="533" y="700" type="curve" smooth="yes"/>
    </contour>
  </outline>
</glyph>
<glyph name="six" format="1">
  <advance width="620"/>
  <unicode hex="0036"/>
  <outline>
    <contour>
      <point x="44" y="237" type="curve" name="hr00"/>
      <point x="44" y="91"/>
      <point x="156" y="-10"/>
      <point x="316" y="-10" type="curve" smooth="yes"/>
      <point x="476" y="-10"/>
      <point x="588" y="91"/>
      <point x="588" y="237" type="curve" smooth="yes"/>
      <point x="588" y="382"/>
      <point x="478" y="480"/>
      <point x="320" y="482" type="curve"/>
      <point x="444" y="660" type="line" smooth="yes"/>
      <point x="446" y="663"/>
      <point x="449" y="667"/>
      <point x="449" y="673" type="curve" smooth="yes"/>
      <point x="449" y="688"/>
      <point x="437" y="700"/>
      <point x="422" y="700" type="curve" smooth="yes"/>
      <point x="332" y="700" type="line" smooth="yes"/>
      <point x="314" y="700"/>
      <point x="306" y="688"/>
      <point x="301" y="680" type="curve" smooth="yes"/>
      <point x="111" y="412" type="line" smooth="yes"/>
      <point x="77" y="363"/>
      <point x="45" y="315"/>
    </contour>
    <contour>
      <point x="452" y="237" type="curve" smooth="yes"/>
      <point x="452" y="169"/>
      <point x="402" y="115"/>
      <point x="316" y="115" type="curve" smooth="yes"/>
      <point x="230" y="115"/>
      <point x="180" y="169"/>
      <point x="180" y="237" type="curve" smooth="yes"/>
      <point x="180" y="305"/>
      <point x="230" y="357"/>
      <point x="316" y="357" type="curve" smooth="yes"/>
      <point x="402" y="357"/>
      <point x="452" y="305"/>
    </contour>
  </outline>
</glyph>
<glyph name="nine" format="1">
  <advance width="604"/>
  <unicode hex="0039"/>
  <outline>
    <contour>
      <point x="158" y="27" type="curve" name="hr00" smooth="yes"/>
      <point x="158" y="12"/>
      <point x="170" y="0"/>
      <point x="185" y="0" type="curve"/>
      <point x="275" y="0" type="line"/>
      <point x="293" y="0"/>
      <point x="301" y="12"/>
      <point x="306" y="20" type="curve"/>
      <point x="494" y="288" type="line"/>
      <point x="528" y="337"/>
      <point x="566" y="391"/>
      <point x="566" y="469" type="curve" smooth="yes"/>
      <point x="566" y="615"/>
      <point x="449" y="710"/>
      <point x="299" y="710" type="curve" smooth="yes"/>
      <point x="149" y="710"/>
      <point x="32" y="615"/>
      <point x="32" y="469" type="curve" smooth="yes"/>
      <point x="32" y="324"/>
      <point x="147" y="230"/>
      <point x="295" y="229" type="curve"/>
      <point x="163" y="40" type="line"/>
      <point x="161" y="37"/>
      <point x="158" y="33"/>
    </contour>
    <contour>
      <point x="168" y="469" type="curve" smooth="yes"/>
      <point x="168" y="542"/>
      <point x="223" y="585"/>
      <point x="299" y="585" type="curve" smooth="yes"/>
      <point x="375" y="585"/>
      <point x="430" y="542"/>
      <point x="430" y="469" type="curve" smooth="yes"/>
      <point x="430" y="396"/>
      <point x="375" y="354"/>
      <point x="299" y="354" type="curve" smooth="yes"/>
      <point x="223" y="354"/>
      <point x="168" y="395"/>
    </contour>
  </outline>
</glyph>
<glyph name="colon" format="1">
  <advance width="273"/>
  <unicode hex="003A"/>
  <outline>
    <contour>
      <point x="90" y="152" type="line" name="hr00" smooth="yes"/>
      <point x="75" y="152"/>
      <point x="63" y="140"/>
      <point x="63" y="125" type="curve" smooth="yes"/>
      <point x="63" y="27" type="line" smooth="yes"/>
      <point x="63" y="12"/>
      <point x="75" y="0"/>
      <point x="90" y="0" type="curve" smooth="yes"/>
      <point x="183" y="0" type="line" smooth="yes"/>
      <point x="198" y="0"/>
      <point x="210" y="12"/>
      <point x="210" y="27" type="curve" smooth="yes"/>
      <point x="210" y="125" type="line" smooth="yes"/>
      <point x="210" y="140"/>
      <point x="198" y="152"/>
      <point x="183" y="152" type="curve" smooth="yes"/>
    </contour>
    <contour>
      <point x="90" y="502" type="line" smooth="yes"/>
      <point x="75" y="502"/>
      <point x="63" y="490"/>
      <point x="63" y="475" type="curve" smooth="yes"/>
      <point x="63" y="377" type="line" smooth="yes"/>
      <point x="63" y="362"/>
      <point x="75" y="350"/>
      <point x="90" y="350" type="curve" smooth="yes"/>
      <point x="183" y="350" type="line" smooth="yes"/>
      <point x="198" y="350"/>
      <point x="210" y="362"/>
      <point x="210" y="377" type="curve" smooth="yes"/>
      <point x="210" y="475" type="line" smooth="yes"/>
      <point x="210" y="490"/>
      <point x="198" y="502"/>
      <point x="183" y="502" type="curve" smooth="yes"/>
    </contour>
  </outline>
</glyph>
<glyph name="semicolon" format="1">
  <advance width="289"/>
  <unicode hex="003B"/>
  <outline>
    <contour>
      <point x="106" y="502" type="line" name="hr00" smooth="yes"/>
      <point x="91" y="502"/>
      <point x="79" y="490"/>
      <point x="79" y="475" type="curve" smooth="yes"/>
      <point x="79" y="377" type="line" smooth="yes"/>
      <point x="79" y="362"/>
      <point x="91" y="350"/>
      <point x="106" y="350" type="curve" smooth="yes"/>
      <point x="199" y="350" type="line" smooth="yes"/>
      <point x="214" y="350"/>
      <point x="226" y="362"/>
      <point x="226" y="377" type="curve" smooth="yes"/>
      <point x="226" y="475" type="line" smooth="yes"/>
      <point x="226" y="490"/>
      <point x="214" y="502"/>
      <point x="199" y="502" type="curve" smooth="yes"/>
    </contour>
    <contour>
      <point x="49" y="-50" type="line" smooth="yes"/>
      <point x="49" y="-52"/>
      <point x="49" y="-50"/>
      <point x="49" y="-52" type="curve" smooth="yes"/>
      <point x="49" y="-64"/>
      <point x="59" y="-74"/>
      <point x="71" y="-74" type="curve" smooth="yes"/>
      <point x="116" y="-74" type="line" smooth="yes"/>
      <point x="142" y="-74"/>
      <point x="154" y="-55"/>
      <point x="159" y="-42" type="curve" smooth="yes"/>
      <point x="225" y="123" type="line" smooth="yes"/>
      <point x="226" y="126"/>
      <point x="226" y="128"/>
      <point x="226" y="130" type="curve" smooth="yes"/>
      <point x="226" y="142"/>
      <point x="216" y="152"/>
      <point x="204" y="152" type="curve" smooth="yes"/>
      <point x="117" y="152" type="line" smooth="yes"/>
      <point x="90" y="152"/>
      <point x="77" y="131"/>
      <point x="74" y="113" type="curve" smooth="yes"/>
    </contour>
  </outline>
</glyph>
<glyph name="less" format="1">
  <advance width="500"/>
  <unicode hex="003C"/>
  <outline>
    <contour>
      <point x="409" y="502" type="line" name="hr00" smooth="yes"/>
      <point x="422" y="511"/>
      <point x="441" y="526"/>
      <point x="441" y="546" type="curve" smooth="yes"/>
      <point x="441" y="631" type="line" smooth="yes"/>
      <point x="441" y="643"/>
      <point x="432" y="652"/>
      <point x="420" y="652" type="curve" smooth="yes"/>
      <point x="418" y="652"/>
      <point x="414" y="652"/>
      <point x="409" y="649" type="curve" smooth="yes"/>
      <point x="59" y="413" type="line" smooth="yes"/>
      <point x="41" y="401"/>
      <point x="30" y="392"/>
      <point x="30" y="371" type="curve" smooth="yes"/>
      <point x="30" y="329" type="line" smooth="yes"/>
      <point x="30" y="308"/>
      <point x="41" y="299"/>
      <point x="59" y="287" type="curve" smooth="yes"/>
      <point x="409" y="51" type="line" smooth="yes"/>
      <point x="414" y="48"/>
      <point x="418" y="48"/>
      <point x="420" y="48" type="curve" smooth="yes"/>
      <point x="432" y="48"/>
      <point x="441" y="57"/>
      <point x="441" y="69" type="curve" smooth="yes"/>
      <point x="441" y="154" type="line" smooth="yes"/>
      <point x="441" y="174"/>
      <point x="422" y="189"/>
      <point x="409" y="198" type="curve" smooth="yes"/>
      <point x="183" y="350" type="line"/>
    </contour>
  </outline>
</glyph>
<glyph name="equal" format="1">
  <advance width="569"/>
  <unicode hex="003D"/>
  <outline>
    <contour>
      <point x="477" y="364" type="line" name="hr00" smooth="yes"/>
      <point x="492" y="364"/>
      <point x="504" y="376"/>
      <point x="504" y="391" type="curve" smooth="yes"/>
      <point x="504" y="457" type="line" smooth="yes"/>
      <point x="504" y="472"/>
      <point x="492" y="484"/>
      <point x="477" y="484" type="curve" smooth="yes"/>
      <point x="92" y="484" type="line" smooth="yes"/>
      <point x="77" y="484"/>
      <point x="65" y="472"/>
      <point x="65" y="457" type="curve" smooth="yes"/>
      <point x="65" y="391" type="line" smooth="yes"/>
      <point x="65" y="376"/>
      <point x="77" y="364"/>
      <point x="92" y="364" type="curve" smooth="yes"/>
    </contour>
    <contour>
      <point x="477" y="117" type="line" smooth="yes"/>
      <point x="492" y="117"/>
      <point x="504" y="129"/>
      <point x="504" y="144" type="curve" smooth="yes"/>
      <point x="504" y="210" type="line" smooth="yes"/>
      <point x="504" y="225"/>
      <point x="492" y="237"/>
      <point x="477" y="237" type="curve" smooth="yes"/>
      <point x="92" y="237" type="line" smooth="yes"/>
      <point x="77" y="237"/>
      <point x="65" y="225"/>
      <point x="65" y="210" type="curve" smooth="yes"/>
      <point x="65" y="144" type="line" smooth="yes"/>
      <point x="65" y="129"/>
      <point x="77" y="117"/>
      <point x="92" y="117" type="curve" smooth="yes"/>
    </contour>
  </outline>
</glyph>
<glyph name="greater" format="1">
  <advance width="500"/>
  <unicode hex="003E"/>
  <outline>
    <contour>
      <point x="317" y="350" type="line" name="hr00"/>
      <point x="91" y="198" type="line" smooth="yes"/>
      <point x="78" y="189"/>
      <point x="59" y="174"/>
      <point x="59" y="154" type="curve" smooth="yes"/>
      <point x="59" y="69" type="line" smooth="yes"/>
      <point x="59" y="57"/>
      <point x="68" y="48"/>
      <point x="80" y="48" type="curve" smooth="yes"/>
      <point x="82" y="48"/>
      <point x="86" y="48"/>
      <point x="91" y="51" type="curve" smooth="yes"/>
      <point x="441" y="287" type="line" smooth="yes"/>
      <point x="459" y="299"/>
      <point x="470" y="308"/>
      <point x="470" y="329" type="curve" smooth="yes"/>
      <point x="470" y="371" type="line" smooth="yes"/>
      <point x="470" y="392"/>
      <point x="459" y="401"/>
      <point x="441" y="413" type="curve" smooth="yes"/>
      <point x="91" y="649" type="line" smooth="yes"/>
      <point x="86" y="652"/>
      <point x="82" y="652"/>
      <point x="80" y="652" type="curve" smooth="yes"/>
      <point x="68" y="652"/>
      <point x="59" y="643"/>
      <point x="59" y="631" type="curve" smooth="yes"/>
      <point x="59" y="546" type="line" smooth="yes"/>
      <point x="59" y="526"/>
      <point x="78" y="511"/>
      <point x="91" y="502" type="curve" smooth="yes"/>
    </contour>
  </outline>
</glyph>
<glyph name="question" format="1">
  <advance width="565"/>
  <unicode hex="003F"/>
  <outline>
    <contour>
      <point x="239" y="142" type="line" smooth="yes"/>
      <point x="224" y="142"/>
      <point x="212" y="130"/>
      <point x="212" y="115" type="curve" smooth="yes"/>
      <point x="212" y="27" type="line" smooth="yes"/>
      <point x="212" y="12"/>
      <point x="224" y="0"/>
      <point x="239" y="0" type="curve" smooth="yes"/>
      <point x="325" y="0" type="line" smooth="yes"/>
      <point x="340" y="0"/>
      <point x="352" y="12"/>
      <point x="352" y="27" type="curve" smooth="yes"/>
      <point x="352" y="115" type="line" smooth="yes"/>
      <point x="352" y="130"/>
      <point x="340" y="142"/>
      <point x="325" y="142" type="curve" smooth="yes"/>
    </contour>
    <contour>
      <point x="285" y="710" type="curve" smooth="yes"/>
      <point x="144" y="710"/>
      <point x="31" y="598"/>
      <point x="28" y="505" type="curve" smooth="yes"/>
      <point x="28" y="492"/>
      <point x="38" y="483"/>
      <point x="50" y="483" type="curve" smooth="yes"/>
      <point x="131" y="483" type="line" smooth="yes"/>
      <point x="148" y="483"/>
      <point x="153" y="491"/>
      <point x="160" y="505" type="curve" smooth="yes"/>
      <point x="186" y="560"/>
      <point x="230" y="590"/>
      <point x="285" y="590" type="curve" name="hr01" smooth="yes"/>
      <point x="355" y="590"/>
      <point x="402" y="553"/>
      <point x="402" y="503" type="curve" smooth="yes"/>
      <point x="402" y="420"/>
      <point x="224" y="385"/>
      <point x="217" y="229" type="curve" smooth="yes"/>
      <point x="216" y="214"/>
      <point x="229" y="202"/>
      <point x="244" y="202" type="curve" smooth="yes"/>
      <point x="320" y="202" type="line" smooth="yes"/>
      <point x="335" y="202"/>
      <point x="345" y="214"/>
      <point x="347" y="229" type="curve" smooth="yes"/>
      <point x="361" y="319"/>
      <point x="532" y="351"/>
      <point x="532" y="509" type="curve" smooth="yes"/>
      <point x="532" y="639"/>
      <point x="410" y="710"/>
    </contour>
  </outline>
</glyph>
<glyph name="at" format="1">
  <advance width="863"/>
  <unicode hex="0040"/>
  <outline>
    <contour>
      <point x="807" y="234" type="curve" smooth="yes"/>
      <point x="809" y="270"/>
      <point x="810" y="322"/>
      <point x="807" y="356" type="curve" smooth="yes"/>
      <point x="792" y="532"/>
      <point x="694" y="674"/>
      <point x="421" y="674" type="curve" smooth="yes"/>
      <point x="189" y="674"/>
      <point x="66" y="522"/>
      <point x="53" y="356" type="curve" smooth="yes"/>
      <point x="50" y="322"/>
      <point x="50" y="222"/>
      <point x="53" y="185" type="curve" smooth="yes"/>
      <point x="69" y="16"/>
      <point x="190" y="-131"/>
      <point x="421" y="-131" type="curve" smooth="yes"/>
      <point x="608" y="-131"/>
      <point x="685" y="-67"/>
      <point x="741" y="-10" type="curve" smooth="yes"/>
      <point x="745" y="-6"/>
      <point x="748" y="-1"/>
      <point x="748" y="5" type="curve" smooth="yes"/>
      <point x="749" y="22"/>
      <point x="736" y="33"/>
      <point x="721" y="33" type="curve" smooth="yes"/>
      <point x="647" y="33" type="line" smooth="yes"/>
      <point x="633" y="33"/>
      <point x="626" y="28"/>
      <point x="612" y="18" type="curve" smooth="yes"/>
      <point x="578" y="-6"/>
      <point x="530" y="-30"/>
      <point x="421" y="-30" type="curve" name="hr01" smooth="yes"/>
      <point x="267" y="-30"/>
      <point x="174" y="63"/>
      <point x="159" y="190" type="curve" smooth="yes"/>
      <point x="155" y="227"/>
      <point x="155" y="317"/>
      <point x="159" y="351" type="curve" smooth="yes"/>
      <point x="174" y="480"/>
      <point x="267" y="573"/>
      <point x="421" y="573" type="curve" smooth="yes"/>
      <point x="606" y="573"/>
      <point x="685" y="499"/>
      <point x="702" y="351" type="curve" smooth="yes"/>
      <point x="706" y="317"/>
      <point x="705" y="275"/>
      <point x="703" y="239" type="curve" smooth="yes"/>
      <point x="701" y="197"/>
      <point x="679" y="180"/>
      <point x="652" y="180" type="curve" smooth="yes"/>
      <point x="626" y="180"/>
      <point x="601" y="198"/>
      <point x="601" y="230" type="curve" smooth="yes"/>
      <point x="601" y="443" type="line" smooth="yes"/>
      <point x="601" y="458"/>
      <point x="589" y="470"/>
      <point x="574" y="470" type="curve" smooth="yes"/>
      <point x="522" y="470" type="line" smooth="yes"/>
      <point x="507" y="470"/>
      <point x="495" y="458"/>
      <point x="495" y="443" type="curve" smooth="yes"/>
      <point x="495" y="434" type="line"/>
      <point x="478" y="459"/>
      <point x="456" y="478"/>
      <point x="401" y="478" type="curve" smooth="yes"/>
      <point x="302" y="478"/>
      <point x="243" y="395"/>
      <point x="243" y="273" type="curve" smooth="yes"/>
      <point x="243" y="151"/>
      <point x="307" y="69"/>
      <point x="406" y="69" type="curve" smooth="yes"/>
      <point x="490" y="69"/>
      <point x="512" y="98"/>
      <point x="533" y="125" type="curve"/>
      <point x="552" y="103"/>
      <point x="585" y="79"/>
      <point x="652" y="79" type="curve" smooth="yes"/>
      <point x="728" y="79"/>
      <point x="801" y="133"/>
    </contour>
    <contour>
      <point x="348" y="273" type="curve" smooth="yes"/>
      <point x="348" y="338"/>
      <point x="375" y="377"/>
      <point x="421" y="377" type="curve" smooth="yes"/>
      <point x="470" y="377"/>
      <point x="495" y="338"/>
      <point x="495" y="273" type="curve" smooth="yes"/>
      <point x="495" y="207"/>
      <point x="470" y="170"/>
      <point x="421" y="170" type="curve" smooth="yes"/>
      <point x="375" y="170"/>
      <point x="348" y="208"/>
    </contour>
  </outline>
</glyph>
<glyph name="A" format="1">
  <advance width="704"/>
  <unicode hex="0041"/>
  <outline>
    <contour>
      <point x="297" y="700" type="line" name="hr00"/>
      <point x="276" y="700"/>
      <point x="267" y="688"/>
      <point x="259" y="666" type="curve"/>
      <point x="14" y="34" type="line"/>
      <point x="13" y="31"/>
      <point x="13" y="29"/>
      <point x="13" y="27" type="curve" smooth="yes"/>
      <point x="13" y="12"/>
      <point x="25" y="0"/>
      <point x="40" y="0" type="curve"/>
      <point x="112" y="0" type="line"/>
      <point x="138" y="0"/>
      <point x="147" y="14"/>
      <point x="151" y="25" type="curve"/>
      <point x="194" y="136" type="line"/>
      <point x="510" y="136" type="line"/>
      <point x="553" y="25" type="line"/>
      <point x="557" y="14"/>
      <point x="566" y="0"/>
      <point x="592" y="0" type="curve"/>
      <point x="664" y="0" type="line"/>
      <point x="679" y="0"/>
      <point x="691" y="12"/>
      <point x="691" y="27" type="curve" smooth="yes"/>
      <point x="691" y="29"/>
      <point x="691" y="31"/>
      <point x="690" y="34" type="curve"/>
      <point x="445" y="666" type="line"/>
      <point x="437" y="688"/>
      <point x="428" y="700"/>
      <point x="407" y="700" type="curve"/>
    </contour>
    <contour>
      <point x="242" y="261" type="line"/>
      <point x="352" y="546" type="line"/>
      <point x="462" y="261" type="line"/>
    </contour>
  </outline>
</glyph>
<glyph name="B" format="1">
  <advance width="686"/>
  <unicode hex="0042"/>
  <outline>
    <contour>
      <point x="423" y="0" type="line" smooth="yes"/>
      <point x="564" y="0"/>
      <point x="639" y="110"/>
      <point x="639" y="210" type="curve" smooth="yes"/>
      <point x="639" y="289"/>
      <point x="597" y="339"/>
      <point x="556" y="367" type="curve"/>
      <point x="575" y="379"/>
      <point x="625" y="423"/>
      <point x="625" y="503" type="curve" name="hr01" smooth="yes"/>
      <point x="625" y="583"/>
      <point x="570" y="700"/>
      <point x="400" y="700" type="curve" smooth="yes"/>
      <point x="105" y="700" type="line" smooth="yes"/>
      <point x="90" y="700"/>
      <point x="78" y="688"/>
      <point x="78" y="673" type="curve" smooth="yes"/>
      <point x="78" y="27" type="line" smooth="yes"/>
      <point x="78" y="12"/>
      <point x="90" y="0"/>
      <point x="105" y="0" type="curve" smooth="yes"/>
    </contour>
    <contour>
      <point x="490" y="498" type="curve" smooth="yes"/>
      <point x="490" y="447"/>
      <point x="459" y="421"/>
      <point x="390" y="421" type="curve" smooth="yes"/>
      <point x="213" y="421" type="line"/>
      <point x="213" y="575" type="line"/>
      <point x="390" y="575" type="line" smooth="yes"/>
      <point x="459" y="575"/>
      <point x="490" y="549"/>
    </contour>
    <contour>
      <point x="213" y="296" type="line"/>
      <point x="398" y="296" type="line" smooth="yes"/>
      <point x="468" y="296"/>
      <point x="504" y="260"/>
      <point x="504" y="210" type="curve" name="hr02" smooth="yes"/>
      <point x="504" y="160"/>
      <point x="471" y="125"/>
      <point x="398" y="125" type="curve" smooth="yes"/>
      <point x="213" y="125" type="line"/>
    </contour>
  </outline>
</glyph>
<glyph name="C" format="1">
  <advance width="684"/>
  <unicode hex="0043"/>
  <outline>
    <contour>
      <point x="508" y="222" type="curve" name="hr00" smooth="yes"/>
      <point x="499" y="169"/>
      <point x="452" y="115"/>
      <point x="347" y="115" type="curve" smooth="yes"/>
      <point x="243" y="115"/>
      <point x="193" y="182"/>
      <point x="188" y="266" type="curve" smooth="yes"/>
      <point x="185" y="316"/>
      <point x="185" y="384"/>
      <point x="188" y="434" type="curve" smooth="yes"/>
      <point x="193" y="518"/>
      <point x="243" y="585"/>
      <point x="347" y="585" type="curve" smooth="yes"/>
      <point x="452" y="585"/>
      <point x="498" y="531"/>
      <point x="507" y="478" type="curve" smooth="yes"/>
      <point x="510" y="461"/>
      <point x="524" y="452"/>
      <point x="537" y="452" type="curve" smooth="yes"/>
      <point x="618" y="452" type="line" smooth="yes"/>
      <point x="633" y="452"/>
      <point x="646" y="463"/>
      <point x="645" y="479" type="curve" smooth="yes"/>
      <point x="638" y="587"/>
      <point x="554" y="710"/>
      <point x="347" y="710" type="curve" smooth="yes"/>
      <point x="163" y="710"/>
      <point x="63" y="595"/>
      <point x="53" y="434" type="curve" smooth="yes"/>
      <point x="50" y="384"/>
      <point x="50" y="316"/>
      <point x="53" y="266" type="curve" smooth="yes"/>
      <point x="63" y="105"/>
      <point x="163" y="-10"/>
      <point x="347" y="-10" type="curve" smooth="yes"/>
      <point x="554" y="-10"/>
      <point x="638" y="113"/>
      <point x="645" y="221" type="curve" smooth="yes"/>
      <point x="646" y="237"/>
      <point x="633" y="248"/>
      <point x="618" y="248" type="curve" smooth="yes"/>
      <point x="537" y="248" type="line" smooth="yes"/>
      <point x="524" y="248"/>
      <point x="511" y="239"/>
    </contour>
  </outline>
</glyph>
<glyph name="D" format="1">
  <advance width="704"/>
  <unicode hex="0044"/>
  <outline>
    <contour>
      <point x="352" y="700" type="curve" name="hr00"/>
      <point x="105" y="700" type="line" smooth="yes"/>
      <point x="90" y="700"/>
      <point x="78" y="688"/>
      <point x="78" y="673" type="curve" smooth="yes"/>
      <point x="78" y="27" type="line" smooth="yes"/>
      <point x="78" y="12"/>
      <point x="90" y="0"/>
      <point x="105" y="0" type="curve" smooth="yes"/>
      <point x="357" y="0" type="line" smooth="yes"/>
      <point x="549" y="0"/>
      <point x="641" y="107"/>
      <point x="651" y="276" type="curve" smooth="yes"/>
      <point x="654" y="326"/>
      <point x="654" y="374"/>
      <point x="651" y="424" type="curve" smooth="yes"/>
      <point x="641" y="593"/>
      <point x="549" y="700"/>
    </contour>
    <contour>
      <point x="516" y="424" type="curve" smooth="yes"/>
      <point x="519" y="374"/>
      <point x="519" y="326"/>
      <point x="516" y="276" type="curve" smooth="yes"/>
      <point x="511" y="190"/>
      <point x="462" y="125"/>
      <point x="352" y="125" type="curve" smooth="yes"/>
      <point x="213" y="125" type="line"/>
      <point x="213" y="575" type="line"/>
      <point x="347" y="575" type="line" smooth="yes"/>
      <point x="462" y="575"/>
      <point x="511" y="510"/>
    </contour>
  </outline>
</glyph>
<glyph name="E" format="1">
  <advance width="617"/>
  <unicode hex="0045"/>
  <outline>
    <contour>
      <point x="544" y="125" type="line" name="hr00" smooth="yes"/>
      <point x="559" y="125"/>
      <point x="571" y="113"/>
      <point x="571" y="98" type="curve" smooth="yes"/>
      <point x="571" y="27" type="line" smooth="yes"/>
      <point x="571" y="12"/>
      <point x="559" y="0"/>
      <point x="544" y="0" type="curve" smooth="yes"/>
      <point x="105" y="0" type="line" smooth="yes"/>
      <point x="90" y="0"/>
      <point x="78" y="12"/>
      <point x="78" y="27" type="curve" smooth="yes"/>
      <point x="78" y="673" type="line" smooth="yes"/>
      <point x="78" y="688"/>
      <point x="90" y="700"/>
      <point x="105" y="700" type="curve" smooth="yes"/>
      <point x="536" y="700" type="line" smooth="yes"/>
      <point x="551" y="700"/>
      <point x="563" y="688"/>
      <point x="563" y="673" type="curve" smooth="yes"/>
      <point x="563" y="602" type="line" smooth="yes"/>
      <point x="563" y="587"/>
      <point x="551" y="575"/>
      <point x="536" y="575" type="curve" smooth="yes"/>
      <point x="213" y="575" type="line"/>
      <point x="213" y="416" type="line"/>
      <point x="514" y="416" type="line" smooth="yes"/>
      <point x="529" y="416"/>
      <point x="541" y="404"/>
      <point x="541" y="389" type="curve" smooth="yes"/>
      <point x="541" y="318" type="line" smooth="yes"/>
      <point x="541" y="303"/>
      <point x="529" y="291"/>
      <point x="514" y="291" type="curve" smooth="yes"/>
      <point x="213" y="291" type="line"/>
      <point x="213" y="125" type="line"/>
    </contour>
  </outline>
</glyph>
<glyph name="F" format="1">
  <advance width="597"/>
  <unicode hex="0046"/>
  <outline>
    <contour>
      <point x="105" y="700" type="line" name="hr00" smooth="yes"/>
      <point x="90" y="700"/>
      <point x="78" y="688"/>
      <point x="78" y="673" type="curve" smooth="yes"/>
      <point x="78" y="27" type="line" smooth="yes"/>
      <point x="78" y="12"/>
      <point x="90" y="0"/>
      <point x="105" y="0" type="curve" smooth="yes"/>
      <point x="186" y="0" type="line" smooth="yes"/>
      <point x="201" y="0"/>
      <point x="213" y="12"/>
      <point x="213" y="27" type="curve" smooth="yes"/>
      <point x="213" y="256" type="line"/>
      <point x="512" y="256" type="line" smooth="yes"/>
      <point x="527" y="256"/>
      <point x="539" y="268"/>
      <point x="539" y="283" type="curve" smooth="yes"/>
      <point x="539" y="354" type="line" smooth="yes"/>
      <point x="539" y="369"/>
      <point x="527" y="381"/>
      <point x="512" y="381" type="curve" smooth="yes"/>
      <point x="213" y="381" type="line"/>
      <point x="213" y="575" type="line"/>
      <point x="532" y="575" type="line" smooth="yes"/>
      <point x="547" y="575"/>
      <point x="559" y="587"/>
      <point x="559" y="602" type="curve" smooth="yes"/>
      <point x="559" y="673" type="line" smooth="yes"/>
      <point x="559" y="688"/>
      <point x="547" y="700"/>
      <point x="532" y="700" type="curve" smooth="yes"/>
    </contour>
  </outline>
</glyph>
<glyph name="G" format="1">
  <advance width="708"/>
  <unicode hex="0047"/>
  <outline>
    <contour>
      <point x="53" y="441" type="curve" smooth="yes"/>
      <point x="51" y="391"/>
      <point x="51" y="313"/>
      <point x="53" y="263" type="curve" smooth="yes"/>
      <point x="59" y="102"/>
      <point x="154" y="-10"/>
      <point x="356" y="-10" type="curve" smooth="yes"/>
      <point x="558" y="-10"/>
      <point x="660" y="105"/>
      <point x="660" y="265" type="curve" smooth="yes"/>
      <point x="660" y="375" type="line" smooth="yes"/>
      <point x="660" y="390"/>
      <point x="648" y="402"/>
      <point x="633" y="402" type="curve" smooth="yes"/>
      <point x="403" y="402" type="line" smooth="yes"/>
      <point x="388" y="402"/>
      <point x="376" y="390"/>
      <point x="376" y="375" type="curve" smooth="yes"/>
      <point x="376" y="304" type="line" smooth="yes"/>
      <point x="376" y="289"/>
      <point x="388" y="277"/>
      <point x="403" y="277" type="curve" smooth="yes"/>
      <point x="525" y="277" type="line"/>
      <point x="525" y="269" type="line" smooth="yes"/>
      <point x="525" y="154"/>
      <point x="454" y="115"/>
      <point x="356" y="115" type="curve" smooth="yes"/>
      <point x="257" y="115"/>
      <point x="192" y="163"/>
      <point x="188" y="273" type="curve" smooth="yes"/>
      <point x="186" y="323"/>
      <point x="186" y="386"/>
      <point x="188" y="436" type="curve" smooth="yes"/>
      <point x="192" y="526"/>
      <point x="257" y="585"/>
      <point x="356" y="585" type="curve" smooth="yes"/>
      <point x="477" y="585"/>
      <point x="511" y="513"/>
      <point x="517" y="502" type="curve" smooth="yes"/>
      <point x="521" y="494"/>
      <point x="530" y="485"/>
      <point x="544" y="485" type="curve" name="hr01" smooth="yes"/>
      <point x="625" y="485" type="line" smooth="yes"/>
      <point x="640" y="485"/>
      <point x="653" y="496"/>
      <point x="652" y="512" type="curve" smooth="yes"/>
      <point x="648" y="573"/>
      <point x="587" y="710"/>
      <point x="356" y="710" type="curve" smooth="yes"/>
      <point x="159" y="710"/>
      <point x="59" y="600"/>
    </contour>
  </outline>
</glyph>
<glyph name="H" format="1">
  <advance width="728"/>
  <unicode hex="0048"/>
  <outline>
    <contour>
      <point x="542" y="700" type="line" name="hr00" smooth="yes"/>
      <point x="527" y="700"/>
      <point x="515" y="688"/>
      <point x="515" y="673" type="curve" smooth="yes"/>
      <point x="515" y="416" type="line"/>
      <point x="213" y="416" type="line"/>
      <point x="213" y="673" type="line" smooth="yes"/>
      <point x="213" y="688"/>
      <point x="201" y="700"/>
      <point x="186" y="700" type="curve" smooth="yes"/>
      <point x="105" y="700" type="line" smooth="yes"/>
      <point x="90" y="700"/>
      <point x="78" y="688"/>
      <point x="78" y="673" type="curve" smooth="yes"/>
      <point x="78" y="27" type="line" smooth="yes"/>
      <point x="78" y="11"/>
      <point x="90" y="0"/>
      <point x="105" y="0" type="curve" smooth="yes"/>
      <point x="186" y="0" type="line" smooth="yes"/>
      <point x="201" y="0"/>
      <point x="213" y="12"/>
      <point x="213" y="27" type="curve" smooth="yes"/>
      <point x="213" y="291" type="line"/>
      <point x="515" y="291" type="line"/>
      <point x="515" y="27" type="line" smooth="yes"/>
      <point x="515" y="12"/>
      <point x="527" y="0"/>
      <point x="542" y="0" type="curve" smooth="yes"/>
      <point x="623" y="0" type="line" smooth="yes"/>
      <point x="638" y="0"/>
      <point x="650" y="12"/>
      <point x="650" y="27" type="curve" smooth="yes"/>
      <point x="650" y="673" type="line" smooth="yes"/>
      <point x="650" y="688"/>
      <point x="638" y="700"/>
      <point x="623" y="700" type="curve" smooth="yes"/>
    </contour>
  </outline>
</glyph>
<glyph name="I" format="1">
  <advance width="291"/>
  <unicode hex="0049"/>
  <outline>
    <contour>
      <point x="186" y="0" type="line" name="hr00" smooth="yes"/>
      <point x="201" y="0"/>
      <point x="213" y="12"/>
      <point x="213" y="27" type="curve" smooth="yes"/>
      <point x="213" y="673" type="line" smooth="yes"/>
      <point x="213" y="688"/>
      <point x="201" y="700"/>
      <point x="186" y="700" type="curve" smooth="yes"/>
      <point x="105" y="700" type="line" smooth="yes"/>
      <point x="90" y="700"/>
      <point x="78" y="688"/>
      <point x="78" y="673" type="curve" smooth="yes"/>
      <point x="78" y="27" type="line" smooth="yes"/>
      <point x="78" y="12"/>
      <point x="90" y="0"/>
      <point x="105" y="0" type="curve" smooth="yes"/>
    </contour>
  </outline>
</glyph>
<glyph name="J" format="1">
  <advance width="655"/>
  <unicode hex="004A"/>
  <outline>
    <contour>
      <point x="447" y="256" type="line" smooth="yes"/>
      <point x="447" y="165"/>
      <point x="396" y="115"/>
      <point x="304" y="115" type="curve" smooth="yes"/>
      <point x="212" y="115"/>
      <point x="172" y="165"/>
      <point x="161" y="219" type="curve" smooth="yes"/>
      <point x="159" y="231"/>
      <point x="145" y="238"/>
      <point x="134" y="238" type="curve" name="hr01" smooth="yes"/>
      <point x="53" y="238" type="line" smooth="yes"/>
      <point x="38" y="238"/>
      <point x="25" y="227"/>
      <point x="26" y="211" type="curve" smooth="yes"/>
      <point x="34" y="89"/>
      <point x="114" y="-10"/>
      <point x="304" y="-10" type="curve" smooth="yes"/>
      <point x="481" y="-10"/>
      <point x="582" y="79"/>
      <point x="582" y="250" type="curve" smooth="yes"/>
      <point x="582" y="673" type="line" smooth="yes"/>
      <point x="582" y="688"/>
      <point x="570" y="700"/>
      <point x="555" y="700" type="curve" smooth="yes"/>
      <point x="119" y="700" type="line" smooth="yes"/>
      <point x="104" y="700"/>
      <point x="92" y="688"/>
      <point x="92" y="673" type="curve" smooth="yes"/>
      <point x="92" y="602" type="line" smooth="yes"/>
      <point x="92" y="587"/>
      <point x="104" y="575"/>
      <point x="119" y="575" type="curve" smooth="yes"/>
      <point x="447" y="575" type="line"/>
    </contour>
  </outline>
</glyph>
<glyph name="K" format="1">
  <advance width="628"/>
  <unicode hex="004B"/>
  <outline>
    <contour>
      <point x="320" y="365" type="line" name="hr00"/>
      <point x="589" y="658" type="line" smooth="yes"/>
      <point x="593" y="663"/>
      <point x="595" y="669"/>
      <point x="595" y="673" type="curve" smooth="yes"/>
      <point x="595" y="688"/>
      <point x="582" y="700"/>
      <point x="568" y="700" type="curve" smooth="yes"/>
      <point x="476" y="700" type="line" smooth="yes"/>
      <point x="455" y="700"/>
      <point x="443" y="691"/>
      <point x="431" y="678" type="curve" smooth="yes"/>
      <point x="213" y="438" type="line"/>
      <point x="213" y="673" type="line" smooth="yes"/>
      <point x="213" y="688"/>
      <point x="201" y="700"/>
      <point x="186" y="700" type="curve" smooth="yes"/>
      <point x="105" y="700" type="line" smooth="yes"/>
      <point x="90" y="700"/>
      <point x="78" y="688"/>
      <point x="78" y="673" type="curve" smooth="yes"/>
      <point x="78" y="27" type="line" smooth="yes"/>
      <point x="78" y="12"/>
      <point x="90" y="0"/>
      <point x="105" y="0" type="curve" smooth="yes"/>
      <point x="186" y="0" type="line" smooth="yes"/>
      <point x="201" y="0"/>
      <point x="213" y="12"/>
      <point x="213" y="27" type="curve" smooth="yes"/>
      <point x="213" y="288" type="line"/>
      <point x="448" y="23" type="line" smooth="yes"/>
      <point x="451" y="20"/>
      <point x="467" y="0"/>
      <point x="494" y="0" type="curve" smooth="yes"/>
      <point x="589" y="0" type="line" smooth="yes"/>
      <point x="604" y="0"/>
      <point x="616" y="12"/>
      <point x="616" y="27" type="curve" smooth="yes"/>
      <point x="616" y="30"/>
      <point x="615" y="35"/>
      <point x="609" y="42" type="curve" smooth="yes"/>
    </contour>
  </outline>
</glyph>
<glyph name="L" format="1">
  <advance width="588"/>
  <unicode hex="004C"/>
  <outline>
    <contour>
      <point x="213" y="125" type="line" name="hr00"/>
      <point x="213" y="673" type="line" smooth="yes"/>
      <point x="213" y="688"/>
      <point x="201" y="700"/>
      <point x="186" y="700" type="curve" smooth="yes"/>
      <point x="105" y="700" type="line" smooth="yes"/>
      <point x="90" y="700"/>
      <point x="78" y="688"/>
      <point x="78" y="673" type="curve" smooth="yes"/>
      <point x="78" y="27" type="line" smooth="yes"/>
      <point x="78" y="12"/>
      <point x="90" y="0"/>
      <point x="105" y="0" type="curve" smooth="yes"/>
      <point x="543" y="0" type="line" smooth="yes"/>
      <point x="558" y="0"/>
      <point x="570" y="12"/>
      <point x="570" y="27" type="curve" smooth="yes"/>
      <point x="570" y="98" type="line" smooth="yes"/>
      <point x="570" y="113"/>
      <point x="558" y="125"/>
      <point x="543" y="125" type="curve" smooth="yes"/>
    </contour>
  </outline>
</glyph>
<glyph name="M" format="1">
  <advance width="812"/>
  <unicode hex="004D"/>
  <outline>
    <contour>
      <point x="216" y="673" type="line" name="hr00"/>
      <point x="211" y="680"/>
      <point x="200" y="700"/>
      <point x="173" y="700" type="curve" smooth="yes"/>
      <point x="105" y="700" type="line" smooth="yes"/>
      <point x="90" y="700"/>
      <point x="78" y="688"/>
      <point x="78" y="673" type="curve" smooth="yes"/>
      <point x="78" y="27" type="line" smooth="yes"/>
      <point x="78" y="12"/>
      <point x="90" y="0"/>
      <point x="105" y="0" type="curve" smooth="yes"/>
      <point x="186" y="0" type="line" smooth="yes"/>
      <point x="201" y="0"/>
      <point x="213" y="12"/>
      <point x="213" y="27" type="curve" smooth="yes"/>
      <point x="213" y="418" type="line"/>
      <point x="343" y="193" type="line" smooth="yes"/>
      <point x="350" y="182"/>
      <point x="361" y="168"/>
      <point x="380" y="168" type="curve" smooth="yes"/>
      <point x="432" y="168" type="line" smooth="yes"/>
      <point x="451" y="168"/>
      <point x="462" y="182"/>
      <point x="469" y="193" type="curve" smooth="yes"/>
      <point x="599" y="418" type="line"/>
      <point x="599" y="27" type="line" smooth="yes"/>
      <point x="599" y="12"/>
      <point x="611" y="0"/>
      <point x="626" y="0" type="curve" smooth="yes"/>
      <point x="707" y="0" type="line" smooth="yes"/>
      <point x="722" y="0"/>
      <point x="734" y="12"/>
      <point x="734" y="27" type="curve" smooth="yes"/>
      <point x="734" y="673" type="line" smooth="yes"/>
      <point x="734" y="688"/>
      <point x="722" y="700"/>
      <point x="707" y="700" type="curve" smooth="yes"/>
      <point x="639" y="700" type="line" smooth="yes"/>
      <point x="612" y="700"/>
      <point x="601" y="680"/>
      <point x="596" y="673" type="curve"/>
      <point x="406" y="343" type="line"/>
    </contour>
  </outline>
</glyph>
<glyph name="N" format="1">
  <advance width="707"/>
  <unicode hex="004E"/>
  <outline>
    <contour>
      <point x="602" y="0" type="line" name="hr00" smooth="yes"/>
      <point x="617" y="0"/>
      <point x="629" y="12"/>
      <point x="629" y="27" type="curve" smooth="yes"/>
      <point x="629" y="673" type="line" smooth="yes"/>
      <point x="629" y="688"/>
      <point x="617" y="700"/>
      <point x="602" y="700" type="curve" smooth="yes"/>
      <point x="521" y="700" type="line" smooth="yes"/>
      <point x="506" y="700"/>
      <point x="494" y="688"/>
      <point x="494" y="673" type="curve" smooth="yes"/>
      <point x="494" y="261" type="line"/>
      <point x="214" y="677" type="line" smooth="yes"/>
      <point x="209" y="684"/>
      <point x="197" y="700"/>
      <point x="175" y="700" type="curve" smooth="yes"/>
      <point x="105" y="700" type="line" smooth="yes"/>
      <point x="90" y="700"/>
      <point x="78" y="688"/>
      <point x="78" y="673" type="curve" smooth="yes"/>
      <point x="78" y="27" type="line" smooth="yes"/>
      <point x="78" y="12"/>
      <point x="90" y="0"/>
      <point x="105" y="0" type="curve" smooth="yes"/>
      <point x="186" y="0" type="line" smooth="yes"/>
      <point x="201" y="0"/>
      <point x="213" y="12"/>
      <point x="213" y="27" type="curve" smooth="yes"/>
      <point x="213" y="439" type="line"/>
      <point x="493" y="23" type="line" smooth="yes"/>
      <point x="498" y="16"/>
      <point x="510" y="0"/>
      <point x="532" y="0" type="curve" smooth="yes"/>
    </contour>
  </outline>
</glyph>
<glyph name="O" format="1">
  <advance width="696"/>
  <unicode hex="004F"/>
  <outline>
    <contour>
      <point x="54" y="439" type="curve" name="hr00" smooth="yes"/>
      <point x="51" y="389"/>
      <point x="52" y="310"/>
      <point x="54" y="260" type="curve" smooth="yes"/>
      <point x="61" y="110"/>
      <point x="152" y="-10"/>
      <point x="348" y="-10" type="curve" smooth="yes"/>
      <point x="544" y="-10"/>
      <point x="635" y="110"/>
      <point x="642" y="260" type="curve" smooth="yes"/>
      <point x="644" y="310"/>
      <point x="645" y="389"/>
      <point x="642" y="439" type="curve" smooth="yes"/>
      <point x="634" y="590"/>
      <point x="544" y="710"/>
      <point x="348" y="710" type="curve" smooth="yes"/>
      <point x="152" y="710"/>
      <point x="62" y="589"/>
    </contour>
    <contour>
      <point x="507" y="434" type="curve" smooth="yes"/>
      <point x="510" y="384"/>
      <point x="510" y="315"/>
      <point x="507" y="265" type="curve" smooth="yes"/>
      <point x="502" y="169"/>
      <point x="441" y="115"/>
      <point x="348" y="115" type="curve" smooth="yes"/>
      <point x="255" y="115"/>
      <point x="194" y="169"/>
      <point x="189" y="265" type="curve" smooth="yes"/>
      <point x="186" y="315"/>
      <point x="186" y="384"/>
      <point x="189" y="434" type="curve" smooth="yes"/>
      <point x="194" y="530"/>
      <point x="255" y="585"/>
      <point x="348" y="585" type="curve" smooth="yes"/>
      <point x="441" y="585"/>
      <point x="502" y="530"/>
    </contour>
  </outline>
</glyph>
<glyph name="Q" format="1">
  <advance width="696"/>
  <unicode hex="0051"/>
  <outline>
    <contour>
      <point x="53" y="439" type="curve" smooth="yes"/>
      <point x="50" y="389"/>
      <point x="51" y="310"/>
      <point x="53" y="260" type="curve" smooth="yes"/>
      <point x="60" y="110"/>
      <point x="151" y="-10"/>
      <point x="347" y="-10" type="curve" smooth="yes"/>
      <point x="389" y="-10"/>
      <point x="427" y="-4"/>
      <point x="460" y="6" type="curve"/>
      <point x="492" y="-40" type="line"/>
      <point x="498" y="-48"/>
      <point x="508" y="-64"/>
      <point x="532" y="-65" type="curve" name="hr01"/>
      <point x="627" y="-65" type="line"/>
      <point x="639" y="-65"/>
      <point x="649" y="-56"/>
      <point x="648" y="-43" type="curve" smooth="yes"/>
      <point x="648" y="-41"/>
      <point x="647" y="-37"/>
      <point x="645" y="-34" type="curve"/>
      <point x="570" y="74" type="line"/>
      <point x="615" y="122"/>
      <point x="637" y="188"/>
      <point x="641" y="260" type="curve" smooth="yes"/>
      <point x="643" y="310"/>
      <point x="644" y="389"/>
      <point x="641" y="439" type="curve" smooth="yes"/>
      <point x="633" y="590"/>
      <point x="543" y="710"/>
      <point x="347" y="710" type="curve" smooth="yes"/>
      <point x="151" y="710"/>
      <point x="61" y="589"/>
    </contour>
    <contour>
      <point x="506" y="434" type="curve" smooth="yes"/>
      <point x="509" y="384"/>
      <point x="509" y="315"/>
      <point x="506" y="265" type="curve" smooth="yes"/>
      <point x="501" y="169"/>
      <point x="440" y="115"/>
      <point x="347" y="115" type="curve" smooth="yes"/>
      <point x="254" y="115"/>
      <point x="193" y="169"/>
      <point x="188" y="265" type="curve" smooth="yes"/>
      <point x="185" y="315"/>
      <point x="185" y="384"/>
      <point x="188" y="434" type="curve" smooth="yes"/>
      <point x="193" y="530"/>
      <point x="254" y="585"/>
      <point x="347" y="585" type="curve" smooth="yes"/>
      <point x="440" y="585"/>
      <point x="501" y="530"/>
    </contour>
  </outline>
</glyph>
<glyph name="R" format="1">
  <advance width="670"/>
  <unicode hex="0052"/>
  <outline>
    <contour>
      <point x="105" y="700" type="line" name="hr00"/>
      <point x="90" y="700"/>
      <point x="78" y="688"/>
      <point x="78" y="673" type="curve"/>
      <point x="78" y="27" type="line"/>
      <point x="78" y="12"/>
      <point x="90" y="0"/>
      <point x="105" y="0" type="curve"/>
      <point x="186" y="0" type="line"/>
      <point x="201" y="0"/>
      <point x="213" y="12"/>
      <point x="213" y="27" type="curve"/>
      <point x="213" y="260" type="line"/>
      <point x="346" y="260" type="line"/>
      <point x="477" y="27" type="line"/>
      <point x="482" y="17"/>
      <point x="493" y="0"/>
      <point x="520" y="0" type="curve"/>
      <point x="605" y="0" type="line"/>
      <point x="617" y="0"/>
      <point x="627" y="10"/>
      <point x="627" y="22" type="curve" smooth="yes"/>
      <point x="627" y="27"/>
      <point x="626" y="29"/>
      <point x="624" y="33" type="curve"/>
      <point x="486" y="280" type="line"/>
      <point x="572" y="313"/>
      <point x="618" y="384"/>
      <point x="618" y="481" type="curve" smooth="yes"/>
      <point x="618" y="617"/>
      <point x="528" y="700"/>
      <point x="363" y="700" type="curve"/>
    </contour>
    <contour>
      <point x="213" y="575" type="line"/>
      <point x="358" y="575" type="line"/>
      <point x="434" y="575"/>
      <point x="483" y="556"/>
      <point x="483" y="481" type="curve" smooth="yes"/>
      <point x="483" y="406"/>
      <point x="434" y="385"/>
      <point x="358" y="385" type="curve"/>
      <point x="213" y="385" type="line"/>
    </contour>
  </outline>
</glyph>
<glyph name="S" format="1">
  <advance width="648"/>
  <unicode hex="0053"/>
  <outline>
    <contour>
      <point x="318" y="710" type="curve" smooth="yes"/>
      <point x="168" y="710"/>
      <point x="55" y="624"/>
      <point x="55" y="504" type="curve" smooth="yes"/>
      <point x="55" y="384"/>
      <point x="119" y="334"/>
      <point x="253" y="301" type="curve" smooth="yes"/>
      <point x="401" y="265"/>
      <point x="477" y="259"/>
      <point x="477" y="199" type="curve" smooth="yes"/>
      <point x="477" y="139"/>
      <point x="403" y="115"/>
      <point x="323" y="115" type="curve" smooth="yes"/>
      <point x="223" y="115"/>
      <point x="191" y="152"/>
      <point x="173" y="187" type="curve" smooth="yes"/>
      <point x="165" y="203"/>
      <point x="154" y="211"/>
      <point x="132" y="211" type="curve" name="hr01" smooth="yes"/>
      <point x="62" y="211" type="line" smooth="yes"/>
      <point x="47" y="211"/>
      <point x="34" y="200"/>
      <point x="35" y="184" type="curve" smooth="yes"/>
      <point x="42" y="66"/>
      <point x="173" y="-10"/>
      <point x="323" y="-10" type="curve" smooth="yes"/>
      <point x="503" y="-10"/>
      <point x="612" y="79"/>
      <point x="612" y="199" type="curve" smooth="yes"/>
      <point x="612" y="309"/>
      <point x="543" y="367"/>
      <point x="383" y="401" type="curve" smooth="yes"/>
      <point x="237" y="432"/>
      <point x="190" y="444"/>
      <point x="190" y="504" type="curve" smooth="yes"/>
      <point x="190" y="554"/>
      <point x="248" y="585"/>
      <point x="318" y="585" type="curve" smooth="yes"/>
      <point x="398" y="585"/>
      <point x="434" y="556"/>
      <point x="454" y="523" type="curve" smooth="yes"/>
      <point x="463" y="508"/>
      <point x="473" y="499"/>
      <point x="495" y="499" type="curve" name="hr02" smooth="yes"/>
      <point x="565" y="499" type="line" smooth="yes"/>
      <point x="580" y="499"/>
      <point x="593" y="510"/>
      <point x="592" y="526" type="curve" smooth="yes"/>
      <point x="587" y="603"/>
      <point x="498" y="710"/>
    </contour>
  </outline>
</glyph>
<glyph name="T" format="1">
  <advance width="593"/>
  <unicode hex="0054"/>
  <outline>
    <contour>
      <point x="49" y="700" type="line" name="hr00" smooth="yes"/>
      <point x="34" y="700"/>
      <point x="22" y="688"/>
      <point x="22" y="673" type="curve" smooth="yes"/>
      <point x="22" y="602" type="line" smooth="yes"/>
      <point x="22" y="587"/>
      <point x="34" y="575"/>
      <point x="49" y="575" type="curve" smooth="yes"/>
      <point x="229" y="575" type="line"/>
      <point x="229" y="27" type="line" smooth="yes"/>
      <point x="229" y="12"/>
      <point x="241" y="0"/>
      <point x="256" y="0" type="curve" smooth="yes"/>
      <point x="337" y="0" type="line" smooth="yes"/>
      <point x="352" y="0"/>
      <point x="364" y="12"/>
      <point x="364" y="27" type="curve" smooth="yes"/>
      <point x="364" y="575" type="line"/>
      <point x="544" y="575" type="line" smooth="yes"/>
      <point x="559" y="575"/>
      <point x="571" y="587"/>
      <point x="571" y="602" type="curve" smooth="yes"/>
      <point x="571" y="673" type="line" smooth="yes"/>
      <point x="571" y="688"/>
      <point x="559" y="700"/>
      <point x="544" y="700" type="curve" smooth="yes"/>
    </contour>
  </outline>
</glyph>
<glyph name="U" format="1">
  <advance width="719"/>
  <unicode hex="0055"/>
  <outline>
    <contour>
      <point x="539" y="700" type="line" name="hr00" smooth="yes"/>
      <point x="524" y="700"/>
      <point x="512" y="688"/>
      <point x="512" y="673" type="curve" smooth="yes"/>
      <point x="512" y="268" type="line" smooth="yes"/>
      <point x="512" y="158"/>
      <point x="448" y="115"/>
      <point x="359" y="115" type="curve" smooth="yes"/>
      <point x="270" y="115"/>
      <point x="208" y="158"/>
      <point x="208" y="268" type="curve" smooth="yes"/>
      <point x="208" y="673" type="line" smooth="yes"/>
      <point x="208" y="688"/>
      <point x="196" y="700"/>
      <point x="181" y="700" type="curve" smooth="yes"/>
      <point x="100" y="700" type="line" smooth="yes"/>
      <point x="85" y="700"/>
      <point x="73" y="688"/>
      <point x="73" y="673" type="curve" smooth="yes"/>
      <point x="73" y="263" type="line" smooth="yes"/>
      <point x="73" y="99"/>
      <point x="167" y="-10"/>
      <point x="359" y="-10" type="curve" smooth="yes"/>
      <point x="549" y="-10"/>
      <point x="646" y="99"/>
      <point x="646" y="263" type="curve" smooth="yes"/>
      <point x="646" y="673" type="line" smooth="yes"/>
      <point x="646" y="688"/>
      <point x="634" y="700"/>
      <point x="619" y="700" type="curve" smooth="yes"/>
    </contour>
  </outline>
</glyph>
<glyph name="X" format="1">
  <advance width="663"/>
  <unicode hex="0058"/>
  <outline>
    <contour>
      <point x="615" y="0" type="line" name="hr00"/>
      <point x="630" y="0"/>
      <point x="642" y="12"/>
      <point x="642" y="27" type="curve" smooth="yes"/>
      <point x="642" y="32"/>
      <point x="641" y="34"/>
      <point x="639" y="38" type="curve"/>
      <point x="412" y="353" type="line"/>
      <point x="633" y="662" type="line"/>
      <point x="635" y="666"/>
      <point x="636" y="668"/>
      <point x="636" y="673" type="curve" smooth="yes"/>
      <point x="636" y="688"/>
      <point x="624" y="700"/>
      <point x="609" y="700" type="curve"/>
      <point x="525" y="700" type="line"/>
      <point x="499" y="700"/>
      <point x="488" y="682"/>
      <point x="483" y="675" type="curve"/>
      <point x="333" y="464" type="line"/>
      <point x="182" y="675" type="line"/>
      <point x="177" y="682"/>
      <point x="166" y="700"/>
      <point x="140" y="700" type="curve"/>
      <point x="56" y="700" type="line"/>
      <point x="41" y="700"/>
      <point x="29" y="688"/>
      <point x="29" y="673" type="curve" smooth="yes"/>
      <point x="29" y="668"/>
      <point x="30" y="666"/>
      <point x="32" y="662" type="curve"/>
      <point x="251" y="357" type="line"/>
      <point x="22" y="38" type="line"/>
      <point x="20" y="34"/>
      <point x="19" y="32"/>
      <point x="19" y="27" type="curve" smooth="yes"/>
      <point x="19" y="12"/>
      <point x="31" y="0"/>
      <point x="46" y="0" type="curve"/>
      <point x="130" y="0" type="line"/>
      <point x="156" y="0"/>
      <point x="167" y="18"/>
      <point x="172" y="25" type="curve"/>
      <point x="330" y="246" type="line"/>
      <point x="489" y="25" type="line"/>
      <point x="494" y="18"/>
      <point x="505" y="0"/>
      <point x="531" y="0" type="curve"/>
    </contour>
  </outline>
</glyph>
<glyph name="Y" format="1">
  <advance width="662"/>
  <unicode hex="0059"/>
  <outline>
    <contour>
      <point x="535" y="700" type="line" name="hr00"/>
      <point x="508" y="700"/>
      <point x="496" y="681"/>
      <point x="493" y="675" type="curve"/>
      <point x="331" y="392" type="line"/>
      <point x="169" y="675" type="line"/>
      <point x="166" y="681"/>
      <point x="154" y="700"/>
      <point x="127" y="700" type="curve"/>
      <point x="52" y="700" type="line"/>
      <point x="37" y="700"/>
      <point x="25" y="688"/>
      <point x="25" y="673" type="curve" smooth="yes"/>
      <point x="25" y="670"/>
      <point x="26" y="666"/>
      <point x="27" y="664" type="curve"/>
      <point x="264" y="247" type="line"/>
      <point x="264" y="27" type="line"/>
      <point x="264" y="12"/>
      <point x="276" y="0"/>
      <point x="291" y="0" type="curve"/>
      <point x="371" y="0" type="line"/>
      <point x="386" y="0"/>
      <point x="398" y="12"/>
      <point x="398" y="27" type="curve"/>
      <point x="398" y="247" type="line"/>
      <point x="635" y="664" type="line"/>
      <point x="636" y="666"/>
      <point x="637" y="670"/>
      <point x="637" y="673" type="curve" smooth="yes"/>
      <point x="637" y="688"/>
      <point x="625" y="700"/>
      <point x="610" y="700" type="curve"/>
    </contour>
  </outline>
</glyph>
<glyph name="Z" format="1">
  <advance width="635"/>
  <unicode hex="005A"/>
  <outline>
    <contour>
      <point x="216" y="125" type="line" name="hr00"/>
      <point x="572" y="569" type="line"/>
      <point x="580" y="577"/>
      <point x="585" y="588"/>
      <point x="585" y="602" type="curve" smooth="yes"/>
      <point x="585" y="673" type="line" smooth="yes"/>
      <point x="585" y="688"/>
      <point x="573" y="700"/>
      <point x="558" y="700" type="curve" smooth="yes"/>
      <point x="77" y="700" type="line" smooth="yes"/>
      <point x="62" y="700"/>
      <point x="50" y="688"/>
      <point x="50" y="673" type="curve" smooth="yes"/>
      <point x="50" y="602" type="line" smooth="yes"/>
      <point x="50" y="587"/>
      <point x="62" y="575"/>
      <point x="77" y="575" type="curve" smooth="yes"/>
      <point x="410" y="575" type="line"/>
      <point x="55" y="133" type="line" smooth="yes"/>
      <point x="50" y="127"/>
      <point x="40" y="117"/>
      <point x="40" y="98" type="curve" smooth="yes"/>
      <point x="40" y="27" type="line" smooth="yes"/>
      <point x="40" y="12"/>
      <point x="52" y="0"/>
      <point x="67" y="0" type="curve" smooth="yes"/>
      <point x="568" y="0" type="line" smooth="yes"/>
      <point x="583" y="0"/>
      <point x="595" y="12"/>
      <point x="595" y="27" type="curve" smooth="yes"/>
      <point x="595" y="98" type="line" smooth="yes"/>
      <point x="595" y="113"/>
      <point x="583" y="125"/>
      <point x="568" y="125" type="curve" smooth="yes"/>
    </contour>
  </outline>
</glyph>
<glyph name="bracketleft" format="1">
  <advance width="354"/>
  <unicode hex="005B"/>
  <outline>
    <contour>
      <point x="298" y="-159" type="line" name="hr00" smooth="yes"/>
      <point x="313" y="-159"/>
      <point x="325" y="-147"/>
      <point x="325" y="-132" type="curve" smooth="yes"/>
      <point x="325" y="-66" type="line" smooth="yes"/>
      <point x="325" y="-51"/>
      <point x="313" y="-39"/>
      <point x="298" y="-39" type="curve" smooth="yes"/>
      <point x="197" y="-39" type="line"/>
      <point x="197" y="656" type="line"/>
      <point x="298" y="656" type="line" smooth="yes"/>
      <point x="313" y="656"/>
      <point x="325" y="668"/>
      <point x="325" y="683" type="curve" smooth="yes"/>
      <point x="325" y="749" type="line" smooth="yes"/>
      <point x="325" y="764"/>
      <point x="313" y="776"/>
      <point x="298" y="776" type="curve" smooth="yes"/>
      <point x="94" y="776" type="line" smooth="yes"/>
      <point x="79" y="776"/>
      <point x="67" y="764"/>
      <point x="67" y="749" type="curve" smooth="yes"/>
      <point x="67" y="-132" type="line" smooth="yes"/>
      <point x="67" y="-147"/>
      <point x="79" y="-159"/>
      <point x="94" y="-159" type="curve" smooth="yes"/>
    </contour>
  </outline>
</glyph>
<glyph name="backslash" format="1">
  <advance width="526"/>
  <unicode hex="005C"/>
  <outline>
    <contour>
      <point x="164" y="756" type="line" name="hr00"/>
      <point x="158" y="770"/>
      <point x="145" y="786"/>
      <point x="120" y="786" type="curve" smooth="yes"/>
      <point x="46" y="786" type="line" smooth="yes"/>
      <point x="34" y="786"/>
      <point x="24" y="776"/>
      <point x="24" y="764" type="curve" smooth="yes"/>
      <point x="24" y="762"/>
      <point x="24" y="760"/>
      <point x="26" y="755" type="curve" smooth="yes"/>
      <point x="364" y="-54" type="line" smooth="yes"/>
      <point x="369" y="-67"/>
      <point x="381" y="-84"/>
      <point x="408" y="-84" type="curve" smooth="yes"/>
      <point x="479" y="-84" type="line" smooth="yes"/>
      <point x="491" y="-84"/>
      <point x="501" y="-74"/>
      <point x="501" y="-62" type="curve" smooth="yes"/>
      <point x="501" y="-60"/>
      <point x="501" y="-58"/>
      <point x="499" y="-53" type="curve" smooth="yes"/>
    </contour>
  </outline>
</glyph>
<glyph name="bracketright" format="1">
  <advance width="354"/>
  <unicode hex="005D"/>
  <outline>
    <contour>
      <point x="260" y="-159" type="line" name="hr00" smooth="yes"/>
      <point x="275" y="-159"/>
      <point x="287" y="-147"/>
      <point x="287" y="-132" type="curve" smooth="yes"/>
      <point x="287" y="749" type="line" smooth="yes"/>
      <point x="287" y="764"/>
      <point x="275" y="776"/>
      <point x="260" y="776" type="curve" smooth="yes"/>
      <point x="56" y="776" type="line" smooth="yes"/>
      <point x="41" y="776"/>
      <point x="29" y="764"/>
      <point x="29" y="749" type="curve" smooth="yes"/>
      <point x="29" y="683" type="line" smooth="yes"/>
      <point x="29" y="668"/>
      <point x="41" y="656"/>
      <point x="56" y="656" type="curve" smooth="yes"/>
      <point x="157" y="656" type="line"/>
      <point x="157" y="-39" type="line"/>
      <point x="56" y="-39" type="line" smooth="yes"/>
      <point x="41" y="-39"/>
      <point x="29" y="-51"/>
      <point x="29" y="-66" type="curve" smooth="yes"/>
      <point x="29" y="-132" type="line" smooth="yes"/>
      <point x="29" y="-147"/>
      <point x="41" y="-159"/>
      <point x="56" y="-159" type="curve" smooth="yes"/>
    </contour>
  </outline>
</glyph>
<glyph name="grave" format="1">
  <advance width="361"/>
  <unicode hex="0060"/>
  <outline>
    <contour>
      <point x="211" y="726" type="line" name="hr00" smooth="yes"/>
      <point x="196" y="743"/>
      <point x="189" y="745"/>
      <point x="174" y="745" type="curve" smooth="yes"/>
      <point x="79" y="745" type="line" smooth="yes"/>
      <point x="67" y="745"/>
      <point x="60" y="737"/>
      <point x="60" y="725" type="curve" smooth="yes"/>
      <point x="60" y="720"/>
      <point x="62" y="716"/>
      <point x="65" y="713" type="curve" smooth="yes"/>
      <point x="188" y="612" type="line" smooth="yes"/>
      <point x="199" y="603"/>
      <point x="209" y="595"/>
      <point x="230" y="595" type="curve" smooth="yes"/>
      <point x="285" y="595" type="line" smooth="yes"/>
      <point x="295" y="595"/>
      <point x="301" y="601"/>
      <point x="301" y="611" type="curve" smooth="yes"/>
      <point x="301" y="616"/>
      <point x="299" y="620"/>
      <point x="296" y="624" type="curve" smooth="yes"/>
    </contour>
  </outline>
</glyph>
<glyph name="a" format="1">
  <advance width="571"/>
  <unicode hex="0061"/>
  <outline>
    <contour>
      <point x="69" y="392" type="curve" smooth="yes"/>
      <point x="67" y="379"/>
      <point x="78" y="370"/>
      <point x="91" y="370" type="curve" smooth="yes"/>
      <point x="184" y="370" type="line" smooth="yes"/>
      <point x="196" y="370"/>
      <point x="205" y="373"/>
      <point x="217" y="384" type="curve" smooth="yes"/>
      <point x="234" y="400"/>
      <point x="250" y="410"/>
      <point x="283" y="410" type="curve" name="hr01" smooth="yes"/>
      <point x="336" y="410"/>
      <point x="377" y="389"/>
      <point x="377" y="335" type="curve"/>
      <point x="214" y="307" type="line"/>
      <point x="105" y="288"/>
      <point x="34" y="238"/>
      <point x="34" y="146" type="curve" smooth="yes"/>
      <point x="34" y="56"/>
      <point x="101" y="-10"/>
      <point x="216" y="-10" type="curve" smooth="yes"/>
      <point x="297" y="-10"/>
      <point x="349" y="21"/>
      <point x="377" y="60" type="curve"/>
      <point x="377" y="27" type="line" smooth="yes"/>
      <point x="377" y="12"/>
      <point x="389" y="0"/>
      <point x="404" y="0" type="curve" name="hr02" smooth="yes"/>
      <point x="480" y="0" type="line" smooth="yes"/>
      <point x="495" y="0"/>
      <point x="507" y="12"/>
      <point x="507" y="27" type="curve" smooth="yes"/>
      <point x="507" y="321" type="line" smooth="yes"/>
      <point x="507" y="458"/>
      <point x="418" y="530"/>
      <point x="283" y="530" type="curve" smooth="yes"/>
      <point x="147" y="530"/>
      <point x="79" y="448"/>
    </contour>
    <contour>
      <point x="236" y="110" type="curve" name="hr03" smooth="yes"/>
      <point x="197" y="110"/>
      <point x="164" y="123"/>
      <point x="164" y="151" type="curve" smooth="yes"/>
      <point x="164" y="181"/>
      <point x="187" y="199"/>
      <point x="241" y="208" type="curve" smooth="yes"/>
      <point x="377" y="232" type="line"/>
      <point x="377" y="222" type="line" smooth="yes"/>
      <point x="377" y="166"/>
      <point x="328" y="110"/>
    </contour>
  </outline>
</glyph>
<glyph name="b" format="1">
  <advance width="619"/>
  <unicode hex="0062"/>
  <outline>
    <contour>
      <point x="350" y="530" type="curve" smooth="yes"/>
      <point x="267" y="530"/>
      <point x="221" y="494"/>
      <point x="199" y="470" type="curve"/>
      <point x="199" y="683" type="line" smooth="yes"/>
      <point x="199" y="698"/>
      <point x="187" y="710"/>
      <point x="172" y="710" type="curve" smooth="yes"/>
      <point x="96" y="710" type="line" smooth="yes"/>
      <point x="81" y="710"/>
      <point x="69" y="698"/>
      <point x="69" y="683" type="curve" smooth="yes"/>
      <point x="69" y="27" type="line" smooth="yes"/>
      <point x="69" y="12"/>
      <point x="81" y="0"/>
      <point x="96" y="0" type="curve" smooth="yes"/>
      <point x="172" y="0" type="line" smooth="yes"/>
      <point x="187" y="0"/>
      <point x="199" y="12"/>
      <point x="199" y="27" type="curve" smooth="yes"/>
      <point x="199" y="50" type="line"/>
      <point x="221" y="25"/>
      <point x="267" y="-10"/>
      <point x="350" y="-10" type="curve" name="hr01" smooth="yes"/>
      <point x="484" y="-10"/>
      <point x="567" y="102"/>
      <point x="573" y="225" type="curve" smooth="yes"/>
      <point x="574" y="245"/>
      <point x="574" y="275"/>
      <point x="573" y="295" type="curve" smooth="yes"/>
      <point x="567" y="418"/>
      <point x="484" y="530"/>
    </contour>
    <contour>
      <point x="443" y="288" type="curve" smooth="yes"/>
      <point x="445" y="268"/>
      <point x="445" y="252"/>
      <point x="443" y="232" type="curve" smooth="yes"/>
      <point x="435" y="146"/>
      <point x="385" y="110"/>
      <point x="320" y="110" type="curve" smooth="yes"/>
      <point x="255" y="110"/>
      <point x="206" y="150"/>
      <point x="199" y="222" type="curve" smooth="yes"/>
      <point x="197" y="242"/>
      <point x="197" y="278"/>
      <point x="199" y="298" type="curve" smooth="yes"/>
      <point x="206" y="367"/>
      <point x="255" y="410"/>
      <point x="320" y="410" type="curve" smooth="yes"/>
      <point x="385" y="410"/>
      <point x="435" y="374"/>
    </contour>
  </outline>
</glyph>
<glyph name="d" format="1">
  <advance width="619"/>
  <unicode hex="0064"/>
  <outline>
    <contour>
      <point x="269" y="530" type="curve" smooth="yes"/>
      <point x="135" y="530"/>
      <point x="52" y="418"/>
      <point x="46" y="295" type="curve" smooth="yes"/>
      <point x="45" y="275"/>
      <point x="45" y="245"/>
      <point x="46" y="225" type="curve" smooth="yes"/>
      <point x="52" y="102"/>
      <point x="135" y="-10"/>
      <point x="269" y="-10" type="curve" smooth="yes"/>
      <point x="352" y="-10"/>
      <point x="398" y="25"/>
      <point x="420" y="50" type="curve"/>
      <point x="420" y="27" type="line" smooth="yes"/>
      <point x="420" y="12"/>
      <point x="432" y="0"/>
      <point x="447" y="0" type="curve" name="hr01" smooth="yes"/>
      <point x="523" y="0" type="line" smooth="yes"/>
      <point x="538" y="0"/>
      <point x="550" y="12"/>
      <point x="550" y="27" type="curve" smooth="yes"/>
      <point x="550" y="683" type="line" smooth="yes"/>
      <point x="550" y="698"/>
      <point x="538" y="710"/>
      <point x="523" y="710" type="curve" smooth="yes"/>
      <point x="447" y="710" type="line" smooth="yes"/>
      <point x="432" y="710"/>
      <point x="420" y="698"/>
      <point x="420" y="683" type="curve" smooth="yes"/>
      <point x="420" y="470" type="line"/>
      <point x="398" y="494"/>
      <point x="352" y="530"/>
    </contour>
    <contour>
      <point x="176" y="288" type="curve" smooth="yes"/>
      <point x="184" y="374"/>
      <point x="234" y="410"/>
      <point x="299" y="410" type="curve" smooth="yes"/>
      <point x="364" y="410"/>
      <point x="413" y="367"/>
      <point x="420" y="298" type="curve" smooth="yes"/>
      <point x="422" y="278"/>
      <point x="422" y="242"/>
      <point x="420" y="222" type="curve" smooth="yes"/>
      <point x="413" y="150"/>
      <point x="364" y="110"/>
      <point x="299" y="110" type="curve" name="hr02" smooth="yes"/>
      <point x="234" y="110"/>
      <point x="184" y="146"/>
      <point x="176" y="232" type="curve" smooth="yes"/>
      <point x="174" y="252"/>
      <point x="174" y="268"/>
    </contour>
  </outline>
</glyph>
<glyph name="g" format="1">
  <advance width="619"/>
  <unicode hex="0067"/>
  <outline>
    <contour>
      <point x="296" y="-100" type="curve" smooth="yes"/>
      <point x="232" y="-100"/>
      <point x="208" y="-83"/>
      <point x="190" y="-61" type="curve" smooth="yes"/>
      <point x="181" y="-50"/>
      <point x="168" y="-34"/>
      <point x="149" y="-34" type="curve" name="hr01"/>
      <point x="81" y="-34" type="line"/>
      <point x="66" y="-34"/>
      <point x="53" y="-46"/>
      <point x="54" y="-61" type="curve" smooth="yes"/>
      <point x="60" y="-140"/>
      <point x="160" y="-220"/>
      <point x="296" y="-220" type="curve" smooth="yes"/>
      <point x="454" y="-220"/>
      <point x="550" y="-137"/>
      <point x="550" y="24" type="curve"/>
      <point x="550" y="493" type="line"/>
      <point x="550" y="508"/>
      <point x="538" y="520"/>
      <point x="523" y="520" type="curve"/>
      <point x="447" y="520" type="line"/>
      <point x="432" y="520"/>
      <point x="420" y="508"/>
      <point x="420" y="493" type="curve"/>
      <point x="420" y="470" type="line"/>
      <point x="398" y="494"/>
      <point x="352" y="530"/>
      <point x="269" y="530" type="curve" name="hr02" smooth="yes"/>
      <point x="135" y="530"/>
      <point x="52" y="418"/>
      <point x="46" y="295" type="curve" smooth="yes"/>
      <point x="45" y="275"/>
      <point x="45" y="245"/>
      <point x="46" y="225" type="curve" smooth="yes"/>
      <point x="52" y="102"/>
      <point x="135" y="-10"/>
      <point x="269" y="-10" type="curve" smooth="yes"/>
      <point x="352" y="-10"/>
      <point x="398" y="25"/>
      <point x="420" y="50" type="curve"/>
      <point x="420" y="13" type="line"/>
      <point x="420" y="-65"/>
      <point x="353" y="-100"/>
    </contour>
    <contour>
      <point x="176" y="288" type="curve" smooth="yes"/>
      <point x="184" y="374"/>
      <point x="234" y="410"/>
      <point x="299" y="410" type="curve" smooth="yes"/>
      <point x="364" y="410"/>
      <point x="413" y="367"/>
      <point x="420" y="298" type="curve" smooth="yes"/>
      <point x="422" y="278"/>
      <point x="422" y="242"/>
      <point x="420" y="222" type="curve" smooth="yes"/>
      <point x="413" y="150"/>
      <point x="364" y="110"/>
      <point x="299" y="110" type="curve" smooth="yes"/>
      <point x="234" y="110"/>
      <point x="184" y="146"/>
      <point x="176" y="232" type="curve" smooth="yes"/>
      <point x="174" y="252"/>
      <point x="174" y="268"/>
    </contour>
  </outline>
</glyph>
<glyph name="i" format="1">
  <advance width="268"/>
  <unicode hex="0069"/>
  <outline>
    <contour>
      <point x="199" y="493" type="line" name="hr00" smooth="yes"/>
      <point x="199" y="508"/>
      <point x="187" y="520"/>
      <point x="172" y="520" type="curve" smooth="yes"/>
      <point x="96" y="520" type="line" smooth="yes"/>
      <point x="81" y="520"/>
      <point x="69" y="508"/>
      <point x="69" y="493" type="curve" smooth="yes"/>
      <point x="69" y="27" type="line" smooth="yes"/>
      <point x="69" y="12"/>
      <point x="81" y="0"/>
      <point x="96" y="0" type="curve" smooth="yes"/>
      <point x="172" y="0" type="line" smooth="yes"/>
      <point x="187" y="0"/>
      <point x="199" y="12"/>
      <point x="199" y="27" type="curve" smooth="yes"/>
    </contour>
    <contour>
      <point x="91" y="710" type="line" smooth="yes"/>
      <point x="76" y="710"/>
      <point x="64" y="698"/>
      <point x="64" y="683" type="curve" smooth="yes"/>
      <point x="64" y="605" type="line" smooth="yes"/>
      <point x="64" y="590"/>
      <point x="76" y="578"/>
      <point x="91" y="578" type="curve" smooth="yes"/>
      <point x="177" y="578" type="line" smooth="yes"/>
      <point x="192" y="578"/>
      <point x="204" y="590"/>
      <point x="204" y="605" type="curve" smooth="yes"/>
      <point x="204" y="683" type="line" smooth="yes"/>
      <point x="204" y="698"/>
      <point x="192" y="710"/>
      <point x="177" y="710" type="curve" smooth="yes"/>
    </contour>
  </outline>
</glyph>
<glyph name="j" format="1">
  <advance width="278"/>
  <unicode hex="006A"/>
  <outline>
    <contour>
      <point x="79" y="-5" type="line" smooth="yes"/>
      <point x="79" y="-46"/>
      <point x="64" y="-70"/>
      <point x="4" y="-70" type="curve" smooth="yes"/>
      <point x="-11" y="-70" type="line" smooth="yes"/>
      <point x="-26" y="-70"/>
      <point x="-38" y="-82"/>
      <point x="-38" y="-97" type="curve" name="hr01" smooth="yes"/>
      <point x="-38" y="-163" type="line" smooth="yes"/>
      <point x="-38" y="-178"/>
      <point x="-26" y="-190"/>
      <point x="-11" y="-190" type="curve" smooth="yes"/>
      <point x="14" y="-190" type="line" smooth="yes"/>
      <point x="139" y="-190"/>
      <point x="209" y="-129"/>
      <point x="209" y="-10" type="curve" smooth="yes"/>
      <point x="209" y="493" type="line" smooth="yes"/>
      <point x="209" y="508"/>
      <point x="197" y="520"/>
      <point x="182" y="520" type="curve" smooth="yes"/>
      <point x="106" y="520" type="line" smooth="yes"/>
      <point x="91" y="520"/>
      <point x="79" y="508"/>
      <point x="79" y="493" type="curve" name="hr02" smooth="yes"/>
    </contour>
    <contour>
      <point x="101" y="710" type="line" smooth="yes"/>
      <point x="86" y="710"/>
      <point x="74" y="698"/>
      <point x="74" y="683" type="curve" smooth="yes"/>
      <point x="74" y="605" type="line" smooth="yes"/>
      <point x="74" y="590"/>
      <point x="86" y="578"/>
      <point x="101" y="578" type="curve" smooth="yes"/>
      <point x="187" y="578" type="line" smooth="yes"/>
      <point x="202" y="578"/>
      <point x="214" y="590"/>
      <point x="214" y="605" type="curve" smooth="yes"/>
      <point x="214" y="683" type="line" smooth="yes"/>
      <point x="214" y="698"/>
      <point x="202" y="710"/>
      <point x="187" y="710" type="curve" smooth="yes"/>
    </contour>
  </outline>
</glyph>
<glyph name="k" format="1">
  <advance width="562"/>
  <unicode hex="006B"/>
  <outline>
    <contour>
      <point x="390" y="17" type="line" name="hr00"/>
      <point x="397" y="11"/>
      <point x="411" y="0"/>
      <point x="431" y="0" type="curve"/>
      <point x="528" y="0" type="line"/>
      <point x="541" y="0"/>
      <point x="552" y="11"/>
      <point x="552" y="24" type="curve" smooth="yes"/>
      <point x="552" y="30"/>
      <point x="550" y="35"/>
      <point x="542" y="43" type="curve"/>
      <point x="287" y="288" type="line"/>
      <point x="520" y="476" type="line"/>
      <point x="530" y="484"/>
      <point x="531" y="490"/>
      <point x="531" y="496" type="curve" smooth="yes"/>
      <point x="531" y="509"/>
      <point x="520" y="520"/>
      <point x="507" y="520" type="curve"/>
      <point x="405" y="520" type="line"/>
      <point x="387" y="520"/>
      <point x="374" y="509"/>
      <point x="366" y="503" type="curve"/>
      <point x="199" y="368" type="line"/>
      <point x="199" y="683" type="line"/>
      <point x="199" y="698"/>
      <point x="187" y="710"/>
      <point x="172" y="710" type="curve"/>
      <point x="96" y="710" type="line"/>
      <point x="81" y="710"/>
      <point x="69" y="698"/>
      <point x="69" y="683" type="curve"/>
      <point x="69" y="27" type="line"/>
      <point x="69" y="12"/>
      <point x="81" y="0"/>
      <point x="96" y="0" type="curve"/>
      <point x="172" y="0" type="line"/>
      <point x="187" y="0"/>
      <point x="199" y="12"/>
      <point x="199" y="27" type="curve"/>
      <point x="199" y="199" type="line"/>
    </contour>
  </outline>
</glyph>
<glyph name="l" format="1">
  <advance width="268"/>
  <unicode hex="006C"/>
  <outline>
    <contour>
      <point x="199" y="683" type="line" name="hr00" smooth="yes"/>
      <point x="199" y="698"/>
      <point x="187" y="710"/>
      <point x="172" y="710" type="curve" smooth="yes"/>
      <point x="96" y="710" type="line" smooth="yes"/>
      <point x="81" y="710"/>
      <point x="69" y="698"/>
      <point x="69" y="683" type="curve" smooth="yes"/>
      <point x="69" y="27" type="line" smooth="yes"/>
      <point x="69" y="12"/>
      <point x="81" y="0"/>
      <point x="96" y="0" type="curve" smooth="yes"/>
      <point x="172" y="0" type="line" smooth="yes"/>
      <point x="187" y="0"/>
      <point x="199" y="12"/>
      <point x="199" y="27" type="curve" smooth="yes"/>
    </contour>
  </outline>
</glyph>
<glyph name="n" format="1">
  <advance width="621"/>
  <unicode hex="006E"/>
  <outline>
    <contour>
      <point x="557" y="296" type="line" smooth="yes"/>
      <point x="557" y="421"/>
      <point x="505" y="530"/>
      <point x="343" y="530" type="curve" smooth="yes"/>
      <point x="280" y="530"/>
      <point x="234" y="505"/>
      <point x="199" y="470" type="curve"/>
      <point x="199" y="493" type="line" smooth="yes"/>
      <point x="199" y="508"/>
      <point x="187" y="520"/>
      <point x="172" y="520" type="curve" name="hr01" smooth="yes"/>
      <point x="96" y="520" type="line" smooth="yes"/>
      <point x="81" y="520"/>
      <point x="69" y="508"/>
      <point x="69" y="493" type="curve" smooth="yes"/>
      <point x="69" y="27" type="line" smooth="yes"/>
      <point x="69" y="12"/>
      <point x="81" y="0"/>
      <point x="96" y="0" type="curve" smooth="yes"/>
      <point x="172" y="0" type="line" smooth="yes"/>
      <point x="187" y="0"/>
      <point x="199" y="12"/>
      <point x="199" y="27" type="curve" smooth="yes"/>
      <point x="199" y="281" type="line" smooth="yes"/>
      <point x="199" y="360"/>
      <point x="243" y="413"/>
      <point x="313" y="413" type="curve" name="hr02" smooth="yes"/>
      <point x="390" y="413"/>
      <point x="427" y="361"/>
      <point x="427" y="281" type="curve" smooth="yes"/>
      <point x="427" y="27" type="line" smooth="yes"/>
      <point x="427" y="12"/>
      <point x="439" y="0"/>
      <point x="454" y="0" type="curve" smooth="yes"/>
      <point x="530" y="0" type="line" smooth="yes"/>
      <point x="545" y="0"/>
      <point x="557" y="12"/>
      <point x="557" y="27" type="curve" smooth="yes"/>
    </contour>
  </outline>
</glyph>
<glyph name="o" format="1">
  <advance width="595"/>
  <unicode hex="006F"/>
  <outline>
    <contour>
      <point x="298" y="530" type="curve" name="hr00" smooth="yes"/>
      <point x="152" y="530"/>
      <point x="56" y="433"/>
      <point x="47" y="310" type="curve" smooth="yes"/>
      <point x="45" y="285"/>
      <point x="45" y="233"/>
      <point x="47" y="209" type="curve" smooth="yes"/>
      <point x="57" y="87"/>
      <point x="152" y="-10"/>
      <point x="298" y="-10" type="curve" smooth="yes"/>
      <point x="444" y="-10"/>
      <point x="539" y="87"/>
      <point x="549" y="209" type="curve" smooth="yes"/>
      <point x="551" y="233"/>
      <point x="551" y="285"/>
      <point x="549" y="310" type="curve" smooth="yes"/>
      <point x="540" y="433"/>
      <point x="444" y="530"/>
    </contour>
    <contour>
      <point x="419" y="305" type="curve" smooth="yes"/>
      <point x="421" y="285"/>
      <point x="421" y="235"/>
      <point x="419" y="215" type="curve" smooth="yes"/>
      <point x="411" y="132"/>
      <point x="353" y="110"/>
      <point x="298" y="110" type="curve" smooth="yes"/>
      <point x="243" y="110"/>
      <point x="185" y="132"/>
      <point x="177" y="215" type="curve" smooth="yes"/>
      <point x="175" y="235"/>
      <point x="175" y="285"/>
      <point x="177" y="305" type="curve" smooth="yes"/>
      <point x="185" y="388"/>
      <point x="243" y="410"/>
      <point x="298" y="410" type="curve" smooth="yes"/>
      <point x="353" y="410"/>
      <point x="411" y="388"/>
    </contour>
  </outline>
</glyph>
<glyph name="p" format="1">
  <advance width="619"/>
  <unicode hex="0070"/>
  <outline>
    <contour>
      <point x="350" y="-10" type="curve"/>
      <point x="484" y="-10"/>
      <point x="567" y="102"/>
      <point x="573" y="225" type="curve" smooth="yes"/>
      <point x="574" y="245"/>
      <point x="574" y="275"/>
      <point x="573" y="295" type="curve" smooth="yes"/>
      <point x="567" y="418"/>
      <point x="484" y="530"/>
      <point x="350" y="530" type="curve" smooth="yes"/>
      <point x="267" y="530"/>
      <point x="221" y="495"/>
      <point x="199" y="470" type="curve"/>
      <point x="199" y="493" type="line" smooth="yes"/>
      <point x="199" y="508"/>
      <point x="187" y="520"/>
      <point x="172" y="520" type="curve" name="hr01" smooth="yes"/>
      <point x="96" y="520" type="line" smooth="yes"/>
      <point x="81" y="520"/>
      <point x="69" y="508"/>
      <point x="69" y="493" type="curve" smooth="yes"/>
      <point x="69" y="-163" type="line" smooth="yes"/>
      <point x="69" y="-178"/>
      <point x="81" y="-190"/>
      <point x="96" y="-190" type="curve" smooth="yes"/>
      <point x="172" y="-190" type="line" smooth="yes"/>
      <point x="187" y="-190"/>
      <point x="199" y="-178"/>
      <point x="199" y="-163" type="curve" smooth="yes"/>
      <point x="199" y="50" type="line"/>
      <point x="221" y="26"/>
      <point x="267" y="-10"/>
    </contour>
    <contour>
      <point x="443" y="232" type="curve"/>
      <point x="435" y="146"/>
      <point x="385" y="110"/>
      <point x="320" y="110" type="curve" smooth="yes"/>
      <point x="255" y="110"/>
      <point x="206" y="153"/>
      <point x="199" y="222" type="curve" smooth="yes"/>
      <point x="197" y="242"/>
      <point x="197" y="278"/>
      <point x="199" y="298" type="curve" smooth="yes"/>
      <point x="206" y="370"/>
      <point x="255" y="410"/>
      <point x="320" y="410" type="curve" name="hr02" smooth="yes"/>
      <point x="385" y="410"/>
      <point x="435" y="374"/>
      <point x="443" y="288" type="curve" smooth="yes"/>
      <point x="445" y="268"/>
      <point x="445" y="252"/>
    </contour>
  </outline>
</glyph>
<glyph name="q" format="1">
  <advance width="619"/>
  <unicode hex="0071"/>
  <outline>
    <contour>
      <point x="269" y="-10" type="curve" smooth="yes"/>
      <point x="352" y="-10"/>
      <point x="398" y="26"/>
      <point x="420" y="50" type="curve"/>
      <point x="420" y="-163" type="line" smooth="yes"/>
      <point x="420" y="-178"/>
      <point x="432" y="-190"/>
      <point x="447" y="-190" type="curve" smooth="yes"/>
      <point x="523" y="-190" type="line" smooth="yes"/>
      <point x="538" y="-190"/>
      <point x="550" y="-178"/>
      <point x="550" y="-163" type="curve" smooth="yes"/>
      <point x="550" y="493" type="line" smooth="yes"/>
      <point x="550" y="508"/>
      <point x="538" y="520"/>
      <point x="523" y="520" type="curve" smooth="yes"/>
      <point x="447" y="520" type="line" smooth="yes"/>
      <point x="432" y="520"/>
      <point x="420" y="508"/>
      <point x="420" y="493" type="curve" smooth="yes"/>
      <point x="420" y="470" type="line"/>
      <point x="398" y="495"/>
      <point x="352" y="530"/>
      <point x="269" y="530" type="curve" name="hr01" smooth="yes"/>
      <point x="135" y="530"/>
      <point x="52" y="418"/>
      <point x="46" y="295" type="curve" smooth="yes"/>
      <point x="45" y="275"/>
      <point x="45" y="245"/>
      <point x="46" y="225" type="curve" smooth="yes"/>
      <point x="52" y="102"/>
      <point x="135" y="-10"/>
    </contour>
    <contour>
      <point x="176" y="232" type="curve" smooth="yes"/>
      <point x="174" y="252"/>
      <point x="174" y="268"/>
      <point x="176" y="288" type="curve" smooth="yes"/>
      <point x="184" y="374"/>
      <point x="234" y="410"/>
      <point x="299" y="410" type="curve" smooth="yes"/>
      <point x="364" y="410"/>
      <point x="413" y="370"/>
      <point x="420" y="298" type="curve" smooth="yes"/>
      <point x="422" y="278"/>
      <point x="422" y="242"/>
      <point x="420" y="222" type="curve" smooth="yes"/>
      <point x="413" y="153"/>
      <point x="364" y="110"/>
      <point x="299" y="110" type="curve" smooth="yes"/>
      <point x="234" y="110"/>
      <point x="184" y="146"/>
    </contour>
  </outline>
</glyph>
<glyph name="r" format="1">
  <advance width="418"/>
  <unicode hex="0072"/>
  <outline>
    <contour>
      <point x="377" y="400" type="line" name="hr00" smooth="yes"/>
      <point x="392" y="400"/>
      <point x="404" y="412"/>
      <point x="404" y="427" type="curve" smooth="yes"/>
      <point x="404" y="493" type="line" smooth="yes"/>
      <point x="404" y="508"/>
      <point x="392" y="520"/>
      <point x="377" y="520" type="curve" smooth="yes"/>
      <point x="332" y="520" type="line" smooth="yes"/>
      <point x="268" y="520"/>
      <point x="233" y="502"/>
      <point x="199" y="470" type="curve"/>
      <point x="199" y="493" type="line" smooth="yes"/>
      <point x="199" y="508"/>
      <point x="187" y="520"/>
      <point x="172" y="520" type="curve" smooth="yes"/>
      <point x="96" y="520" type="line" smooth="yes"/>
      <point x="81" y="520"/>
      <point x="69" y="508"/>
      <point x="69" y="493" type="curve" smooth="yes"/>
      <point x="69" y="27" type="line" smooth="yes"/>
      <point x="69" y="12"/>
      <point x="81" y="0"/>
      <point x="96" y="0" type="curve" smooth="yes"/>
      <point x="172" y="0" type="line" smooth="yes"/>
      <point x="187" y="0"/>
      <point x="199" y="12"/>
      <point x="199" y="27" type="curve" smooth="yes"/>
      <point x="199" y="287" type="line" smooth="yes"/>
      <point x="199" y="367"/>
      <point x="232" y="400"/>
      <point x="312" y="400" type="curve" smooth="yes"/>
    </contour>
  </outline>
</glyph>
<glyph name="s" format="1">
  <advance width="520"/>
  <unicode hex="0073"/>
  <outline>
    <contour>
      <point x="352" y="149" type="curve" smooth="yes"/>
      <point x="352" y="119"/>
      <point x="300" y="110"/>
      <point x="260" y="110" type="curve" smooth="yes"/>
      <point x="170" y="110"/>
      <point x="183" y="156"/>
      <point x="143" y="156" type="curve" name="hr01" smooth="yes"/>
      <point x="66" y="156" type="line" smooth="yes"/>
      <point x="51" y="156"/>
      <point x="38" y="144"/>
      <point x="39" y="129" type="curve" smooth="yes"/>
      <point x="42" y="64"/>
      <point x="120" y="-10"/>
      <point x="260" y="-10" type="curve" smooth="yes"/>
      <point x="400" y="-10"/>
      <point x="482" y="69"/>
      <point x="482" y="149" type="curve" smooth="yes"/>
      <point x="482" y="229"/>
      <point x="439" y="284"/>
      <point x="320" y="309" type="curve" smooth="yes"/>
      <point x="203" y="334"/>
      <point x="179" y="339"/>
      <point x="179" y="369" type="curve" smooth="yes"/>
      <point x="179" y="399"/>
      <point x="215" y="410"/>
      <point x="255" y="410" type="curve" smooth="yes"/>
      <point x="335" y="410"/>
      <point x="322" y="374"/>
      <point x="363" y="374" type="curve" name="hr02" smooth="yes"/>
      <point x="440" y="374" type="line" smooth="yes"/>
      <point x="455" y="374"/>
      <point x="468" y="386"/>
      <point x="467" y="401" type="curve" smooth="yes"/>
      <point x="463" y="466"/>
      <point x="385" y="530"/>
      <point x="255" y="530" type="curve" smooth="yes"/>
      <point x="125" y="530"/>
      <point x="49" y="449"/>
      <point x="49" y="369" type="curve" smooth="yes"/>
      <point x="49" y="289"/>
      <point x="83" y="234"/>
      <point x="200" y="208" type="curve" smooth="yes"/>
      <point x="319" y="182"/>
      <point x="352" y="179"/>
    </contour>
  </outline>
</glyph>
<glyph name="t" format="1">
  <advance width="439"/>
  <unicode hex="0074"/>
  <outline>
    <contour>
      <point x="244" y="400" type="line" name="hr00"/>
      <point x="373" y="400" type="line" smooth="yes"/>
      <point x="388" y="400"/>
      <point x="400" y="412"/>
      <point x="400" y="427" type="curve" smooth="yes"/>
      <point x="400" y="493" type="line" smooth="yes"/>
      <point x="400" y="508"/>
      <point x="388" y="520"/>
      <point x="373" y="520" type="curve" smooth="yes"/>
      <point x="244" y="520" type="line"/>
      <point x="244" y="683" type="line" smooth="yes"/>
      <point x="244" y="698"/>
      <point x="232" y="710"/>
      <point x="217" y="710" type="curve" smooth="yes"/>
      <point x="141" y="710" type="line" smooth="yes"/>
      <point x="126" y="710"/>
      <point x="114" y="698"/>
      <point x="114" y="683" type="curve" smooth="yes"/>
      <point x="114" y="520" type="line"/>
      <point x="48" y="520" type="line" smooth="yes"/>
      <point x="33" y="520"/>
      <point x="21" y="508"/>
      <point x="21" y="493" type="curve" smooth="yes"/>
      <point x="21" y="427" type="line" smooth="yes"/>
      <point x="21" y="412"/>
      <point x="33" y="400"/>
      <point x="48" y="400" type="curve" smooth="yes"/>
      <point x="114" y="400" type="line"/>
      <point x="114" y="185" type="line" smooth="yes"/>
      <point x="114" y="61"/>
      <point x="184" y="0"/>
      <point x="309" y="0" type="curve" smooth="yes"/>
      <point x="383" y="0" type="line" smooth="yes"/>
      <point x="398" y="0"/>
      <point x="410" y="12"/>
      <point x="410" y="27" type="curve" smooth="yes"/>
      <point x="410" y="93" type="line" smooth="yes"/>
      <point x="410" y="108"/>
      <point x="398" y="120"/>
      <point x="383" y="120" type="curve" smooth="yes"/>
      <point x="322" y="120" type="line" smooth="yes"/>
      <point x="262" y="120"/>
      <point x="244" y="147"/>
      <point x="244" y="188" type="curve" smooth="yes"/>
    </contour>
  </outline>
</glyph>
<glyph name="u" format="1">
  <advance width="611"/>
  <unicode hex="0075"/>
  <outline>
    <contour>
      <point x="64" y="224" type="line" smooth="yes"/>
      <point x="64" y="99"/>
      <point x="111" y="-10"/>
      <point x="273" y="-10" type="curve" smooth="yes"/>
      <point x="337" y="-10"/>
      <point x="382" y="19"/>
      <point x="412" y="50" type="curve"/>
      <point x="412" y="27" type="line" smooth="yes"/>
      <point x="412" y="12"/>
      <point x="424" y="0"/>
      <point x="439" y="0" type="curve" name="hr01" smooth="yes"/>
      <point x="515" y="0" type="line" smooth="yes"/>
      <point x="530" y="0"/>
      <point x="542" y="12"/>
      <point x="542" y="27" type="curve" smooth="yes"/>
      <point x="542" y="493" type="line" smooth="yes"/>
      <point x="542" y="508"/>
      <point x="530" y="520"/>
      <point x="515" y="520" type="curve" smooth="yes"/>
      <point x="439" y="520" type="line" smooth="yes"/>
      <point x="424" y="520"/>
      <point x="412" y="508"/>
      <point x="412" y="493" type="curve" smooth="yes"/>
      <point x="412" y="239" type="line" smooth="yes"/>
      <point x="412" y="159"/>
      <point x="373" y="107"/>
      <point x="303" y="107" type="curve" name="hr02" smooth="yes"/>
      <point x="226" y="107"/>
      <point x="194" y="159"/>
      <point x="194" y="239" type="curve" smooth="yes"/>
      <point x="194" y="493" type="line" smooth="yes"/>
      <point x="194" y="508"/>
      <point x="182" y="520"/>
      <point x="167" y="520" type="curve" smooth="yes"/>
      <point x="91" y="520" type="line" smooth="yes"/>
      <point x="76" y="520"/>
      <point x="64" y="508"/>
      <point x="64" y="493" type="curve" smooth="yes"/>
    </contour>
  </outline>
</glyph>
<glyph name="v" format="1">
  <advance width="588"/>
  <unicode hex="0076"/>
  <outline>
    <contour>
      <point x="261" y="0" type="curve" name="hr00"/>
      <point x="327" y="0" type="line" smooth="yes"/>
      <point x="347" y="0"/>
      <point x="355" y="13"/>
      <point x="360" y="25" type="curve" smooth="yes"/>
      <point x="561" y="486" type="line" smooth="yes"/>
      <point x="562" y="489"/>
      <point x="562" y="491"/>
      <point x="562" y="493" type="curve" smooth="yes"/>
      <point x="562" y="508"/>
      <point x="550" y="520"/>
      <point x="535" y="520" type="curve" smooth="yes"/>
      <point x="460" y="520" type="line" smooth="yes"/>
      <point x="440" y="520"/>
      <point x="432" y="507"/>
      <point x="427" y="496" type="curve" smooth="yes"/>
      <point x="294" y="186" type="line"/>
      <point x="161" y="496" type="line" smooth="yes"/>
      <point x="156" y="507"/>
      <point x="148" y="520"/>
      <point x="128" y="520" type="curve" smooth="yes"/>
      <point x="53" y="520" type="line" smooth="yes"/>
      <point x="38" y="520"/>
      <point x="26" y="508"/>
      <point x="26" y="493" type="curve" smooth="yes"/>
      <point x="26" y="491"/>
      <point x="26" y="489"/>
      <point x="27" y="486" type="curve" smooth="yes"/>
      <point x="228" y="25" type="line" smooth="yes"/>
      <point x="233" y="13"/>
      <point x="241" y="0"/>
    </contour>
  </outline>
</glyph>
<glyph name="w" format="1">
  <advance width="830"/>
  <unicode hex="0077"/>
  <outline>
    <contour>
      <point x="481" y="496" type="line" name="hr00"/>
      <point x="478" y="507"/>
      <point x="468" y="520"/>
      <point x="453" y="520" type="curve"/>
      <point x="377" y="520" type="line"/>
      <point x="362" y="520"/>
      <point x="352" y="507"/>
      <point x="349" y="496" type="curve"/>
      <point x="253" y="210" type="line"/>
      <point x="163" y="496" type="line"/>
      <point x="159" y="507"/>
      <point x="153" y="520"/>
      <point x="135" y="520" type="curve"/>
      <point x="59" y="520" type="line"/>
      <point x="44" y="520"/>
      <point x="32" y="508"/>
      <point x="32" y="493" type="curve" smooth="yes"/>
      <point x="32" y="491"/>
      <point x="32" y="489"/>
      <point x="33" y="486" type="curve"/>
      <point x="184" y="25" type="line"/>
      <point x="188" y="13"/>
      <point x="195" y="0"/>
      <point x="213" y="0" type="curve"/>
      <point x="289" y="0" type="line"/>
      <point x="307" y="0"/>
      <point x="313" y="13"/>
      <point x="318" y="25" type="curve"/>
      <point x="415" y="292" type="line"/>
      <point x="512" y="25" type="line"/>
      <point x="517" y="13"/>
      <point x="523" y="0"/>
      <point x="541" y="0" type="curve"/>
      <point x="617" y="0" type="line"/>
      <point x="635" y="0"/>
      <point x="642" y="13"/>
      <point x="646" y="25" type="curve"/>
      <point x="797" y="486" type="line"/>
      <point x="798" y="489"/>
      <point x="798" y="491"/>
      <point x="798" y="493" type="curve" smooth="yes"/>
      <point x="798" y="508"/>
      <point x="786" y="520"/>
      <point x="771" y="520" type="curve"/>
      <point x="695" y="520" type="line"/>
      <point x="677" y="520"/>
      <point x="671" y="507"/>
      <point x="667" y="496" type="curve"/>
      <point x="577" y="210" type="line"/>
    </contour>
  </outline>
</glyph>
<glyph name="x" format="1">
  <advance width="585"/>
  <unicode hex="0078"/>
  <outline>
    <contour>
      <point x="410" y="19" type="line" name="hr00"/>
      <point x="423" y="3"/>
      <point x="437" y="0"/>
      <point x="454" y="0" type="curve"/>
      <point x="531" y="0" type="line"/>
      <point x="546" y="0"/>
      <point x="557" y="12"/>
      <point x="557" y="28" type="curve" smooth="yes"/>
      <point x="557" y="35"/>
      <point x="555" y="39"/>
      <point x="553" y="42" type="curve"/>
      <point x="375" y="261" type="line"/>
      <point x="549" y="478" type="line"/>
      <point x="551" y="481"/>
      <point x="553" y="485"/>
      <point x="553" y="492" type="curve" smooth="yes"/>
      <point x="553" y="508"/>
      <point x="542" y="520"/>
      <point x="527" y="520" type="curve"/>
      <point x="450" y="520" type="line"/>
      <point x="433" y="520"/>
      <point x="419" y="517"/>
      <point x="406" y="501" type="curve"/>
      <point x="294" y="361" type="line"/>
      <point x="181" y="501" type="line"/>
      <point x="168" y="517"/>
      <point x="154" y="520"/>
      <point x="137" y="520" type="curve"/>
      <point x="60" y="520" type="line"/>
      <point x="45" y="520"/>
      <point x="34" y="508"/>
      <point x="34" y="492" type="curve" smooth="yes"/>
      <point x="34" y="485"/>
      <point x="36" y="481"/>
      <point x="38" y="478" type="curve"/>
      <point x="210" y="265" type="line"/>
      <point x="30" y="42" type="line"/>
      <point x="28" y="39"/>
      <point x="26" y="35"/>
      <point x="26" y="28" type="curve" smooth="yes"/>
      <point x="26" y="12"/>
      <point x="37" y="0"/>
      <point x="52" y="0" type="curve"/>
      <point x="129" y="0" type="line"/>
      <point x="146" y="0"/>
      <point x="160" y="3"/>
      <point x="173" y="19" type="curve"/>
      <point x="291" y="165" type="line"/>
    </contour>
  </outline>
</glyph>
<glyph name="y" format="1">
  <advance width="589"/>
  <unicode hex="0079"/>
  <outline>
    <contour>
      <point x="148" y="-156" type="line" name="hr00"/>
      <point x="147" y="-159"/>
      <point x="147" y="-161"/>
      <point x="147" y="-163" type="curve" smooth="yes"/>
      <point x="147" y="-178"/>
      <point x="159" y="-190"/>
      <point x="174" y="-190" type="curve"/>
      <point x="249" y="-190" type="line"/>
      <point x="265" y="-190"/>
      <point x="278" y="-177"/>
      <point x="282" y="-166" type="curve"/>
      <point x="563" y="486" type="line"/>
      <point x="564" y="489"/>
      <point x="564" y="491"/>
      <point x="564" y="493" type="curve" smooth="yes"/>
      <point x="564" y="508"/>
      <point x="552" y="520"/>
      <point x="537" y="520" type="curve"/>
      <point x="462" y="520" type="line"/>
      <point x="446" y="520"/>
      <point x="433" y="507"/>
      <point x="429" y="496" type="curve"/>
      <point x="296" y="187" type="line"/>
      <point x="163" y="496" type="line"/>
      <point x="159" y="507"/>
      <point x="146" y="520"/>
      <point x="130" y="520" type="curve"/>
      <point x="55" y="520" type="line"/>
      <point x="40" y="520"/>
      <point x="28" y="508"/>
      <point x="28" y="493" type="curve" smooth="yes"/>
      <point x="28" y="491"/>
      <point x="28" y="489"/>
      <point x="29" y="486" type="curve"/>
      <point x="227" y="28" type="line"/>
    </contour>
  </outline>
</glyph>
<glyph name="z" format="1">
  <advance width="541"/>
  <unicode hex="007A"/>
  <outline>
    <contour>
      <point x="219" y="120" type="line" name="hr00"/>
      <point x="469" y="391" type="line"/>
      <point x="476" y="400"/>
      <point x="483" y="413"/>
      <point x="483" y="425" type="curve" smooth="yes"/>
      <point x="483" y="493" type="line" smooth="yes"/>
      <point x="483" y="508"/>
      <point x="471" y="520"/>
      <point x="456" y="520" type="curve" smooth="yes"/>
      <point x="80" y="520" type="line" smooth="yes"/>
      <point x="65" y="520"/>
      <point x="53" y="508"/>
      <point x="53" y="493" type="curve" smooth="yes"/>
      <point x="53" y="427" type="line" smooth="yes"/>
      <point x="53" y="412"/>
      <point x="65" y="400"/>
      <point x="80" y="400" type="curve" smooth="yes"/>
      <point x="307" y="400" type="line"/>
      <point x="57" y="129" type="line" smooth="yes"/>
      <point x="49" y="120"/>
      <point x="43" y="111"/>
      <point x="43" y="95" type="curve" smooth="yes"/>
      <point x="43" y="27" type="line" smooth="yes"/>
      <point x="43" y="12"/>
      <point x="55" y="0"/>
      <point x="70" y="0" type="curve" smooth="yes"/>
      <point x="476" y="0" type="line" smooth="yes"/>
      <point x="491" y="0"/>
      <point x="503" y="12"/>
      <point x="503" y="27" type="curve" smooth="yes"/>
      <point x="503" y="93" type="line" smooth="yes"/>
      <point x="503" y="108"/>
      <point x="491" y="120"/>
      <point x="476" y="120" type="curve" smooth="yes"/>
    </contour>
  </outline>
</glyph>
<glyph name="braceleft" format="1">
  <advance width="398"/>
  <unicode hex="007B"/>
  <outline>
    <contour>
      <point x="369" y="-66" type="line" smooth="yes"/>
      <point x="369" y="-51"/>
      <point x="357" y="-39"/>
      <point x="342" y="-39" type="curve" smooth="yes"/>
      <point x="277" y="-39"/>
      <point x="241" y="24"/>
      <point x="241" y="147" type="curve" smooth="yes"/>
      <point x="241" y="244"/>
      <point x="202" y="284"/>
      <point x="166" y="308" type="curve"/>
      <point x="202" y="332"/>
      <point x="241" y="372"/>
      <point x="241" y="469" type="curve" smooth="yes"/>
      <point x="241" y="592"/>
      <point x="277" y="656"/>
      <point x="342" y="656" type="curve" smooth="yes"/>
      <point x="357" y="656"/>
      <point x="369" y="668"/>
      <point x="369" y="683" type="curve" smooth="yes"/>
      <point x="369" y="749" type="line" smooth="yes"/>
      <point x="369" y="764"/>
      <point x="357" y="776"/>
      <point x="342" y="776" type="curve" smooth="yes"/>
      <point x="204" y="776"/>
      <point x="111" y="681"/>
      <point x="111" y="502" type="curve" name="hr01" smooth="yes"/>
      <point x="111" y="439"/>
      <point x="93" y="394"/>
      <point x="54" y="378" type="curve" smooth="yes"/>
      <point x="37" y="371" type="line" smooth="yes"/>
      <point x="17" y="362"/>
      <point x="8" y="350"/>
      <point x="8" y="334" type="curve" name="hr02" smooth="yes"/>
      <point x="8" y="282" type="line" smooth="yes"/>
      <point x="8" y="266"/>
      <point x="17" y="254"/>
      <point x="37" y="245" type="curve" smooth="yes"/>
      <point x="54" y="238" type="line" smooth="yes"/>
      <point x="93" y="222"/>
      <point x="111" y="177"/>
      <point x="111" y="114" type="curve" name="hr03" smooth="yes"/>
      <point x="111" y="-65"/>
      <point x="204" y="-159"/>
      <point x="342" y="-159" type="curve" smooth="yes"/>
      <point x="357" y="-159"/>
      <point x="369" y="-147"/>
      <point x="369" y="-132" type="curve" smooth="yes"/>
    </contour>
  </outline>
</glyph>
<glyph name="bar" format="1">
  <advance width="266"/>
  <unicode hex="007C"/>
  <outline>
    <contour>
      <point x="198" y="869" type="line" name="hr00" smooth="yes"/>
      <point x="198" y="884"/>
      <point x="186" y="896"/>
      <point x="171" y="896" type="curve" smooth="yes"/>
      <point x="95" y="896" type="line" smooth="yes"/>
      <point x="80" y="896"/>
      <point x="68" y="884"/>
      <point x="68" y="869" type="curve" smooth="yes"/>
      <point x="68" y="-181" type="line" smooth="yes"/>
      <point x="68" y="-196"/>
      <point x="80" y="-208"/>
      <point x="95" y="-208" type="curve" smooth="yes"/>
      <point x="171" y="-208" type="line" smooth="yes"/>
      <point x="186" y="-208"/>
      <point x="198" y="-196"/>
      <point x="198" y="-181" type="curve" smooth="yes"/>
    </contour>
  </outline>
</glyph>
<glyph name="asciitilde" format="1">
  <advance width="562"/>
  <unicode hex="007E"/>
  <outline>
    <contour>
      <point x="172" y="383" type="curve" smooth="yes"/>
      <point x="104" y="383"/>
      <point x="67" y="347"/>
      <point x="67" y="303" type="curve" smooth="yes"/>
      <point x="67" y="263" type="line" smooth="yes"/>
      <point x="67" y="238"/>
      <point x="70" y="226"/>
      <point x="89" y="226" type="curve"/>
      <point x="98" y="227"/>
      <point x="104" y="231"/>
      <point x="109" y="235" type="curve" smooth="yes"/>
      <point x="119" y="244"/>
      <point x="140" y="261"/>
      <point x="171" y="261" type="curve" smooth="yes"/>
      <point x="264" y="261"/>
      <point x="288" y="219"/>
      <point x="387" y="219" type="curve" name="hr01" smooth="yes"/>
      <point x="455" y="219"/>
      <point x="497" y="255"/>
      <point x="497" y="299" type="curve" smooth="yes"/>
      <point x="497" y="339" type="line" smooth="yes"/>
      <point x="497" y="364"/>
      <point x="494" y="376"/>
      <point x="475" y="376" type="curve"/>
      <point x="466" y="375"/>
      <point x="460" y="371"/>
      <point x="455" y="367" type="curve" smooth="yes"/>
      <point x="445" y="358"/>
      <point x="419" y="341"/>
      <point x="388" y="341" type="curve" smooth="yes"/>
      <point x="295" y="341"/>
      <point x="271" y="383"/>
    </contour>
  </outline>
</glyph>
<glyph name="cent" format="1">
  <advance width="585"/>
  <unicode hex="00A2"/>
  <outline>
    <contour>
      <point x="179" y="295" type="curve" name="hr00" smooth="yes"/>
      <point x="187" y="378"/>
      <point x="243" y="410"/>
      <point x="298" y="410" type="curve" smooth="yes"/>
      <point x="364" y="410"/>
      <point x="385" y="387"/>
      <point x="406" y="356" type="curve" smooth="yes"/>
      <point x="414" y="344"/>
      <point x="424" y="329"/>
      <point x="439" y="329" type="curve" smooth="yes"/>
      <point x="515" y="329" type="line" smooth="yes"/>
      <point x="530" y="329"/>
      <point x="543" y="341"/>
      <point x="542" y="356" type="curve" smooth="yes"/>
      <point x="539" y="405"/>
      <point x="486" y="500"/>
      <point x="360" y="524" type="curve"/>
      <point x="360" y="583" type="line" smooth="yes"/>
      <point x="360" y="598"/>
      <point x="348" y="610"/>
      <point x="333" y="610" type="curve" smooth="yes"/>
      <point x="257" y="610" type="line" smooth="yes"/>
      <point x="242" y="610"/>
      <point x="230" y="598"/>
      <point x="230" y="583" type="curve" smooth="yes"/>
      <point x="230" y="521" type="line"/>
      <point x="123" y="494"/>
      <point x="56" y="402"/>
      <point x="49" y="300" type="curve" smooth="yes"/>
      <point x="47" y="275"/>
      <point x="47" y="243"/>
      <point x="49" y="219" type="curve" smooth="yes"/>
      <point x="57" y="117"/>
      <point x="123" y="26"/>
      <point x="230" y="-1" type="curve"/>
      <point x="230" y="-73" type="line" smooth="yes"/>
      <point x="230" y="-88"/>
      <point x="242" y="-100"/>
      <point x="257" y="-100" type="curve" smooth="yes"/>
      <point x="333" y="-100" type="line" smooth="yes"/>
      <point x="348" y="-100"/>
      <point x="360" y="-88"/>
      <point x="360" y="-73" type="curve" smooth="yes"/>
      <point x="360" y="-4" type="line"/>
      <point x="486" y="19"/>
      <point x="539" y="114"/>
      <point x="542" y="164" type="curve" smooth="yes"/>
      <point x="543" y="179"/>
      <point x="530" y="191"/>
      <point x="515" y="191" type="curve" smooth="yes"/>
      <point x="439" y="191" type="line" smooth="yes"/>
      <point x="424" y="191"/>
      <point x="414" y="176"/>
      <point x="406" y="164" type="curve" smooth="yes"/>
      <point x="385" y="133"/>
      <point x="364" y="110"/>
      <point x="298" y="110" type="curve" smooth="yes"/>
      <point x="243" y="110"/>
      <point x="187" y="142"/>
      <point x="179" y="225" type="curve" smooth="yes"/>
      <point x="177" y="245"/>
      <point x="177" y="275"/>
    </contour>
  </outline>
</glyph>
<glyph name="brokenbar" format="1">
  <advance width="270"/>
  <unicode hex="00A6"/>
  <outline>
    <contour>
      <point x="200" y="802" type="line" name="hr00" smooth="yes"/>
      <point x="200" y="817"/>
      <point x="188" y="829"/>
      <point x="173" y="829" type="curve" smooth="yes"/>
      <point x="97" y="829" type="line" smooth="yes"/>
      <point x="82" y="829"/>
      <point x="70" y="817"/>
      <point x="70" y="802" type="curve" smooth="yes"/>
      <point x="70" y="502" type="line" smooth="yes"/>
      <point x="70" y="487"/>
      <point x="82" y="475"/>
      <point x="97" y="475" type="curve" smooth="yes"/>
      <point x="173" y="475" type="line" smooth="yes"/>
      <point x="188" y="475"/>
      <point x="200" y="487"/>
      <point x="200" y="502" type="curve" smooth="yes"/>
    </contour>
    <contour>
      <point x="200" y="327" type="line" smooth="yes"/>
      <point x="200" y="342"/>
      <point x="188" y="354"/>
      <point x="173" y="354" type="curve" smooth="yes"/>
      <point x="97" y="354" type="line" smooth="yes"/>
      <point x="82" y="354"/>
      <point x="70" y="342"/>
      <point x="70" y="327" type="curve" smooth="yes"/>
      <point x="70" y="27" type="line" smooth="yes"/>
      <point x="70" y="12"/>
      <point x="82" y="0"/>
      <point x="97" y="0" type="curve" smooth="yes"/>
      <point x="173" y="0" type="line" smooth="yes"/>
      <point x="188" y="0"/>
      <point x="200" y="12"/>
      <point x="200" y="27" type="curve" smooth="yes"/>
    </contour>
  </outline>
</glyph>
<glyph name="section" format="1">
  <advance width="600"/>
  <unicode hex="00A7"/>
  <outline>
    <contour>
      <point x="566" y="259" type="curve" smooth="yes"/>
      <point x="566" y="356"/>
      <point x="504" y="409"/>
      <point x="366" y="448" type="curve" smooth="yes"/>
      <point x="265" y="477"/>
      <point x="224" y="497"/>
      <point x="224" y="532" type="curve" smooth="yes"/>
      <point x="224" y="570"/>
      <point x="263" y="590"/>
      <point x="310" y="590" type="curve" smooth="yes"/>
      <point x="397" y="590"/>
      <point x="388" y="538"/>
      <point x="429" y="538" type="curve" name="hr01"/>
      <point x="506" y="538" type="line"/>
      <point x="518" y="538"/>
      <point x="533" y="548"/>
      <point x="532" y="565" type="curve" smooth="yes"/>
      <point x="529" y="616"/>
      <point x="465" y="710"/>
      <point x="310" y="710" type="curve" smooth="yes"/>
      <point x="187" y="710"/>
      <point x="94" y="644"/>
      <point x="94" y="528" type="curve" smooth="yes"/>
      <point x="94" y="498"/>
      <point x="100" y="473"/>
      <point x="111" y="452" type="curve"/>
      <point x="65" y="421"/>
      <point x="34" y="378"/>
      <point x="34" y="311" type="curve" name="hr02" smooth="yes"/>
      <point x="34" y="214"/>
      <point x="96" y="161"/>
      <point x="234" y="122" type="curve" smooth="yes"/>
      <point x="335" y="93"/>
      <point x="376" y="73"/>
      <point x="376" y="38" type="curve" smooth="yes"/>
      <point x="376" y="0"/>
      <point x="337" y="-20"/>
      <point x="290" y="-20" type="curve" smooth="yes"/>
      <point x="203" y="-20"/>
      <point x="212" y="32"/>
      <point x="171" y="32" type="curve" name="hr03"/>
      <point x="94" y="32" type="line"/>
      <point x="82" y="32"/>
      <point x="67" y="22"/>
      <point x="68" y="5" type="curve" smooth="yes"/>
      <point x="71" y="-46"/>
      <point x="135" y="-140"/>
      <point x="290" y="-140" type="curve" smooth="yes"/>
      <point x="413" y="-140"/>
      <point x="506" y="-74"/>
      <point x="506" y="42" type="curve" smooth="yes"/>
      <point x="506" y="72"/>
      <point x="499" y="96"/>
      <point x="488" y="117" type="curve"/>
      <point x="535" y="148"/>
      <point x="566" y="191"/>
    </contour>
    <contour>
      <point x="164" y="314" type="curve" smooth="yes"/>
      <point x="164" y="336"/>
      <point x="176" y="353"/>
      <point x="210" y="370" type="curve"/>
      <point x="231" y="360"/>
      <point x="254" y="351"/>
      <point x="279" y="343" type="curve" smooth="yes"/>
      <point x="374" y="311"/>
      <point x="436" y="292"/>
      <point x="436" y="256" type="curve" smooth="yes"/>
      <point x="436" y="234"/>
      <point x="424" y="217"/>
      <point x="390" y="200" type="curve"/>
      <point x="369" y="209"/>
      <point x="346" y="218"/>
      <point x="321" y="227" type="curve" smooth="yes"/>
      <point x="226" y="259"/>
      <point x="164" y="278"/>
    </contour>
  </outline>
</glyph>
<glyph name="dieresis" format="1">
  <advance width="464"/>
  <unicode hex="00A8"/>
  <outline>
    <contour>
      <point x="87" y="737" type="line" name="hr00" smooth="yes"/>
      <point x="72" y="737"/>
      <point x="60" y="725"/>
      <point x="60" y="710" type="curve" smooth="yes"/>
      <point x="60" y="622" type="line" smooth="yes"/>
      <point x="60" y="607"/>
      <point x="72" y="595"/>
      <point x="87" y="595" type="curve" smooth="yes"/>
      <point x="170" y="595" type="line" smooth="yes"/>
      <point x="185" y="595"/>
      <point x="197" y="607"/>
      <point x="197" y="622" type="curve" smooth="yes"/>
      <point x="197" y="710" type="line" smooth="yes"/>
      <point x="197" y="725"/>
      <point x="185" y="737"/>
      <point x="170" y="737" type="curve" smooth="yes"/>
    </contour>
    <contour>
      <point x="294" y="737" type="line" smooth="yes"/>
      <point x="279" y="737"/>
      <point x="267" y="725"/>
      <point x="267" y="710" type="curve" smooth="yes"/>
      <point x="267" y="622" type="line" smooth="yes"/>
      <point x="267" y="607"/>
      <point x="279" y="595"/>
      <point x="294" y="595" type="curve" smooth="yes"/>
      <point x="377" y="595" type="line" smooth="yes"/>
      <point x="392" y="595"/>
      <point x="404" y="607"/>
      <point x="404" y="622" type="curve" smooth="yes"/>
      <point x="404" y="710" type="line" smooth="yes"/>
      <point x="404" y="725"/>
      <point x="392" y="737"/>
      <point x="377" y="737" type="curve" smooth="yes"/>
    </contour>
  </outline>
</glyph>
<glyph name="copyright" format="1">
  <advance width="814"/>
  <unicode hex="00A9"/>
  <outline>
    <contour>
      <point x="237" y="385" type="curve" smooth="yes"/>
      <point x="236" y="365"/>
      <point x="236" y="337"/>
      <point x="237" y="317" type="curve" smooth="yes"/>
      <point x="240" y="222"/>
      <point x="303" y="158"/>
      <point x="407" y="158" type="curve" smooth="yes"/>
      <point x="517" y="158"/>
      <point x="577" y="235"/>
      <point x="577" y="282" type="curve" smooth="yes"/>
      <point x="577" y="295"/>
      <point x="568" y="304"/>
      <point x="555" y="304" type="curve" smooth="yes"/>
      <point x="496" y="304" type="line" smooth="yes"/>
      <point x="480" y="304"/>
      <point x="475" y="291"/>
      <point x="470" y="283" type="curve" smooth="yes"/>
      <point x="452" y="254"/>
      <point x="426" y="252"/>
      <point x="407" y="252" type="curve" name="hr01" smooth="yes"/>
      <point x="363" y="252"/>
      <point x="343" y="276"/>
      <point x="341" y="317" type="curve" smooth="yes"/>
      <point x="340" y="337"/>
      <point x="340" y="365"/>
      <point x="341" y="385" type="curve" smooth="yes"/>
      <point x="343" y="426"/>
      <point x="363" y="450"/>
      <point x="407" y="450" type="curve" smooth="yes"/>
      <point x="426" y="450"/>
      <point x="452" y="448"/>
      <point x="470" y="419" type="curve" smooth="yes"/>
      <point x="475" y="411"/>
      <point x="480" y="398"/>
      <point x="496" y="398" type="curve" name="hr02" smooth="yes"/>
      <point x="555" y="398" type="line" smooth="yes"/>
      <point x="568" y="398"/>
      <point x="577" y="407"/>
      <point x="577" y="420" type="curve" smooth="yes"/>
      <point x="577" y="467"/>
      <point x="517" y="544"/>
      <point x="407" y="544" type="curve" smooth="yes"/>
      <point x="303" y="544"/>
      <point x="240" y="480"/>
    </contour>
    <contour>
      <point x="47" y="350" type="curve" smooth="yes"/>
      <point x="47" y="151"/>
      <point x="208" y="-10"/>
      <point x="407" y="-10" type="curve" smooth="yes"/>
      <point x="606" y="-10"/>
      <point x="767" y="151"/>
      <point x="767" y="350" type="curve" smooth="yes"/>
      <point x="767" y="549"/>
      <point x="606" y="710"/>
      <point x="407" y="710" type="curve" smooth="yes"/>
      <point x="208" y="710"/>
      <point x="47" y="549"/>
    </contour>
    <contour>
      <point x="132" y="350" type="curve" smooth="yes"/>
      <point x="132" y="505"/>
      <point x="252" y="630"/>
      <point x="407" y="630" type="curve" smooth="yes"/>
      <point x="562" y="630"/>
      <point x="682" y="505"/>
      <point x="682" y="350" type="curve" smooth="yes"/>
      <point x="682" y="195"/>
      <point x="562" y="70"/>
      <point x="407" y="70" type="curve" smooth="yes"/>
      <point x="252" y="70"/>
      <point x="132" y="195"/>
    </contour>
  </outline>
</glyph>
<glyph name="ordfeminine" format="1">
  <advance width="361"/>
  <unicode hex="00AA"/>
  <outline>
    <contour>
      <point x="159" y="493" type="curve" smooth="yes"/>
      <point x="139" y="493"/>
      <point x="132" y="501"/>
      <point x="132" y="513" type="curve" smooth="yes"/>
      <point x="132" y="533"/>
      <point x="151" y="541"/>
      <point x="173" y="545" type="curve" smooth="yes"/>
      <point x="217" y="552" type="line"/>
      <point x="217" y="526"/>
      <point x="197" y="493"/>
    </contour>
    <contour>
      <point x="241" y="434" type="curve"/>
      <point x="281" y="434" type="line" smooth="yes"/>
      <point x="294" y="434"/>
      <point x="303" y="443"/>
      <point x="303" y="456" type="curve" smooth="yes"/>
      <point x="303" y="600" type="line" smooth="yes"/>
      <point x="303" y="668"/>
      <point x="254" y="705"/>
      <point x="180" y="705" type="curve" smooth="yes"/>
      <point x="103" y="705"/>
      <point x="65" y="658"/>
      <point x="63" y="638" type="curve" smooth="yes"/>
      <point x="62" y="625"/>
      <point x="72" y="621"/>
      <point x="85" y="621" type="curve" smooth="yes"/>
      <point x="122" y="621" type="line" smooth="yes"/>
      <point x="144" y="621"/>
      <point x="154" y="641"/>
      <point x="180" y="641" type="curve" name="hr01" smooth="yes"/>
      <point x="209" y="641"/>
      <point x="217" y="621"/>
      <point x="217" y="610" type="curve"/>
      <point x="158" y="601" type="line" smooth="yes"/>
      <point x="87" y="590"/>
      <point x="41" y="557"/>
      <point x="41" y="509" type="curve" smooth="yes"/>
      <point x="41" y="470"/>
      <point x="77" y="429"/>
      <point x="135" y="429" type="curve" smooth="yes"/>
      <point x="171" y="429"/>
      <point x="208" y="444"/>
      <point x="219" y="463" type="curve"/>
      <point x="219" y="456" type="line" smooth="yes"/>
      <point x="219" y="443"/>
      <point x="228" y="434"/>
    </contour>
  </outline>
</glyph>
<glyph name="logicalnot" format="1">
  <advance width="576"/>
  <unicode hex="00AC"/>
  <outline>
    <contour>
      <point x="508" y="323" type="line" smooth="yes"/>
      <point x="508" y="338"/>
      <point x="496" y="350"/>
      <point x="481" y="350" type="curve" smooth="yes"/>
      <point x="86" y="350" type="line" smooth="yes"/>
      <point x="71" y="350"/>
      <point x="59" y="338"/>
      <point x="59" y="323" type="curve" smooth="yes"/>
      <point x="59" y="257" type="line" smooth="yes"/>
      <point x="59" y="242"/>
      <point x="71" y="230"/>
      <point x="86" y="230" type="curve" name="hr01" smooth="yes"/>
      <point x="378" y="230" type="line"/>
      <point x="378" y="133" type="line" smooth="yes"/>
      <point x="378" y="118"/>
      <point x="390" y="106"/>
      <point x="405" y="106" type="curve" name="hr02" smooth="yes"/>
      <point x="481" y="106" type="line" smooth="yes"/>
      <point x="496" y="106"/>
      <point x="508" y="118"/>
      <point x="508" y="133" type="curve" smooth="yes"/>
    </contour>
  </outline>
</glyph>
<glyph name="registered" format="1">
  <advance width="814"/>
  <unicode hex="00AE"/>
  <outline>
    <contour>
      <point x="344" y="168" type="line" name="hr00" smooth="yes"/>
      <point x="357" y="168"/>
      <point x="366" y="177"/>
      <point x="366" y="190" type="curve" smooth="yes"/>
      <point x="366" y="282" type="line"/>
      <point x="417" y="282" type="line"/>
      <point x="465" y="187" type="line" smooth="yes"/>
      <point x="471" y="175"/>
      <point x="480" y="168"/>
      <point x="494" y="168" type="curve" smooth="yes"/>
      <point x="551" y="168" type="line" smooth="yes"/>
      <point x="566" y="168"/>
      <point x="573" y="179"/>
      <point x="573" y="190" type="curve" smooth="yes"/>
      <point x="573" y="196"/>
      <point x="571" y="201"/>
      <point x="569" y="204" type="curve" smooth="yes"/>
      <point x="514" y="305" type="line"/>
      <point x="554" y="329"/>
      <point x="571" y="371"/>
      <point x="571" y="413" type="curve" smooth="yes"/>
      <point x="571" y="479"/>
      <point x="529" y="534"/>
      <point x="423" y="534" type="curve" smooth="yes"/>
      <point x="284" y="534" type="line" smooth="yes"/>
      <point x="271" y="534"/>
      <point x="262" y="525"/>
      <point x="262" y="512" type="curve" smooth="yes"/>
      <point x="262" y="190" type="line" smooth="yes"/>
      <point x="262" y="177"/>
      <point x="271" y="168"/>
      <point x="284" y="168" type="curve" smooth="yes"/>
    </contour>
    <contour>
      <point x="366" y="449" type="line"/>
      <point x="425" y="449" type="line" smooth="yes"/>
      <point x="457" y="449"/>
      <point x="467" y="435"/>
      <point x="467" y="413" type="curve" smooth="yes"/>
      <point x="467" y="391"/>
      <point x="457" y="377"/>
      <point x="425" y="377" type="curve" smooth="yes"/>
      <point x="366" y="377" type="line"/>
    </contour>
    <contour>
      <point x="47" y="350" type="curve" smooth="yes"/>
      <point x="47" y="151"/>
      <point x="208" y="-10"/>
      <point x="407" y="-10" type="curve" smooth="yes"/>
      <point x="606" y="-10"/>
      <point x="767" y="151"/>
      <point x="767" y="350" type="curve" smooth="yes"/>
      <point x="767" y="549"/>
      <point x="606" y="710"/>
      <point x="407" y="710" type="curve" smooth="yes"/>
      <point x="208" y="710"/>
      <point x="47" y="549"/>
    </contour>
    <contour>
      <point x="132" y="350" type="curve" smooth="yes"/>
      <point x="132" y="505"/>
      <point x="252" y="630"/>
      <point x="407" y="630" type="curve" smooth="yes"/>
      <point x="562" y="630"/>
      <point x="682" y="505"/>
      <point x="682" y="350" type="curve" smooth="yes"/>
      <point x="682" y="195"/>
      <point x="562" y="70"/>
      <point x="407" y="70" type="curve" smooth="yes"/>
      <point x="252" y="70"/>
      <point x="132" y="195"/>
    </contour>
  </outline>
</glyph>
<glyph name="macron" format="1">
  <advance width="433"/>
  <unicode hex="00AF"/>
  <outline>
    <contour>
      <point x="346" y="595" type="line" name="hr00" smooth="yes"/>
      <point x="361" y="595"/>
      <point x="373" y="607"/>
      <point x="373" y="622" type="curve" smooth="yes"/>
      <point x="373" y="688" type="line" smooth="yes"/>
      <point x="373" y="703"/>
      <point x="361" y="715"/>
      <point x="346" y="715" type="curve" smooth="yes"/>
      <point x="87" y="715" type="line" smooth="yes"/>
      <point x="72" y="715"/>
      <point x="60" y="703"/>
      <point x="60" y="688" type="curve" smooth="yes"/>
      <point x="60" y="622" type="line" smooth="yes"/>
      <point x="60" y="607"/>
      <point x="72" y="595"/>
      <point x="87" y="595" type="curve" smooth="yes"/>
    </contour>
  </outline>
</glyph>
<glyph name="degree" format="1">
  <advance width="408"/>
  <unicode hex="00B0"/>
  <outline>
    <contour>
      <point x="128" y="549" type="curve" name="hr00" smooth="yes"/>
      <point x="128" y="594"/>
      <point x="159" y="625"/>
      <point x="204" y="625" type="curve" smooth="yes"/>
      <point x="249" y="625"/>
      <point x="280" y="594"/>
      <point x="280" y="549" type="curve" smooth="yes"/>
      <point x="280" y="504"/>
      <point x="249" y="473"/>
      <point x="204" y="473" type="curve" smooth="yes"/>
      <point x="159" y="473"/>
      <point x="128" y="504"/>
    </contour>
    <contour>
      <point x="38" y="549" type="curve" smooth="yes"/>
      <point x="38" y="457"/>
      <point x="112" y="388"/>
      <point x="204" y="388" type="curve" smooth="yes"/>
      <point x="296" y="388"/>
      <point x="370" y="457"/>
      <point x="370" y="549" type="curve" smooth="yes"/>
      <point x="370" y="641"/>
      <point x="296" y="710"/>
      <point x="204" y="710" type="curve" smooth="yes"/>
      <point x="112" y="710"/>
      <point x="38" y="641"/>
    </contour>
  </outline>
</glyph>
<glyph name="acute" format="1">
  <advance width="361"/>
  <unicode hex="00B4"/>
  <outline>
    <contour>
      <point x="65" y="624" type="line" name="hr00" smooth="yes"/>
      <point x="62" y="620"/>
      <point x="60" y="616"/>
      <point x="60" y="611" type="curve" smooth="yes"/>
      <point x="60" y="601"/>
      <point x="66" y="595"/>
      <point x="76" y="595" type="curve" smooth="yes"/>
      <point x="131" y="595" type="line" smooth="yes"/>
      <point x="152" y="595"/>
      <point x="162" y="603"/>
      <point x="173" y="612" type="curve" smooth="yes"/>
      <point x="296" y="713" type="line" smooth="yes"/>
      <point x="299" y="716"/>
      <point x="301" y="720"/>
      <point x="301" y="725" type="curve" smooth="yes"/>
      <point x="301" y="737"/>
      <point x="294" y="745"/>
      <point x="282" y="745" type="curve" smooth="yes"/>
      <point x="187" y="745" type="line" smooth="yes"/>
      <point x="172" y="745"/>
      <point x="165" y="743"/>
      <point x="150" y="726" type="curve" smooth="yes"/>
    </contour>
  </outline>
</glyph>
<glyph name="mu" format="1">
  <advance width="618"/>
  <unicode hex="00B5"/>
  <outline>
    <contour>
      <point x="195" y="50" type="line"/>
      <point x="221" y="11"/>
      <point x="256" y="-10"/>
      <point x="309" y="-10" type="curve" smooth="yes"/>
      <point x="362" y="-10"/>
      <point x="397" y="11"/>
      <point x="423" y="50" type="curve"/>
      <point x="423" y="27" type="line"/>
      <point x="423" y="12"/>
      <point x="435" y="0"/>
      <point x="450" y="0" type="curve" name="hr01"/>
      <point x="526" y="0" type="line"/>
      <point x="541" y="0"/>
      <point x="553" y="12"/>
      <point x="553" y="27" type="curve"/>
      <point x="553" y="493" type="line"/>
      <point x="553" y="508"/>
      <point x="541" y="520"/>
      <point x="526" y="520" type="curve"/>
      <point x="450" y="520" type="line"/>
      <point x="435" y="520"/>
      <point x="423" y="508"/>
      <point x="423" y="493" type="curve"/>
      <point x="423" y="239" type="line"/>
      <point x="423" y="160"/>
      <point x="379" y="107"/>
      <point x="309" y="107" type="curve" name="hr02" smooth="yes"/>
      <point x="239" y="107"/>
      <point x="195" y="160"/>
      <point x="195" y="239" type="curve"/>
      <point x="195" y="493" type="line"/>
      <point x="195" y="508"/>
      <point x="183" y="520"/>
      <point x="168" y="520" type="curve"/>
      <point x="92" y="520" type="line"/>
      <point x="77" y="520"/>
      <point x="65" y="508"/>
      <point x="65" y="493" type="curve"/>
      <point x="65" y="-173" type="line"/>
      <point x="65" y="-188"/>
      <point x="77" y="-200"/>
      <point x="92" y="-200" type="curve"/>
      <point x="168" y="-200" type="line"/>
      <point x="183" y="-200"/>
      <point x="195" y="-188"/>
      <point x="195" y="-173" type="curve"/>
    </contour>
  </outline>
</glyph>
<glyph name="periodcentered" format="1">
  <advance width="332"/>
  <unicode hex="00B7"/>
  <outline>
    <contour>
      <point x="46" y="300" type="curve" name="hr00" smooth="yes"/>
      <point x="46" y="234"/>
      <point x="100" y="180"/>
      <point x="166" y="180" type="curve" smooth="yes"/>
      <point x="232" y="180"/>
      <point x="286" y="234"/>
      <point x="286" y="300" type="curve" smooth="yes"/>
      <point x="286" y="366"/>
      <point x="232" y="420"/>
      <point x="166" y="420" type="curve" smooth="yes"/>
      <point x="100" y="420"/>
      <point x="46" y="366"/>
    </contour>
  </outline>
</glyph>
<glyph name="cedilla" format="1">
  <advance width="302"/>
  <unicode hex="00B8"/>
  <outline>
    <contour>
      <point x="109" y="27" type="line"/>
      <point x="71" y="-55" type="line" smooth="yes"/>
      <point x="62" y="-74"/>
      <point x="65" y="-78"/>
      <point x="73" y="-88" type="curve" smooth="yes"/>
      <point x="89" y="-106" type="line" smooth="yes"/>
      <point x="105" y="-122"/>
      <point x="121" y="-102"/>
      <point x="143" y="-102" type="curve" smooth="yes"/>
      <point x="168" y="-102"/>
      <point x="181" y="-113"/>
      <point x="181" y="-132" type="curve" smooth="yes"/>
      <point x="181" y="-152"/>
      <point x="167" y="-164"/>
      <point x="143" y="-164" type="curve" smooth="yes"/>
      <point x="102" y="-164"/>
      <point x="102" y="-136"/>
      <point x="80" y="-156" type="curve" smooth="yes"/>
      <point x="66" y="-169" type="line" smooth="yes"/>
      <point x="44" y="-190"/>
      <point x="95" y="-220"/>
      <point x="143" y="-220" type="curve" smooth="yes"/>
      <point x="208" y="-220"/>
      <point x="242" y="-180"/>
      <point x="242" y="-132" type="curve" smooth="yes"/>
      <point x="242" y="-84"/>
      <point x="220" y="-46"/>
      <point x="166" y="-46" type="curve" smooth="yes"/>
      <point x="151" y="-46"/>
      <point x="139" y="-51"/>
      <point x="131" y="-56" type="curve"/>
      <point x="170" y="27" type="line" name="hr01"/>
    </contour>
  </outline>
</glyph>
<glyph name="ordmasculine" format="1">
  <advance width="350"/>
  <unicode hex="00BA"/>
  <outline>
    <contour>
      <point x="305" y="540" type="curve" name="hr00" smooth="yes"/>
      <point x="306" y="550"/>
      <point x="306" y="584"/>
      <point x="305" y="594" type="curve" smooth="yes"/>
      <point x="301" y="666"/>
      <point x="238" y="705"/>
      <point x="175" y="705" type="curve" smooth="yes"/>
      <point x="112" y="705"/>
      <point x="49" y="666"/>
      <point x="45" y="594" type="curve" smooth="yes"/>
      <point x="44" y="584"/>
      <point x="44" y="550"/>
      <point x="45" y="540" type="curve" smooth="yes"/>
      <point x="49" y="468"/>
      <point x="106" y="429"/>
      <point x="175" y="429" type="curve" smooth="yes"/>
      <point x="244" y="429"/>
      <point x="301" y="468"/>
    </contour>
    <contour>
      <point x="175" y="499" type="curve" smooth="yes"/>
      <point x="148" y="499"/>
      <point x="138" y="512"/>
      <point x="136" y="545" type="curve" smooth="yes"/>
      <point x="135" y="555"/>
      <point x="135" y="579"/>
      <point x="136" y="589" type="curve" smooth="yes"/>
      <point x="138" y="619"/>
      <point x="148" y="635"/>
      <point x="175" y="635" type="curve" smooth="yes"/>
      <point x="202" y="635"/>
      <point x="212" y="619"/>
      <point x="214" y="589" type="curve" smooth="yes"/>
      <point x="215" y="579"/>
      <point x="215" y="555"/>
      <point x="214" y="545" type="curve" smooth="yes"/>
      <point x="212" y="512"/>
      <point x="202" y="499"/>
    </contour>
  </outline>
</glyph>
<glyph name="guillemotright" format="1">
  <advance width="623"/>
  <unicode hex="00BB"/>
  <outline>
    <contour>
      <point x="309" y="362" type="line" name="hr00" smooth="yes"/>
      <point x="309" y="374"/>
      <point x="303" y="383"/>
      <point x="295" y="390" type="curve" smooth="yes"/>
      <point x="98" y="581" type="line" smooth="yes"/>
      <point x="92" y="586"/>
      <point x="85" y="586"/>
      <point x="84" y="586" type="curve" smooth="yes"/>
      <point x="72" y="586"/>
      <point x="62" y="576"/>
      <point x="62" y="564" type="curve" smooth="yes"/>
      <point x="62" y="475" type="line" smooth="yes"/>
      <point x="62" y="452"/>
      <point x="67" y="443"/>
      <point x="80" y="430" type="curve" smooth="yes"/>
      <point x="184" y="329" type="line"/>
      <point x="80" y="228" type="line" smooth="yes"/>
      <point x="67" y="215"/>
      <point x="62" y="206"/>
      <point x="62" y="183" type="curve" smooth="yes"/>
      <point x="62" y="94" type="line" smooth="yes"/>
      <point x="62" y="82"/>
      <point x="72" y="72"/>
      <point x="84" y="72" type="curve" smooth="yes"/>
      <point x="85" y="72"/>
      <point x="92" y="72"/>
      <point x="98" y="77" type="curve" smooth="yes"/>
      <point x="295" y="268" type="line" smooth="yes"/>
      <point x="303" y="275"/>
      <point x="309" y="284"/>
      <point x="309" y="296" type="curve" smooth="yes"/>
    </contour>
    <contour>
      <point x="580" y="362" type="line" smooth="yes"/>
      <point x="580" y="374"/>
      <point x="574" y="383"/>
      <point x="566" y="390" type="curve" smooth="yes"/>
      <point x="369" y="581" type="line" smooth="yes"/>
      <point x="363" y="586"/>
      <point x="356" y="586"/>
      <point x="355" y="586" type="curve" smooth="yes"/>
      <point x="343" y="586"/>
      <point x="333" y="576"/>
      <point x="333" y="564" type="curve" smooth="yes"/>
      <point x="333" y="475" type="line" smooth="yes"/>
      <point x="333" y="452"/>
      <point x="338" y="443"/>
      <point x="351" y="430" type="curve" smooth="yes"/>
      <point x="455" y="329" type="line"/>
      <point x="351" y="228" type="line" smooth="yes"/>
      <point x="338" y="215"/>
      <point x="333" y="206"/>
      <point x="333" y="183" type="curve" smooth="yes"/>
      <point x="333" y="94" type="line" smooth="yes"/>
      <point x="333" y="82"/>
      <point x="343" y="72"/>
      <point x="355" y="72" type="curve" smooth="yes"/>
      <point x="356" y="72"/>
      <point x="363" y="72"/>
      <point x="369" y="77" type="curve" smooth="yes"/>
      <point x="566" y="268" type="line" smooth="yes"/>
      <point x="574" y="275"/>
      <point x="580" y="284"/>
      <point x="580" y="296" type="curve" smooth="yes"/>
    </contour>
  </outline>
</glyph>
<glyph name="AE" format="1">
  <advance width="1010"/>
  <unicode hex="00C6"/>
  <outline>
    <contour>
      <point x="606" y="125" type="line" name="hr00"/>
      <point x="606" y="291" type="line"/>
      <point x="907" y="291" type="line"/>
      <point x="922" y="291"/>
      <point x="934" y="303"/>
      <point x="934" y="318" type="curve"/>
      <point x="934" y="389" type="line"/>
      <point x="934" y="404"/>
      <point x="922" y="416"/>
      <point x="907" y="416" type="curve"/>
      <point x="606" y="416" type="line"/>
      <point x="606" y="575" type="line"/>
      <point x="929" y="575" type="line"/>
      <point x="944" y="575"/>
      <point x="956" y="587"/>
      <point x="956" y="602" type="curve"/>
      <point x="956" y="673" type="line"/>
      <point x="956" y="688"/>
      <point x="944" y="700"/>
      <point x="929" y="700" type="curve"/>
      <point x="418" y="700" type="line"/>
      <point x="391" y="700"/>
      <point x="381" y="681"/>
      <point x="373" y="667" type="curve"/>
      <point x="4" y="39" type="line"/>
      <point x="1" y="34"/>
      <point x="0" y="31"/>
      <point x="0" y="27" type="curve" smooth="yes"/>
      <point x="0" y="12"/>
      <point x="12" y="0"/>
      <point x="27" y="0" type="curve"/>
      <point x="106" y="0" type="line"/>
      <point x="128" y="0"/>
      <point x="139" y="15"/>
      <point x="145" y="25" type="curve"/>
      <point x="210" y="136" type="line"/>
      <point x="471" y="136" type="line"/>
      <point x="471" y="27" type="line"/>
      <point x="471" y="12"/>
      <point x="483" y="0"/>
      <point x="498" y="0" type="curve"/>
      <point x="937" y="0" type="line"/>
      <point x="952" y="0"/>
      <point x="964" y="12"/>
      <point x="964" y="27" type="curve"/>
      <point x="964" y="98" type="line"/>
      <point x="964" y="113"/>
      <point x="952" y="125"/>
      <point x="937" y="125" type="curve"/>
    </contour>
    <contour>
      <point x="284" y="261" type="line"/>
      <point x="471" y="576" type="line"/>
      <point x="471" y="261" type="line"/>
    </contour>
  </outline>
</glyph>
<glyph name="Ccedilla" format="1">
  <advance width="684"/>
  <unicode hex="00C7"/>
  <outline>
    <contour>
      <point x="508" y="222" type="curve" name="hr00" smooth="yes"/>
      <point x="499" y="169"/>
      <point x="452" y="115"/>
      <point x="347" y="115" type="curve" smooth="yes"/>
      <point x="243" y="115"/>
      <point x="193" y="182"/>
      <point x="188" y="266" type="curve" smooth="yes"/>
      <point x="185" y="316"/>
      <point x="185" y="384"/>
      <point x="188" y="434" type="curve" smooth="yes"/>
      <point x="193" y="518"/>
      <point x="243" y="585"/>
      <point x="347" y="585" type="curve" smooth="yes"/>
      <point x="452" y="585"/>
      <point x="498" y="531"/>
      <point x="507" y="478" type="curve" smooth="yes"/>
      <point x="510" y="461"/>
      <point x="524" y="452"/>
      <point x="537" y="452" type="curve"/>
      <point x="618" y="452" type="line"/>
      <point x="633" y="452"/>
      <point x="646" y="463"/>
      <point x="645" y="479" type="curve" smooth="yes"/>
      <point x="638" y="587"/>
      <point x="554" y="710"/>
      <point x="347" y="710" type="curve" smooth="yes"/>
      <point x="163" y="710"/>
      <point x="63" y="595"/>
      <point x="53" y="434" type="curve" smooth="yes"/>
      <point x="50" y="384"/>
      <point x="50" y="316"/>
      <point x="53" y="266" type="curve" smooth="yes"/>
      <point x="62" y="122"/>
      <point x="143" y="15"/>
      <point x="291" y="-6" type="curve"/>
      <point x="269" y="-55" type="line"/>
      <point x="260" y="-74"/>
      <point x="263" y="-78"/>
      <point x="271" y="-88" type="curve"/>
      <point x="287" y="-106" type="line"/>
      <point x="303" y="-122"/>
      <point x="319" y="-102"/>
      <point x="341" y="-102" type="curve" smooth="yes"/>
      <point x="366" y="-102"/>
      <point x="379" y="-113"/>
      <point x="379" y="-132" type="curve" smooth="yes"/>
      <point x="379" y="-152"/>
      <point x="365" y="-164"/>
      <point x="341" y="-164" type="curve" smooth="yes"/>
      <point x="300" y="-164"/>
      <point x="300" y="-136"/>
      <point x="278" y="-156" type="curve"/>
      <point x="264" y="-169" type="line"/>
      <point x="242" y="-190"/>
      <point x="293" y="-220"/>
      <point x="341" y="-220" type="curve" smooth="yes"/>
      <point x="406" y="-220"/>
      <point x="440" y="-180"/>
      <point x="440" y="-132" type="curve" smooth="yes"/>
      <point x="440" y="-84"/>
      <point x="418" y="-46"/>
      <point x="364" y="-46" type="curve" smooth="yes"/>
      <point x="349" y="-46"/>
      <point x="337" y="-51"/>
      <point x="329" y="-56" type="curve"/>
      <point x="350" y="-10" type="line"/>
      <point x="555" y="-8"/>
      <point x="638" y="113"/>
      <point x="645" y="221" type="curve" smooth="yes"/>
      <point x="646" y="237"/>
      <point x="633" y="248"/>
      <point x="618" y="248" type="curve"/>
      <point x="537" y="248" type="line"/>
      <point x="524" y="248"/>
      <point x="511" y="239"/>
    </contour>
  </outline>
</glyph>
<glyph name="multiply" format="1">
  <advance width="579"/>
  <unicode hex="00D7"/>
  <outline>
    <contour>
      <point x="57" y="192" type="line"/>
      <point x="47" y="182"/>
      <point x="47" y="165"/>
      <point x="57" y="154" type="curve"/>
      <point x="111" y="101" type="line"/>
      <point x="122" y="90"/>
      <point x="139" y="90"/>
      <point x="149" y="101" type="curve"/>
      <point x="289" y="241" type="line"/>
      <point x="429" y="101" type="line"/>
      <point x="439" y="91"/>
      <point x="456" y="91"/>
      <point x="467" y="101" type="curve"/>
      <point x="520" y="155" type="line"/>
      <point x="531" y="166"/>
      <point x="531" y="183"/>
      <point x="520" y="193" type="curve"/>
      <point x="380" y="332" type="line"/>
      <point x="520" y="472" type="line"/>
      <point x="531" y="482"/>
      <point x="531" y="499"/>
      <point x="520" y="510" type="curve"/>
      <point x="467" y="564" type="line"/>
      <point x="456" y="574"/>
      <point x="439" y="574"/>
      <point x="429" y="564" type="curve"/>
      <point x="289" y="424" type="line"/>
      <point x="149" y="564" type="line"/>
      <point x="139" y="575"/>
      <point x="122" y="575"/>
      <point x="111" y="564" type="curve"/>
      <point x="57" y="511" type="line"/>
      <point x="47" y="500"/>
      <point x="47" y="483"/>
      <point x="57" y="473" type="curve"/>
      <point x="197" y="332" type="line"/>
    </contour>
  </outline>
</glyph>
<glyph name="Oslash" format="1">
  <advance width="728"/>
  <unicode hex="00D8"/>
  <outline>
    <contour>
      <point x="69" y="439" type="curve" name="hr00"/>
      <point x="66" y="397"/>
      <point x="66" y="336"/>
      <point x="68" y="287" type="curve"/>
      <point x="36" y="275" type="line" smooth="yes"/>
      <point x="20" y="269"/>
      <point x="14" y="260"/>
      <point x="14" y="242" type="curve" smooth="yes"/>
      <point x="14" y="194" type="line" smooth="yes"/>
      <point x="14" y="182"/>
      <point x="23" y="173"/>
      <point x="35" y="173" type="curve" smooth="yes"/>
      <point x="37" y="173"/>
      <point x="41" y="174"/>
      <point x="46" y="176" type="curve" smooth="yes"/>
      <point x="79" y="189" type="line"/>
      <point x="109" y="74"/>
      <point x="199" y="-10"/>
      <point x="363" y="-10" type="curve" smooth="yes"/>
      <point x="559" y="-10"/>
      <point x="650" y="110"/>
      <point x="657" y="260" type="curve"/>
      <point x="658" y="303"/>
      <point x="659" y="366"/>
      <point x="658" y="415" type="curve"/>
      <point x="690" y="428" type="line" smooth="yes"/>
      <point x="706" y="434"/>
      <point x="712" y="443"/>
      <point x="712" y="461" type="curve" smooth="yes"/>
      <point x="712" y="509" type="line" smooth="yes"/>
      <point x="712" y="521"/>
      <point x="703" y="530"/>
      <point x="691" y="530" type="curve" smooth="yes"/>
      <point x="689" y="530"/>
      <point x="685" y="529"/>
      <point x="680" y="527" type="curve" smooth="yes"/>
      <point x="645" y="513" type="line"/>
      <point x="615" y="627"/>
      <point x="525" y="710"/>
      <point x="363" y="710" type="curve" smooth="yes"/>
      <point x="167" y="710"/>
      <point x="77" y="589"/>
    </contour>
    <contour>
      <point x="522" y="265" type="curve" smooth="yes"/>
      <point x="517" y="169"/>
      <point x="456" y="115"/>
      <point x="363" y="115" type="curve" smooth="yes"/>
      <point x="279" y="115"/>
      <point x="221" y="159"/>
      <point x="207" y="239" type="curve"/>
      <point x="524" y="363" type="line"/>
      <point x="525" y="329"/>
      <point x="523" y="294"/>
    </contour>
    <contour>
      <point x="204" y="434" type="curve" smooth="yes"/>
      <point x="209" y="530"/>
      <point x="270" y="585"/>
      <point x="363" y="585" type="curve" smooth="yes"/>
      <point x="446" y="585"/>
      <point x="503" y="541"/>
      <point x="518" y="464" type="curve"/>
      <point x="202" y="340" type="line"/>
      <point x="202" y="373"/>
      <point x="202" y="406"/>
    </contour>
  </outline>
</glyph>
<glyph name="Thorn" format="1">
  <advance width="662"/>
  <unicode hex="00DE"/>
  <outline>
    <contour>
      <point x="213" y="673" type="line" name="hr00"/>
      <point x="213" y="688"/>
      <point x="201" y="700"/>
      <point x="186" y="700" type="curve"/>
      <point x="105" y="700" type="line"/>
      <point x="90" y="700"/>
      <point x="78" y="688"/>
      <point x="78" y="673" type="curve"/>
      <point x="78" y="27" type="line"/>
      <point x="78" y="12"/>
      <point x="90" y="0"/>
      <point x="105" y="0" type="curve"/>
      <point x="186" y="0" type="line"/>
      <point x="201" y="0"/>
      <point x="213" y="12"/>
      <point x="213" y="27" type="curve"/>
      <point x="213" y="126" type="line"/>
      <point x="373" y="126" type="line"/>
      <point x="533" y="126"/>
      <point x="628" y="206"/>
      <point x="628" y="352" type="curve" smooth="yes"/>
      <point x="628" y="498"/>
      <point x="533" y="576"/>
      <point x="373" y="576" type="curve"/>
      <point x="213" y="576" type="line"/>
    </contour>
    <contour>
      <point x="213" y="451" type="line"/>
      <point x="368" y="451" type="line"/>
      <point x="444" y="451"/>
      <point x="493" y="427"/>
      <point x="493" y="352" type="curve" smooth="yes"/>
      <point x="493" y="277"/>
      <point x="444" y="251"/>
      <point x="368" y="251" type="curve"/>
      <point x="213" y="251" type="line"/>
    </contour>
  </outline>
</glyph>
<glyph name="germandbls" format="1">
  <advance width="618"/>
  <unicode hex="00DF"/>
  <outline>
    <contour>
      <point x="259" y="93" type="curve" name="hr00"/>
      <point x="259" y="27" type="line" smooth="yes"/>
      <point x="259" y="12"/>
      <point x="271" y="0"/>
      <point x="286" y="0" type="curve" smooth="yes"/>
      <point x="320" y="0" type="line" smooth="yes"/>
      <point x="506" y="0"/>
      <point x="571" y="117"/>
      <point x="571" y="213" type="curve" smooth="yes"/>
      <point x="571" y="288"/>
      <point x="539" y="338"/>
      <point x="500" y="369" type="curve"/>
      <point x="530" y="397"/>
      <point x="561" y="437"/>
      <point x="561" y="508" type="curve" smooth="yes"/>
      <point x="561" y="614"/>
      <point x="474" y="710"/>
      <point x="314" y="710" type="curve" smooth="yes"/>
      <point x="154" y="710"/>
      <point x="69" y="615"/>
      <point x="69" y="451" type="curve" smooth="yes"/>
      <point x="69" y="27" type="line" smooth="yes"/>
      <point x="69" y="12"/>
      <point x="81" y="0"/>
      <point x="96" y="0" type="curve" smooth="yes"/>
      <point x="172" y="0" type="line" smooth="yes"/>
      <point x="187" y="0"/>
      <point x="199" y="12"/>
      <point x="199" y="27" type="curve" smooth="yes"/>
      <point x="199" y="451" type="line" smooth="yes"/>
      <point x="199" y="560"/>
      <point x="244" y="590"/>
      <point x="314" y="590" type="curve" smooth="yes"/>
      <point x="384" y="590"/>
      <point x="431" y="561"/>
      <point x="431" y="508" type="curve" smooth="yes"/>
      <point x="431" y="447"/>
      <point x="384" y="427"/>
      <point x="314" y="427" type="curve" smooth="yes"/>
      <point x="281" y="427" type="line" smooth="yes"/>
      <point x="268" y="427"/>
      <point x="259" y="418"/>
      <point x="259" y="405" type="curve" smooth="yes"/>
      <point x="259" y="329" type="line" smooth="yes"/>
      <point x="259" y="316"/>
      <point x="268" y="307"/>
      <point x="281" y="307" type="curve" smooth="yes"/>
      <point x="320" y="307" type="line" smooth="yes"/>
      <point x="393" y="307"/>
      <point x="441" y="275"/>
      <point x="441" y="213" type="curve" smooth="yes"/>
      <point x="441" y="148"/>
      <point x="388" y="120"/>
      <point x="320" y="120" type="curve" smooth="yes"/>
      <point x="286" y="120" type="line" smooth="yes"/>
      <point x="271" y="120"/>
      <point x="259" y="108"/>
    </contour>
  </outline>
</glyph>
<glyph name="ae" format="1">
  <advance width="908"/>
  <unicode hex="00E6"/>
  <outline>
    <contour>
      <point x="69" y="392" type="curve" smooth="yes"/>
      <point x="67" y="379"/>
      <point x="78" y="370"/>
      <point x="91" y="370" type="curve" smooth="yes"/>
      <point x="184" y="370" type="line" smooth="yes"/>
      <point x="196" y="370"/>
      <point x="205" y="373"/>
      <point x="217" y="384" type="curve" smooth="yes"/>
      <point x="234" y="400"/>
      <point x="250" y="410"/>
      <point x="283" y="410" type="curve" name="hr01" smooth="yes"/>
      <point x="336" y="410"/>
      <point x="377" y="389"/>
      <point x="377" y="335" type="curve"/>
      <point x="214" y="307" type="line" smooth="yes"/>
      <point x="105" y="288"/>
      <point x="34" y="238"/>
      <point x="34" y="146" type="curve" smooth="yes"/>
      <point x="34" y="56"/>
      <point x="101" y="-10"/>
      <point x="216" y="-10" type="curve" smooth="yes"/>
      <point x="302" y="-10"/>
      <point x="374" y="14"/>
      <point x="432" y="79" type="curve"/>
      <point x="474" y="23"/>
      <point x="540" y="-10"/>
      <point x="622" y="-10" type="curve" smooth="yes"/>
      <point x="772" y="-10"/>
      <point x="847" y="94"/>
      <point x="852" y="125" type="curve" smooth="yes"/>
      <point x="854" y="138"/>
      <point x="843" y="147"/>
      <point x="830" y="147" type="curve" name="hr02" smooth="yes"/>
      <point x="737" y="147" type="line" smooth="yes"/>
      <point x="721" y="147"/>
      <point x="719" y="146"/>
      <point x="704" y="133" type="curve" smooth="yes"/>
      <point x="688" y="119"/>
      <point x="664" y="110"/>
      <point x="622" y="110" type="curve" name="hr03" smooth="yes"/>
      <point x="563" y="110"/>
      <point x="507" y="144"/>
      <point x="507" y="204" type="curve"/>
      <point x="841" y="204" type="line" smooth="yes"/>
      <point x="856" y="204"/>
      <point x="868" y="216"/>
      <point x="868" y="231" type="curve" smooth="yes"/>
      <point x="868" y="276" type="line" smooth="yes"/>
      <point x="868" y="413"/>
      <point x="772" y="530"/>
      <point x="622" y="530" type="curve" smooth="yes"/>
      <point x="555" y="530"/>
      <point x="498" y="506"/>
      <point x="457" y="466" type="curve"/>
      <point x="417" y="508"/>
      <point x="357" y="530"/>
      <point x="283" y="530" type="curve" smooth="yes"/>
      <point x="147" y="530"/>
      <point x="79" y="448"/>
    </contour>
    <contour>
      <point x="236" y="110" type="curve" smooth="yes"/>
      <point x="197" y="110"/>
      <point x="164" y="123"/>
      <point x="164" y="151" type="curve" smooth="yes"/>
      <point x="164" y="181"/>
      <point x="187" y="199"/>
      <point x="241" y="208" type="curve" smooth="yes"/>
      <point x="377" y="232" type="line"/>
      <point x="377" y="222" type="line" smooth="yes"/>
      <point x="377" y="166"/>
      <point x="328" y="110"/>
    </contour>
    <contour>
      <point x="622" y="410" type="curve" name="hr04" smooth="yes"/>
      <point x="707" y="410"/>
      <point x="728" y="359"/>
      <point x="733" y="318" type="curve"/>
      <point x="507" y="318" type="line"/>
      <point x="512" y="359"/>
      <point x="546" y="410"/>
    </contour>
  </outline>
</glyph>
<glyph name="ccedilla" format="1">
  <advance width="577"/>
  <unicode hex="00E7"/>
  <outline>
    <contour>
      <point x="174" y="295" type="curve" smooth="yes"/>
      <point x="182" y="378"/>
      <point x="238" y="410"/>
      <point x="293" y="410" type="curve" smooth="yes"/>
      <point x="359" y="410"/>
      <point x="380" y="387"/>
      <point x="401" y="356" type="curve" smooth="yes"/>
      <point x="409" y="344"/>
      <point x="419" y="329"/>
      <point x="434" y="329" type="curve" name="hr01"/>
      <point x="510" y="329" type="line"/>
      <point x="525" y="329"/>
      <point x="538" y="341"/>
      <point x="537" y="356" type="curve" smooth="yes"/>
      <point x="534" y="413"/>
      <point x="465" y="530"/>
      <point x="293" y="530" type="curve" smooth="yes"/>
      <point x="147" y="530"/>
      <point x="53" y="423"/>
      <point x="44" y="300" type="curve" smooth="yes"/>
      <point x="42" y="275"/>
      <point x="42" y="243"/>
      <point x="44" y="219" type="curve" smooth="yes"/>
      <point x="53" y="112"/>
      <point x="125" y="17"/>
      <point x="242" y="-5" type="curve"/>
      <point x="219" y="-55" type="line"/>
      <point x="210" y="-74"/>
      <point x="213" y="-78"/>
      <point x="221" y="-88" type="curve"/>
      <point x="237" y="-106" type="line"/>
      <point x="253" y="-122"/>
      <point x="269" y="-102"/>
      <point x="291" y="-102" type="curve" smooth="yes"/>
      <point x="316" y="-102"/>
      <point x="329" y="-113"/>
      <point x="329" y="-132" type="curve" smooth="yes"/>
      <point x="329" y="-152"/>
      <point x="315" y="-164"/>
      <point x="291" y="-164" type="curve" smooth="yes"/>
      <point x="250" y="-164"/>
      <point x="250" y="-136"/>
      <point x="228" y="-156" type="curve"/>
      <point x="214" y="-169" type="line"/>
      <point x="192" y="-190"/>
      <point x="243" y="-220"/>
      <point x="291" y="-220" type="curve" smooth="yes"/>
      <point x="356" y="-220"/>
      <point x="390" y="-180"/>
      <point x="390" y="-132" type="curve" smooth="yes"/>
      <point x="390" y="-84"/>
      <point x="368" y="-46"/>
      <point x="314" y="-46" type="curve" smooth="yes"/>
      <point x="299" y="-46"/>
      <point x="287" y="-51"/>
      <point x="279" y="-56" type="curve"/>
      <point x="300" y="-10" type="line"/>
      <point x="467" y="-6"/>
      <point x="534" y="108"/>
      <point x="537" y="164" type="curve" smooth="yes"/>
      <point x="538" y="179"/>
      <point x="525" y="191"/>
      <point x="510" y="191" type="curve"/>
      <point x="434" y="191" type="line"/>
      <point x="419" y="191"/>
      <point x="409" y="176"/>
      <point x="401" y="164" type="curve" smooth="yes"/>
      <point x="380" y="133"/>
      <point x="359" y="110"/>
      <point x="293" y="110" type="curve" name="hr02" smooth="yes"/>
      <point x="238" y="110"/>
      <point x="182" y="142"/>
      <point x="174" y="225" type="curve" smooth="yes"/>
      <point x="172" y="245"/>
      <point x="172" y="275"/>
    </contour>
  </outline>
</glyph>
<glyph name="divide" format="1">
  <advance width="523"/>
  <unicode hex="00F7"/>
  <outline>
    <contour>
      <point x="215" y="201" type="line" name="hr00" smooth="yes"/>
      <point x="200" y="201"/>
      <point x="188" y="189"/>
      <point x="188" y="174" type="curve" smooth="yes"/>
      <point x="188" y="76" type="line" smooth="yes"/>
      <point x="188" y="61"/>
      <point x="200" y="49"/>
      <point x="215" y="49" type="curve" smooth="yes"/>
      <point x="308" y="49" type="line" smooth="yes"/>
      <point x="323" y="49"/>
      <point x="335" y="61"/>
      <point x="335" y="76" type="curve" smooth="yes"/>
      <point x="335" y="174" type="line" smooth="yes"/>
      <point x="335" y="189"/>
      <point x="323" y="201"/>
      <point x="308" y="201" type="curve" smooth="yes"/>
    </contour>
    <contour>
      <point x="215" y="551" type="line" smooth="yes"/>
      <point x="200" y="551"/>
      <point x="188" y="539"/>
      <point x="188" y="524" type="curve" smooth="yes"/>
      <point x="188" y="426" type="line" smooth="yes"/>
      <point x="188" y="411"/>
      <point x="200" y="399"/>
      <point x="215" y="399" type="curve" smooth="yes"/>
      <point x="308" y="399" type="line" smooth="yes"/>
      <point x="323" y="399"/>
      <point x="335" y="411"/>
      <point x="335" y="426" type="curve" smooth="yes"/>
      <point x="335" y="524" type="line" smooth="yes"/>
      <point x="335" y="539"/>
      <point x="323" y="551"/>
      <point x="308" y="551" type="curve" smooth="yes"/>
    </contour>
    <contour>
      <point x="454" y="241" type="line" smooth="yes"/>
      <point x="469" y="241"/>
      <point x="481" y="253"/>
      <point x="481" y="268" type="curve" smooth="yes"/>
      <point x="481" y="334" type="line" smooth="yes"/>
      <point x="481" y="349"/>
      <point x="469" y="361"/>
      <point x="454" y="361" type="curve" smooth="yes"/>
      <point x="69" y="361" type="line" smooth="yes"/>
      <point x="54" y="361"/>
      <point x="42" y="349"/>
      <point x="42" y="334" type="curve" smooth="yes"/>
      <point x="42" y="268" type="line" smooth="yes"/>
      <point x="42" y="253"/>
      <point x="54" y="241"/>
      <point x="69" y="241" type="curve" smooth="yes"/>
    </contour>
  </outline>
</glyph>
<glyph name="oslash" format="1">
  <advance width="630"/>
  <unicode hex="00F8"/>
  <outline>
    <contour>
      <point x="315" y="530" type="curve" name="hr00" smooth="yes"/>
      <point x="169" y="530"/>
      <point x="73" y="433"/>
      <point x="64" y="310" type="curve" smooth="yes"/>
      <point x="62" y="286"/>
      <point x="62" y="239"/>
      <point x="63" y="213" type="curve"/>
      <point x="36" y="203" type="line" smooth="yes"/>
      <point x="20" y="197"/>
      <point x="14" y="188"/>
      <point x="14" y="170" type="curve" smooth="yes"/>
      <point x="14" y="122" type="line" smooth="yes"/>
      <point x="14" y="110"/>
      <point x="23" y="101"/>
      <point x="35" y="101" type="curve" smooth="yes"/>
      <point x="37" y="101"/>
      <point x="41" y="102"/>
      <point x="46" y="104" type="curve" smooth="yes"/>
      <point x="88" y="120" type="line"/>
      <point x="127" y="43"/>
      <point x="207" y="-10"/>
      <point x="315" y="-10" type="curve" smooth="yes"/>
      <point x="461" y="-10"/>
      <point x="556" y="87"/>
      <point x="566" y="209" type="curve" smooth="yes"/>
      <point x="568" y="232"/>
      <point x="568" y="281"/>
      <point x="566" y="307" type="curve"/>
      <point x="593" y="318" type="line" smooth="yes"/>
      <point x="609" y="324"/>
      <point x="615" y="333"/>
      <point x="615" y="351" type="curve" smooth="yes"/>
      <point x="615" y="399" type="line" smooth="yes"/>
      <point x="615" y="411"/>
      <point x="606" y="420"/>
      <point x="594" y="420" type="curve" smooth="yes"/>
      <point x="592" y="420"/>
      <point x="588" y="419"/>
      <point x="583" y="417" type="curve" smooth="yes"/>
      <point x="541" y="400" type="line"/>
      <point x="503" y="477"/>
      <point x="422" y="530"/>
    </contour>
    <contour>
      <point x="436" y="215" type="curve" smooth="yes"/>
      <point x="428" y="132"/>
      <point x="370" y="110"/>
      <point x="315" y="110" type="curve" smooth="yes"/>
      <point x="272" y="110"/>
      <point x="228" y="123"/>
      <point x="207" y="167" type="curve"/>
      <point x="437" y="257" type="line"/>
      <point x="437" y="240"/>
      <point x="437" y="224"/>
    </contour>
    <contour>
      <point x="194" y="305" type="curve" smooth="yes"/>
      <point x="202" y="388"/>
      <point x="260" y="410"/>
      <point x="315" y="410" type="curve" smooth="yes"/>
      <point x="357" y="410"/>
      <point x="400" y="397"/>
      <point x="422" y="354" type="curve"/>
      <point x="192" y="264" type="line"/>
      <point x="192" y="280"/>
      <point x="193" y="296"/>
    </contour>
  </outline>
</glyph>
<glyph name="thorn" format="1">
  <advance width="620"/>
  <unicode hex="00FE"/>
  <outline>
    <contour>
      <point x="351" y="-10" type="curve" name="hr00" smooth="yes"/>
      <point x="485" y="-10"/>
      <point x="568" y="102"/>
      <point x="574" y="225" type="curve" smooth="yes"/>
      <point x="575" y="245"/>
      <point x="575" y="275"/>
      <point x="574" y="295" type="curve" smooth="yes"/>
      <point x="568" y="418"/>
      <point x="485" y="530"/>
      <point x="351" y="530" type="curve" smooth="yes"/>
      <point x="268" y="530"/>
      <point x="222" y="495"/>
      <point x="200" y="470" type="curve"/>
      <point x="200" y="683" type="line" smooth="yes"/>
      <point x="200" y="698"/>
      <point x="188" y="710"/>
      <point x="173" y="710" type="curve" smooth="yes"/>
      <point x="97" y="710" type="line" smooth="yes"/>
      <point x="82" y="710"/>
      <point x="70" y="698"/>
      <point x="70" y="683" type="curve" smooth="yes"/>
      <point x="70" y="-163" type="line" smooth="yes"/>
      <point x="70" y="-178"/>
      <point x="82" y="-190"/>
      <point x="97" y="-190" type="curve" smooth="yes"/>
      <point x="173" y="-190" type="line" smooth="yes"/>
      <point x="188" y="-190"/>
      <point x="200" y="-178"/>
      <point x="200" y="-163" type="curve" smooth="yes"/>
      <point x="200" y="50" type="line"/>
      <point x="222" y="26"/>
      <point x="268" y="-10"/>
    </contour>
    <contour>
      <point x="444" y="232" type="curve" smooth="yes"/>
      <point x="436" y="146"/>
      <point x="386" y="110"/>
      <point x="321" y="110" type="curve" smooth="yes"/>
      <point x="256" y="110"/>
      <point x="207" y="153"/>
      <point x="200" y="222" type="curve" smooth="yes"/>
      <point x="198" y="242"/>
      <point x="198" y="278"/>
      <point x="200" y="298" type="curve" smooth="yes"/>
      <point x="207" y="370"/>
      <point x="256" y="410"/>
      <point x="321" y="410" type="curve" smooth="yes"/>
      <point x="386" y="410"/>
      <point x="436" y="374"/>
      <point x="444" y="288" type="curve" smooth="yes"/>
      <point x="446" y="268"/>
      <point x="446" y="252"/>
    </contour>
  </outline>
</glyph>
<glyph name="Aogonek" format="1">
  <advance width="704"/>
  <unicode hex="0104"/>
  <outline>
    <contour>
      <point x="297" y="700" type="line"/>
      <point x="276" y="700"/>
      <point x="267" y="688"/>
      <point x="259" y="666" type="curve"/>
      <point x="14" y="34" type="line"/>
      <point x="13" y="31"/>
      <point x="13" y="29"/>
      <point x="13" y="27" type="curve" smooth="yes"/>
      <point x="13" y="12"/>
      <point x="25" y="0"/>
      <point x="40" y="0" type="curve"/>
      <point x="112" y="0" type="line"/>
      <point x="138" y="0"/>
      <point x="147" y="14"/>
      <point x="151" y="25" type="curve"/>
      <point x="194" y="136" type="line"/>
      <point x="510" y="136" type="line"/>
      <point x="541" y="54" type="line"/>
      <point x="512" y="27"/>
      <point x="495" y="-14"/>
      <point x="495" y="-64" type="curve" smooth="yes"/>
      <point x="495" y="-159"/>
      <point x="557" y="-220"/>
      <point x="648" y="-220" type="curve"/>
      <point x="667" y="-220" type="line"/>
      <point x="680" y="-220"/>
      <point x="689" y="-211"/>
      <point x="689" y="-198" type="curve"/>
      <point x="689" y="-150" type="line"/>
      <point x="689" y="-137"/>
      <point x="680" y="-128"/>
      <point x="667" y="-128" type="curve"/>
      <point x="652" y="-128" type="line"/>
      <point x="618" y="-128"/>
      <point x="594" y="-105"/>
      <point x="594" y="-64" type="curve" name="hr01" smooth="yes"/>
      <point x="594" y="-23"/>
      <point x="618" y="0"/>
      <point x="652" y="0" type="curve"/>
      <point x="664" y="0" type="line"/>
      <point x="679" y="0"/>
      <point x="691" y="12"/>
      <point x="691" y="27" type="curve" smooth="yes"/>
      <point x="691" y="29"/>
      <point x="691" y="31"/>
      <point x="690" y="34" type="curve"/>
      <point x="445" y="666" type="line"/>
      <point x="437" y="688"/>
      <point x="428" y="700"/>
      <point x="407" y="700" type="curve"/>
    </contour>
    <contour>
      <point x="242" y="261" type="line"/>
      <point x="352" y="546" type="line"/>
      <point x="462" y="261" type="line"/>
    </contour>
  </outline>
</glyph>
<glyph name="aogonek" format="1">
  <advance width="571"/>
  <unicode hex="0105"/>
  <outline>
    <contour>
      <point x="69" y="392" type="curve" smooth="yes"/>
      <point x="67" y="379"/>
      <point x="78" y="370"/>
      <point x="91" y="370" type="curve"/>
      <point x="184" y="370" type="line"/>
      <point x="196" y="370"/>
      <point x="205" y="373"/>
      <point x="217" y="384" type="curve" smooth="yes"/>
      <point x="234" y="400"/>
      <point x="250" y="410"/>
      <point x="283" y="410" type="curve" name="hr01" smooth="yes"/>
      <point x="336" y="410"/>
      <point x="377" y="389"/>
      <point x="377" y="335" type="curve"/>
      <point x="214" y="307" type="line"/>
      <point x="105" y="288"/>
      <point x="34" y="238"/>
      <point x="34" y="146" type="curve" smooth="yes"/>
      <point x="34" y="56"/>
      <point x="101" y="-10"/>
      <point x="216" y="-10" type="curve" smooth="yes"/>
      <point x="297" y="-10"/>
      <point x="349" y="21"/>
      <point x="377" y="60" type="curve"/>
      <point x="377" y="27" type="line"/>
      <point x="346" y="2"/>
      <point x="324" y="-29"/>
      <point x="318" y="-64" type="curve" smooth="yes"/>
      <point x="302" y="-158"/>
      <point x="375" y="-220"/>
      <point x="466" y="-220" type="curve"/>
      <point x="485" y="-220" type="line"/>
      <point x="498" y="-220"/>
      <point x="507" y="-211"/>
      <point x="507" y="-198" type="curve"/>
      <point x="507" y="-150" type="line"/>
      <point x="507" y="-137"/>
      <point x="498" y="-128"/>
      <point x="485" y="-128" type="curve"/>
      <point x="470" y="-128" type="line"/>
      <point x="436" y="-128"/>
      <point x="412" y="-105"/>
      <point x="412" y="-64" type="curve" smooth="yes"/>
      <point x="412" y="-25"/>
      <point x="433" y="-2"/>
      <point x="465" y="0" type="curve" name="hr02"/>
      <point x="480" y="0" type="line"/>
      <point x="495" y="0"/>
      <point x="507" y="12"/>
      <point x="507" y="27" type="curve"/>
      <point x="507" y="321" type="line"/>
      <point x="507" y="458"/>
      <point x="418" y="530"/>
      <point x="283" y="530" type="curve" smooth="yes"/>
      <point x="147" y="530"/>
      <point x="79" y="448"/>
    </contour>
    <contour>
      <point x="236" y="110" type="curve" name="hr03" smooth="yes"/>
      <point x="197" y="110"/>
      <point x="164" y="123"/>
      <point x="164" y="151" type="curve" smooth="yes"/>
      <point x="164" y="181"/>
      <point x="187" y="199"/>
      <point x="241" y="208" type="curve"/>
      <point x="377" y="232" type="line"/>
      <point x="377" y="222" type="line"/>
      <point x="377" y="166"/>
      <point x="328" y="110"/>
    </contour>
  </outline>
</glyph>
<glyph name="Dcroat" format="1">
  <advance width="727"/>
  <unicode hex="0110"/>
  <outline>
    <contour>
      <point x="375" y="700" type="curve" name="hr00"/>
      <point x="128" y="700" type="line" smooth="yes"/>
      <point x="113" y="700"/>
      <point x="101" y="688"/>
      <point x="101" y="673" type="curve" smooth="yes"/>
      <point x="101" y="413" type="line"/>
      <point x="48" y="413" type="line" smooth="yes"/>
      <point x="33" y="413"/>
      <point x="21" y="401"/>
      <point x="21" y="386" type="curve" smooth="yes"/>
      <point x="21" y="323" type="line" smooth="yes"/>
      <point x="21" y="308"/>
      <point x="33" y="296"/>
      <point x="48" y="296" type="curve" smooth="yes"/>
      <point x="101" y="296" type="line"/>
      <point x="101" y="27" type="line" smooth="yes"/>
      <point x="101" y="12"/>
      <point x="113" y="0"/>
      <point x="128" y="0" type="curve" smooth="yes"/>
      <point x="380" y="0" type="line" smooth="yes"/>
      <point x="572" y="0"/>
      <point x="664" y="107"/>
      <point x="674" y="276" type="curve" smooth="yes"/>
      <point x="677" y="326"/>
      <point x="677" y="374"/>
      <point x="674" y="424" type="curve" smooth="yes"/>
      <point x="664" y="593"/>
      <point x="572" y="700"/>
    </contour>
    <contour>
      <point x="539" y="424" type="curve" smooth="yes"/>
      <point x="542" y="374"/>
      <point x="542" y="326"/>
      <point x="539" y="276" type="curve" smooth="yes"/>
      <point x="534" y="190"/>
      <point x="485" y="125"/>
      <point x="375" y="125" type="curve" smooth="yes"/>
      <point x="236" y="125" type="line"/>
      <point x="236" y="296" type="line"/>
      <point x="343" y="296" type="line" smooth="yes"/>
      <point x="358" y="296"/>
      <point x="370" y="308"/>
      <point x="370" y="323" type="curve" smooth="yes"/>
      <point x="370" y="386" type="line" smooth="yes"/>
      <point x="370" y="401"/>
      <point x="358" y="413"/>
      <point x="343" y="413" type="curve" smooth="yes"/>
      <point x="236" y="413" type="line"/>
      <point x="236" y="575" type="line"/>
      <point x="370" y="575" type="line" smooth="yes"/>
      <point x="485" y="575"/>
      <point x="534" y="510"/>
    </contour>
  </outline>
</glyph>
<glyph name="dcroat" format="1">
  <advance width="619"/>
  <unicode hex="0111"/>
  <outline>
    <contour>
      <point x="269" y="530" type="curve" smooth="yes"/>
      <point x="135" y="530"/>
      <point x="52" y="418"/>
      <point x="46" y="295" type="curve" smooth="yes"/>
      <point x="45" y="275"/>
      <point x="45" y="245"/>
      <point x="46" y="225" type="curve" smooth="yes"/>
      <point x="52" y="102"/>
      <point x="135" y="-10"/>
      <point x="269" y="-10" type="curve" smooth="yes"/>
      <point x="352" y="-10"/>
      <point x="398" y="25"/>
      <point x="420" y="50" type="curve"/>
      <point x="420" y="27" type="line" smooth="yes"/>
      <point x="420" y="12"/>
      <point x="432" y="0"/>
      <point x="447" y="0" type="curve" name="hr01" smooth="yes"/>
      <point x="523" y="0" type="line" smooth="yes"/>
      <point x="538" y="0"/>
      <point x="550" y="12"/>
      <point x="550" y="27" type="curve" smooth="yes"/>
      <point x="550" y="554" type="line"/>
      <point x="603" y="554" type="line" smooth="yes"/>
      <point x="618" y="554"/>
      <point x="630" y="566"/>
      <point x="630" y="581" type="curve" smooth="yes"/>
      <point x="630" y="617" type="line" smooth="yes"/>
      <point x="630" y="632"/>
      <point x="618" y="644"/>
      <point x="603" y="644" type="curve" smooth="yes"/>
      <point x="550" y="644" type="line"/>
      <point x="550" y="683" type="line" smooth="yes"/>
      <point x="550" y="698"/>
      <point x="538" y="710"/>
      <point x="523" y="710" type="curve" smooth="yes"/>
      <point x="447" y="710" type="line" smooth="yes"/>
      <point x="432" y="710"/>
      <point x="420" y="698"/>
      <point x="420" y="683" type="curve" smooth="yes"/>
      <point x="420" y="644" type="line"/>
      <point x="367" y="644" type="line" smooth="yes"/>
      <point x="352" y="644"/>
      <point x="340" y="632"/>
      <point x="340" y="617" type="curve" smooth="yes"/>
      <point x="340" y="581" type="line" smooth="yes"/>
      <point x="340" y="566"/>
      <point x="352" y="554"/>
      <point x="367" y="554" type="curve" smooth="yes"/>
      <point x="420" y="554" type="line"/>
      <point x="420" y="470" type="line"/>
      <point x="398" y="494"/>
      <point x="352" y="530"/>
    </contour>
    <contour>
      <point x="176" y="288" type="curve" smooth="yes"/>
      <point x="184" y="374"/>
      <point x="234" y="410"/>
      <point x="299" y="410" type="curve" smooth="yes"/>
      <point x="364" y="410"/>
      <point x="413" y="367"/>
      <point x="420" y="298" type="curve" smooth="yes"/>
      <point x="422" y="278"/>
      <point x="422" y="242"/>
      <point x="420" y="222" type="curve" smooth="yes"/>
      <point x="413" y="150"/>
      <point x="364" y="110"/>
      <point x="299" y="110" type="curve" name="hr02" smooth="yes"/>
      <point x="234" y="110"/>
      <point x="184" y="146"/>
      <point x="176" y="232" type="curve" smooth="yes"/>
      <point x="174" y="252"/>
      <point x="174" y="268"/>
    </contour>
  </outline>
</glyph>
